<?xml version="1.0" encoding="utf-8"?>
<!-- Generator: Adobe Illustrator 18.0.0, SVG Export Plug-In . SVG Version: 6.00 Build 0)  -->
<!DOCTYPE svg PUBLIC "-//W3C//DTD SVG 1.1//EN" "http://www.w3.org/Graphics/SVG/1.1/DTD/svg11.dtd">
<svg version="1.1" id="Calque_1" xmlns="http://www.w3.org/2000/svg" xmlns:xlink="http://www.w3.org/1999/xlink" x="0px" y="0px"
	 viewBox="0 0 178.3 170.6" enable-background="new 0 0 178.3 170.6" xml:space="preserve">
<g>
	<g>
		<g>
			<path fill="none" stroke="#282727" stroke-width="0.5" stroke-miterlimit="10" d="M89.2,33.2L89.2,33.2c0,0-0.1,0-0.1,0
				c0,0-0.1,0-0.1,0v0c-32.4,0.1-56.8,27.9-41.9,61.4c15,33.6,34.7,45.5,41.9,45.5S116,128.2,131,94.6
				C146,61.1,121.6,33.3,89.2,33.2z"/>
			<g>
				<g>
					<g>
						<g>
							<g>
								<g>
									<g>
										<path fill="none" stroke="#282727" stroke-width="0.5" stroke-miterlimit="10" d="M86.5,99.2c0,0-3.4-30.5-23.1-26.4
											C49.6,75.8,45.8,104,86.5,99.2z"/>
									</g>
								</g>
							</g>
						</g>
					</g>
					<g>
						<g>
							<g>
								<g>
									<g>
										<path fill="none" stroke="#282727" stroke-width="0.5" stroke-miterlimit="10" d="M91.3,99.2c0,0,3.4-30.5,23.1-26.4
											C128.3,75.8,132.1,104,91.3,99.2z"/>
									</g>
								</g>
							</g>
						</g>
					</g>
				</g>
				<ellipse fill="none" stroke="#282727" stroke-width="0.5" stroke-miterlimit="10" cx="88.9" cy="123.3" rx="1.9" ry="2.7"/>
				<g>
					<g>
						<path fill="none" stroke="#282727" stroke-width="0.5" stroke-miterlimit="10" d="M93.1,106.6c0,0-0.1,0.4-0.3,0.8
							c-0.2,0.4-0.5,0.9-1,1.2c-0.4,0.4-0.9,0.6-1.3,0.8c-0.4,0.1-0.8,0.1-0.8,0.1s0.1-0.4,0.3-0.8c0.2-0.4,0.5-0.9,1-1.2
							c0.4-0.4,0.9-0.6,1.3-0.8C92.8,106.6,93.1,106.6,93.1,106.6z"/>
					</g>
					<g>
						<path fill="none" stroke="#282727" stroke-width="0.5" stroke-miterlimit="10" d="M84.7,106.6c0,0,0.4,0,0.8,0.1
							c0.4,0.1,0.9,0.4,1.3,0.8c0.4,0.4,0.8,0.8,1,1.2c0.2,0.4,0.3,0.8,0.3,0.8s-0.4,0-0.8-0.1c-0.4-0.1-0.9-0.4-1.3-0.8
							c-0.4-0.4-0.8-0.8-1-1.2C84.8,106.9,84.7,106.6,84.7,106.6z"/>
					</g>
				</g>
			</g>
		</g>
		<g>
			<g>
				<path fill="none" stroke="#282727" stroke-width="0.5" stroke-miterlimit="10" d="M99.7,152.2c-36,5.8-70.1-18.8-75.9-54.9
					c-5.8-36,18.8-70.1,54.9-75.9s70.1,18.8,75.9,54.9C160.4,112.4,135.8,146.4,99.7,152.2z M79.4,25.3
					c-33.9,5.4-57.1,37.5-51.7,71.4c5.4,33.9,37.5,57.1,71.4,51.7c33.9-5.4,57.1-37.5,51.7-71.4C145.4,43,113.3,19.8,79.4,25.3z"/>
			</g>
			<g>
				<path fill="#FFFFFF" stroke="#282727" stroke-width="0.5" stroke-miterlimit="10" d="M29.4,63.4c-2.2-1.7-3.7-1.5-3.7-1.5
					c-2,0.5-1.3,2.4-1.3,2.4c-1.8,0.8-0.5,2.3-0.5,2.3s-2.3,0.3-0.9,4.2c0,0,0.2,1.4,1.5,2.3c0,0,0.2-1.8,0.6-2.7
					c0.4-0.9,3.5-0.1,3.5,2c0,0,1.5-1.3,0.7-2.6"/>
				<path fill="#FFFFFF" stroke="#282727" stroke-width="0.5" stroke-miterlimit="10" d="M25.8,64.7c0,0,1.6-0.3,3,0.8"/>
				<path fill="#FFFFFF" stroke="#282727" stroke-width="0.5" stroke-miterlimit="10" d="M25.5,67.3c0,0,2.5,0.1,3.9,2.5
					c0,0,2.5-1.1,1.1-2.1"/>
				<path fill="#FFFFFF" stroke="#282727" stroke-width="0.5" stroke-miterlimit="10" d="M30.1,67.8c-1-0.1-1.9-0.1-1.3-2.3
					c0.6-2.1,0.7-2.9,1.6-2.8c0.9,0.1,1.8-0.4,1.1,3C31.2,67.1,31.1,67.9,30.1,67.8z"/>
			</g>
			<g>
				<path fill="#FFFFFF" stroke="#282727" stroke-width="0.5" stroke-miterlimit="10" d="M48.5,136.5c-2.3,1.5-2.5,3-2.5,3
					c-0.1,2,1.9,2,1.9,2c0.2,1.9,2,1.2,2,1.2s-0.5,2.3,3.7,2.1c0,0,1.4,0.2,2.6-0.7c0,0-1.7-0.8-2.4-1.5c-0.8-0.7,1-3.4,3-2.7
					c0,0-0.8-1.8-2.2-1.5"/>
				<path fill="#FFFFFF" stroke="#282727" stroke-width="0.5" stroke-miterlimit="10" d="M48.6,140.3c0,0,0.2-1.6,1.7-2.5"/>
				<path fill="#FFFFFF" stroke="#282727" stroke-width="0.5" stroke-miterlimit="10" d="M51,141.5c0,0,0.9-2.3,3.6-2.9
					c0,0-0.2-2.7-1.7-1.7"/>
				<path fill="#FFFFFF" stroke="#282727" stroke-width="0.5" stroke-miterlimit="10" d="M52.9,137.2c-0.4,0.9-0.7,1.8-2.5,0.6
					c-1.8-1.2-2.5-1.5-2.1-2.4s0.1-1.8,3.2-0.1C52.5,135.9,53.3,136.3,52.9,137.2z"/>
			</g>
			<g>
				<path fill="#FFFFFF" stroke="#282727" stroke-width="0.5" stroke-miterlimit="10" d="M123.9,140.9c0.7,2.7,2.1,3.3,2.1,3.3
					c1.9,0.8,2.5-1.2,2.5-1.2c1.9,0.4,1.8-1.6,1.8-1.6s2,1.2,3.2-2.9c0,0,0.7-1.3,0.2-2.7c0,0-1.2,1.3-2.1,1.8
					c-0.9,0.5-2.9-1.9-1.6-3.7c0,0-2,0.2-2.1,1.7"/>
				<path fill="#FFFFFF" stroke="#282727" stroke-width="0.5" stroke-miterlimit="10" d="M127.6,142c0,0-1.4-0.7-1.9-2.4"/>
				<path fill="#FFFFFF" stroke="#282727" stroke-width="0.5" stroke-miterlimit="10" d="M129.4,140.1c0,0-1.9-1.5-1.7-4.3
					c0,0-2.6-0.6-2.1,1.1"/>
				<path fill="#FFFFFF" stroke="#282727" stroke-width="0.5" stroke-miterlimit="10" d="M126,137c0.8,0.7,1.5,1.2-0.3,2.6
					c-1.7,1.4-2.2,1.9-2.9,1.3c-0.7-0.7-1.7-0.7,0.9-3.1C124.6,136.9,125.2,136.3,126,137z"/>
			</g>
			<g>
				<path fill="#FFFFFF" stroke="#282727" stroke-width="0.5" stroke-miterlimit="10" d="M151.4,70.6c2.8,0.1,3.8-1,3.8-1
					c1.3-1.5-0.4-2.7-0.4-2.7c1-1.7-0.9-2.2-0.9-2.2s1.7-1.6-1.8-3.9c0,0-1-1-2.5-1c0,0,0.9,1.6,1.1,2.6c0.2,1-2.7,2.2-4,0.4
					c0,0-0.4,2,0.9,2.5"/>
				<path fill="#FFFFFF" stroke="#282727" stroke-width="0.5" stroke-miterlimit="10" d="M153.6,67.4c0,0-1.1,1.2-2.9,1"/>
				<path fill="#FFFFFF" stroke="#282727" stroke-width="0.5" stroke-miterlimit="10" d="M152.3,65.1c0,0-2.1,1.3-4.6,0.2
					c0,0-1.4,2.3,0.3,2.4"/>
				<path fill="#FFFFFF" stroke="#282727" stroke-width="0.5" stroke-miterlimit="10" d="M148.3,67.4c0.9-0.5,1.6-1,2.4,1.1
					c0.8,2.1,1.1,2.7,0.3,3.2s-1.2,1.4-2.6-1.8C147.8,68.7,147.4,67.9,148.3,67.4z"/>
			</g>
			<g>
				<path fill="#FFFFFF" stroke="#282727" stroke-width="0.5" stroke-miterlimit="10" d="M93,22.6c1-2.6,0.3-3.9,0.3-3.9
					c-1.1-1.7-2.7-0.5-2.7-0.5c-1.3-1.5-2.3,0.2-2.3,0.2s-1-2.1-4.3,0.5c0,0-1.3,0.7-1.7,2.1c0,0,1.8-0.3,2.8-0.2s1.2,3.3-0.9,3.9
					c0,0,1.7,1,2.7-0.1"/>
				<path fill="#FFFFFF" stroke="#282727" stroke-width="0.5" stroke-miterlimit="10" d="M90.7,19.6c0,0,0.8,1.4,0.1,3.1"/>
				<path fill="#FFFFFF" stroke="#282727" stroke-width="0.5" stroke-miterlimit="10" d="M88.1,20.1c0,0,0.6,2.4-1.2,4.5
					c0,0,1.8,2,2.3,0.4"/>
				<path fill="#FFFFFF" stroke="#282727" stroke-width="0.5" stroke-miterlimit="10" d="M89.1,24.6c-0.2-1-0.5-1.9,1.7-1.9
					c2.2-0.1,3-0.2,3.1,0.7c0.2,0.9,1,1.6-2.5,2C90.1,25.5,89.3,25.6,89.1,24.6z"/>
			</g>
		</g>
	</g>
</g>
<path fill="none" stroke="#282727" stroke-width="3" stroke-linecap="round" stroke-linejoin="round" stroke-miterlimit="10" d="
	M68.7,75.5c2.5,1.5,4.9,3.1,7.3,4.8c-2-1.5-4-3.2-6-4.9c1.8,1.7,3.8,3.2,6,4.4c-2.3-1.8-4.6-3.7-7-5.5c2.6,1.3,5,3.1,7,5.2
	c-1.4-1.8-3.1-3.3-4.9-4.6c2.1,1.7,6.1,5.2,8.2,6.9c-1.8-1.9-5.6-5.4-7.6-7.1c1.6,1.3,4.4,3.4,5.9,4.7c-1.9-1.9-6-4.2-8.4-5.3
	c2.3,2.7,5.3,5,8,7.3c-3.1-2.7-6.4-5.2-9.9-7.4c3.6,2.7,9.5,7.1,13.1,9.8c-3.7-2.6-9.7-6.9-13.4-9.6c1.1,0.1,2.1,0.8,3,1.5
	c2.9,2.3,6.9,5.1,9.8,7.4c-3.9-2.5-8.7-5.7-12.3-8.6c3.9,3.2,9.1,6.9,13.1,10.1c-3.7-2.7-8.6-6-12-9.1c3.4,3.3,7,6.3,10.8,9.2
	c-4.8-3.4-9.6-6.7-14.5-9.9c2.6,1.1,4.8,2.8,7.1,4.5c2.9,2.2,7.4,6.2,10.3,8.4c-6.4-4.7-10.7-9.2-17.1-13.9
	c7.6,3.3,9.3,8.2,16.4,12.3c-6-4.5-11.4-8.6-18.1-12c1.9,0.7,2.9,1.9,4.5,3.1c4.9,3.6,10,8.3,14.6,12.2c-1.6-1.6-4.1-3.5-6.1-4.6
	c-5-2.6-10.2-6.7-14.7-10c7.4,4.6,15.3,10,21.4,16.2c-5.7-5.6-17.9-9.4-23.9-14.6c6.4,3,19.2,11.3,24.3,16.2
	C78.8,87.1,67.5,79,61.3,75.3c7.2,5.2,16.2,12.4,22.6,18.6c-1.7-2-3.8-3.5-5.8-5.2c-2.3-2-4.8-3.7-7.3-5.4
	c-3.6-2.5-7.1-4.9-10.7-7.4c8.6,4.9,16.8,12.7,24.1,19.3C73.8,87.4,68.2,85.7,58.5,77c11,8.4,15.1,11,26.1,19.4
	C77,89.9,68.8,83.9,60.2,78.6c8.2,4.2,15,10.6,21.7,17c-7.6-6-15.2-12-22.8-18c8.4,6.3,17.7,14.2,26.1,20.6
	c-7-6.2-19.6-15-28.1-18.9c7.5,4.3,19.5,13.2,26.1,19c-7.2-5.6-18.9-13.7-25.6-19.9c6.7,4.6,18.5,13.8,23.7,20
	c-6.8-6.5-17-13.3-25-18.2c7,3.6,17.2,13.2,23.1,18.3c-7.7-6-14.3-11.9-22.5-17.3c7.4,6.1,8.3,8,15.7,14.1
	C68.4,92,59.7,85.1,55.6,81.8c2.3,0.7,8.9,5.9,10.8,7.5c3.6,2.9,7.4,5.9,10.8,9.1c-4.3-2.9-8.8-6-12.8-9.4c3.2,3,7.7,6.2,10.7,9.3
	c-6.2-3.2-12.6-8.1-17.6-13c4.6,2.9,8.8,6.4,12.7,10.2c-5.9-5.1-8.6-7.3-14.8-12.1c5.4,4.2,13,9.7,17.7,14.7
	c-3.8-3.3-14-10.5-17.8-13.7c4.6,4.1,11.6,9.5,16.1,13.7c-1.9-1.3-6-3.7-7.9-5c1,0.7,5,3.7,5.7,4.6c-4.6-2.6-10.1-8.1-14.1-11.6
	c3.7,2.5,5.4,5.4,9.1,7.9c-2.4-2.4-5.5-5-8.6-6.5c2.9,2.5,8.3,7.1,11.2,9.6c-2.1-0.8-9.2-6.7-11-8c1,2.8,7.1,6.3,8.4,7.2
	c-5-2.5-5.2-3.7-5.7-4.1"/>
<path fill="none" stroke="#282727" stroke-width="3" stroke-linecap="round" stroke-linejoin="round" stroke-miterlimit="10" d="
	M109.2,75.5c-2.5,1.5-4.9,3.1-7.3,4.8c2-1.5,4-3.2,6-4.9c-1.8,1.7-3.8,3.2-6,4.4c2.3-1.8,4.6-3.7,7-5.5c-2.6,1.3-5,3.1-7,5.2
	c1.4-1.8,3.1-3.3,4.9-4.6c-2.1,1.7-6.1,5.2-8.2,6.9c1.8-1.9,5.6-5.4,7.6-7.1c-1.6,1.3-4.4,3.4-5.9,4.7c1.9-1.9,6-4.2,8.4-5.3
	c-2.3,2.7-5.3,5-8,7.3c3.1-2.7,6.4-5.2,9.9-7.4c-3.6,2.7-9.5,7.1-13.1,9.8c3.7-2.6,9.7-6.9,13.4-9.6c-1.1,0.1-2.1,0.8-3,1.5
	c-2.9,2.3-6.9,5.1-9.8,7.4c3.9-2.5,8.7-5.7,12.3-8.6c-3.9,3.2-9.1,6.9-13.1,10.1c3.7-2.7,8.6-6,12-9.1c-3.4,3.3-7,6.3-10.8,9.2
	c4.8-3.4,9.6-6.7,14.5-9.9c-2.6,1.1-4.8,2.8-7.1,4.5c-2.9,2.2-7.4,6.2-10.3,8.4c6.4-4.7,10.7-9.2,17.1-13.9
	c-7.6,3.3-9.3,8.2-16.4,12.3c6-4.5,11.4-8.6,18.1-12c-1.9,0.7-2.9,1.9-4.5,3.1c-4.9,3.6-10,8.3-14.6,12.2c1.6-1.6,4.1-3.5,6.1-4.6
	c5-2.6,10.2-6.7,14.7-10c-7.4,4.6-15.3,10-21.4,16.2c5.7-5.6,17.9-9.4,23.9-14.6c-6.4,3-19.2,11.3-24.3,16.2
	c4.8-5.5,16.1-13.5,22.4-17.3c-7.2,5.2-16.2,12.4-22.6,18.6c1.7-2,3.8-3.5,5.8-5.2c2.3-2,4.8-3.7,7.3-5.4c3.6-2.5,7.1-4.9,10.7-7.4
	c-8.6,4.9-16.8,12.7-24.1,19.3c10.5-7.7,16.1-9.4,25.8-18.1c-11,8.4-15.1,11-26.1,19.4c7.6-6.6,15.8-12.5,24.4-17.8
	c-8.2,4.2-15,10.6-21.7,17c7.6-6,15.2-12,22.8-18c-8.4,6.3-17.7,14.2-26.1,20.6c7-6.2,19.6-15,28.1-18.9c-7.5,4.3-19.5,13.2-26.1,19
	c7.2-5.6,18.9-13.7,25.6-19.9c-6.7,4.6-18.5,13.8-23.7,20c6.8-6.5,17-13.3,25-18.2c-7,3.6-17.2,13.2-23.1,18.3
	c7.7-6,14.3-11.9,22.5-17.3c-7.4,6.1-8.3,8-15.7,14.1c4.1-3.2,12.8-10.2,16.9-13.4c-2.3,0.7-8.9,5.9-10.8,7.5
	c-3.6,2.9-7.4,5.9-10.8,9.1c4.3-2.9,8.8-6,12.8-9.4c-3.2,3-7.7,6.2-10.7,9.3c6.2-3.2,12.6-8.1,17.6-13c-4.6,2.9-8.8,6.4-12.7,10.2
	c5.9-5.1,8.6-7.3,14.8-12.1c-5.4,4.2-13,9.7-17.7,14.7c3.8-3.3,14-10.5,17.8-13.7c-4.6,4.1-11.6,9.5-16.1,13.7c1.9-1.3,6-3.7,7.9-5
	c-1,0.7-5,3.7-5.7,4.6c4.6-2.6,10.1-8.1,14.1-11.6c-3.7,2.5-5.4,5.4-9.1,7.9c2.4-2.4,5.5-5,8.6-6.5c-2.9,2.5-8.3,7.1-11.2,9.6
	c2.1-0.8,9.2-6.7,11-8c-1,2.8-7.1,6.3-8.4,7.2c5-2.5,5.2-3.7,5.7-4.1"/>
<path fill="none" stroke="#282727" stroke-linecap="round" stroke-linejoin="round" stroke-miterlimit="10" d="M85.4,107.1
	c0.2,0.1,1.9,1.7,2,1.8"/>
<path fill="none" stroke="#282727" stroke-linecap="round" stroke-linejoin="round" stroke-miterlimit="10" d="M92.7,106.9
	c-0.4,0.3-1.8,1.7-2.3,2"/>
<path fill="none" stroke="#282727" stroke-linecap="round" stroke-linejoin="round" stroke-miterlimit="10" d="M88.9,121.4
	c-0.1,1.2,0.3,2.5,0.2,3.7c0,0.1,0,0.2-0.1,0.3s-0.2,0.1-0.3,0c-0.1-1-0.1-2.1-0.1-3.1c0-0.4,0-0.8-0.2-1.2c0,0.2-0.1,0.4-0.2,0.6
	c-0.2,0.5-0.1,1.1-0.1,1.6c0,0.5,0.1,1.3,0.1,1.8c-0.2-0.2-0.5-0.4-0.5-0.6c-0.1-0.7,0.1-2.1,0.2-2.8c-0.2,0.2-0.3,0.8-0.3,1.1
	c0,0.4,0,0.8,0,1.3c0-0.5,0.1-1,0.4-1.4c0.1-0.2,0.2-0.3,0.4-0.4c0.3-0.4,0.7-0.7,1-1.1c0.3,0.4,0.4,0.9,0.4,1.4
	c0,0.7,0,1.4,0.1,2.1c0,0.1-0.1,0.7-0.2,0.8c0.1-0.4,0.4-1.2,0.5-1.7c0.2-0.6,0.3-1.2,0-1.6"/>
</svg>
