<?xml version="1.0" encoding="utf-8"?>
<!-- Generator: Adobe Illustrator 18.0.0, SVG Export Plug-In . SVG Version: 6.00 Build 0)  -->
<!DOCTYPE svg PUBLIC "-//W3C//DTD SVG 1.1//EN" "http://www.w3.org/Graphics/SVG/1.1/DTD/svg11.dtd">
<svg version="1.1" id="Calque_1" xmlns="http://www.w3.org/2000/svg" xmlns:xlink="http://www.w3.org/1999/xlink" x="0px" y="0px"
	 viewBox="0 0 348 121.5" enable-background="new 0 0 348 121.5" xml:space="preserve">
<g>
	<g>
		<g>
			<g>
				<path fill="#3C3C3B" d="M143.3,57.9c-1,0.4-2-0.1-2.4-1.1l-5-13.6l-5,13.6c-0.3,1-1.4,1.5-2.4,1.1c-1-0.4-1.5-1.4-1.1-2.4
					l6.7-18.2c0.3-0.7,1-1.2,1.8-1.2c0.8,0,1.5,0.5,1.8,1.2l6.7,18.2C144.8,56.5,144.3,57.5,143.3,57.9z"/>
				<path fill="#3C3C3B" d="M166.1,56.3c0,1-0.8,1.8-1.8,1.8h-10.5c-1,0-1.8-0.8-1.8-1.8V38c0-1,0.8-1.8,1.8-1.8
					c1,0,1.8,0.8,1.8,1.8v16.4h8.8C165.3,54.4,166.1,55.2,166.1,56.3z"/>
				<path fill="#3C3C3B" d="M179.5,37.9v18.4c0,1-0.8,1.8-1.8,1.8c-1,0-1.8-0.8-1.8-1.8V37.9c0-1,0.8-1.7,1.8-1.7
					C178.7,36.2,179.5,36.9,179.5,37.9z"/>
				<path fill="#3C3C3B" d="M187.8,56.3V37.9c0-1,0.8-1.8,1.8-1.8h10.7c1,0,1.8,0.8,1.8,1.8c0,1-0.8,1.8-1.8,1.8h-8.9v5.6h6.7
					c1,0,1.8,0.8,1.8,1.8c0,1-0.8,1.8-1.8,1.8h-6.7v5.5h8.9c1,0,1.8,0.8,1.8,1.8c0,1-0.8,1.8-1.8,1.8h-10.7
					C188.6,58,187.8,57.2,187.8,56.3z"/>
				<path fill="#3C3C3B" d="M225.5,57.2l-9.4-13.5v12.6c0,1-0.8,1.8-1.8,1.8s-1.8-0.8-1.8-1.8l0-18.2c0-0.6,0.3-1.3,0.9-1.7
					c0.3-0.2,0.6-0.3,1-0.3c0.6,0,1.2,0.3,1.5,0.8l9.4,13.9v-13c0-1,0.8-1.8,1.8-1.8c1,0,1.7,0.8,1.7,1.8V56c0,1-0.5,1.9-1.7,2
					C226.4,58,225.9,57.7,225.5,57.2z"/>
				<path fill="#3C3C3B" d="M248.2,58c-6,0-10.8-5-10.8-11c0-6,4.9-10.8,10.8-10.8c6,0,10.8,4.8,10.8,10.8
					C259,53.1,254.1,58,248.2,58z M240.8,47c0,4.2,3.3,7.5,7.3,7.5c4,0,7.4-3.4,7.4-7.5c0-4-3.3-7.4-7.4-7.4
					C244.1,39.7,240.8,43,240.8,47z"/>
				<path fill="#3C3C3B" d="M268.5,56.3V38c0-1,0.8-1.8,1.8-1.8h4.4c1.6,0,3.1,0.3,4.6,1c1.4,0.6,2.7,1.5,3.7,2.7
					c1,1.1,1.7,2.4,2.2,3.9c0.4,1.5,0.6,3.1,0.4,4.7c-0.3,2.6-1.6,5.1-3.6,6.9c-2,1.8-4.6,2.8-7.3,2.8h-4.5
					C269.3,58,268.5,57.2,268.5,56.3z M282,48c0.3-2.2-0.3-4.2-1.7-5.8c-1.4-1.6-3.4-2.5-5.6-2.5H272v14.7h2.7
					C278.5,54.5,281.6,51.7,282,48z"/>
				<path fill="#3C3C3B" d="M293.2,56.3V37.9c0-1,0.8-1.8,1.8-1.8h10.7c1,0,1.8,0.8,1.8,1.8c0,1-0.8,1.8-1.8,1.8h-8.9v5.6h6.7
					c1,0,1.8,0.8,1.8,1.8c0,1-0.8,1.8-1.8,1.8h-6.7v5.5h8.9c1,0,1.8,0.8,1.8,1.8c0,1-0.8,1.8-1.8,1.8H295
					C294,58,293.2,57.2,293.2,56.3z"/>
				<path fill="#3C3C3B" d="M335.3,37.2c0.2,0.4,0.2,0.9,0,1.4l-7,18.4c-0.3,0.7-1,1.2-1.7,1.2h-0.1c-0.7,0-1.4-0.5-1.7-1.2
					l-6.8-18.2c-0.2-0.5-0.2-1,0-1.4c0.2-0.4,0.5-0.7,1-0.9c0.2-0.1,0.4-0.1,0.6-0.1c0.7,0,1.4,0.5,1.7,1.2l5.2,13.8l5.3-14
					c0.3-0.7,0.9-1.2,1.7-1.2c0.2,0,0.4,0.1,0.6,0.1C334.8,36.4,335.1,36.7,335.3,37.2z"/>
			</g>
			<g>
				<path fill="#3C3C3B" d="M129.2,71.6c-0.4,0-0.7-0.1-1-0.3c-0.3-0.2-0.5-0.5-0.6-0.8c-0.1-0.3-0.2-0.7-0.3-1.1
					c-0.1-0.4-0.1-0.8-0.1-1.1c0-0.4,0-0.7,0.1-1.1c0.1-0.4,0.2-0.7,0.3-1.1c0.1-0.3,0.3-0.6,0.6-0.8c0.3-0.2,0.6-0.3,1-0.3
					c0.4,0,0.7,0.1,1,0.3c0.3,0.2,0.5,0.5,0.6,0.8c0.1,0.3,0.2,0.7,0.3,1.1c0.1,0.4,0.1,0.8,0.1,1.1c0,0.4,0,0.7-0.1,1.1
					c-0.1,0.4-0.2,0.7-0.3,1.1c-0.1,0.3-0.3,0.6-0.6,0.8C129.9,71.5,129.6,71.6,129.2,71.6z M129.2,65.2c-0.3,0-0.5,0.1-0.7,0.2
					c-0.2,0.1-0.4,0.3-0.5,0.4c-0.1,0.2-0.2,0.4-0.3,0.6c-0.1,0.2-0.1,0.5-0.2,0.7c0,0.2-0.1,0.5-0.1,0.7c0,0.2,0,0.4,0,0.6
					c0,0.2,0,0.3,0,0.6c0,0.2,0,0.4,0.1,0.7c0,0.2,0.1,0.5,0.2,0.7c0.1,0.2,0.2,0.4,0.3,0.6c0.1,0.2,0.3,0.3,0.5,0.4
					c0.2,0.1,0.4,0.2,0.7,0.2c0.3,0,0.5-0.1,0.7-0.2c0.2-0.1,0.4-0.3,0.5-0.4c0.1-0.2,0.2-0.4,0.3-0.6c0.1-0.2,0.1-0.5,0.2-0.7
					c0-0.2,0.1-0.5,0.1-0.7c0-0.2,0-0.4,0-0.6c0-0.2,0-0.3,0-0.6c0-0.2,0-0.4-0.1-0.7c0-0.2-0.1-0.5-0.2-0.7
					c-0.1-0.2-0.2-0.4-0.3-0.6c-0.1-0.2-0.3-0.3-0.5-0.4C129.7,65.2,129.5,65.2,129.2,65.2z"/>
				<path fill="#3C3C3B" d="M132.3,69.7c0-0.2,0-0.5,0.1-0.7c0.1-0.3,0.2-0.6,0.4-0.9l1.7-2.9h0.2l-1.9,3.2l0,0
					c0.2-0.2,0.4-0.3,0.6-0.5c0.2-0.1,0.5-0.2,0.8-0.2c0.3,0,0.5,0,0.7,0.1c0.2,0.1,0.4,0.2,0.6,0.4c0.2,0.2,0.3,0.4,0.4,0.6
					c0.1,0.2,0.1,0.5,0.1,0.8c0,0.3,0,0.5-0.1,0.8c-0.1,0.2-0.2,0.4-0.4,0.6c-0.2,0.2-0.4,0.3-0.6,0.4c-0.2,0.1-0.5,0.1-0.8,0.1
					s-0.5,0-0.8-0.1c-0.2-0.1-0.4-0.2-0.6-0.4c-0.2-0.2-0.3-0.4-0.4-0.6C132.4,70.2,132.3,69.9,132.3,69.7z M132.5,69.7
					c0,0.3,0,0.5,0.1,0.7c0.1,0.2,0.2,0.4,0.3,0.6c0.1,0.2,0.3,0.3,0.5,0.4c0.2,0.1,0.4,0.1,0.7,0.1c0.2,0,0.5,0,0.7-0.1
					c0.2-0.1,0.4-0.2,0.5-0.4c0.1-0.2,0.3-0.3,0.3-0.6c0.1-0.2,0.1-0.4,0.1-0.7c0-0.3,0-0.5-0.1-0.7c-0.1-0.2-0.2-0.4-0.3-0.6
					c-0.1-0.2-0.3-0.3-0.5-0.4c-0.2-0.1-0.4-0.1-0.7-0.1c-0.2,0-0.5,0-0.7,0.1c-0.2,0.1-0.4,0.2-0.6,0.4c-0.2,0.2-0.3,0.3-0.4,0.6
					C132.6,69.2,132.5,69.4,132.5,69.7z"/>
				<path fill="#3C3C3B" d="M142.5,69.8v1.6h-0.2v-1.6h-3v-0.2l2.9-4.4h0.3v4.5h1.1v0.2H142.5z M142.3,65.3L142.3,65.3l-2.8,4.3h2.8
					V65.3z"/>
				<path fill="#3C3C3B" d="M144.6,69.7c0-0.2,0-0.5,0.1-0.7c0.1-0.3,0.2-0.6,0.4-0.9l1.7-2.9h0.2l-1.9,3.2l0,0
					c0.2-0.2,0.4-0.3,0.6-0.5c0.2-0.1,0.5-0.2,0.8-0.2c0.3,0,0.5,0,0.7,0.1c0.2,0.1,0.4,0.2,0.6,0.4c0.2,0.2,0.3,0.4,0.4,0.6
					c0.1,0.2,0.1,0.5,0.1,0.8c0,0.3,0,0.5-0.1,0.8c-0.1,0.2-0.2,0.4-0.4,0.6c-0.2,0.2-0.4,0.3-0.6,0.4c-0.2,0.1-0.5,0.1-0.8,0.1
					s-0.5,0-0.8-0.1c-0.2-0.1-0.4-0.2-0.6-0.4c-0.2-0.2-0.3-0.4-0.4-0.6C144.6,70.2,144.6,69.9,144.6,69.7z M144.8,69.7
					c0,0.3,0,0.5,0.1,0.7c0.1,0.2,0.2,0.4,0.3,0.6c0.1,0.2,0.3,0.3,0.5,0.4c0.2,0.1,0.4,0.1,0.7,0.1c0.2,0,0.5,0,0.7-0.1
					c0.2-0.1,0.4-0.2,0.5-0.4c0.1-0.2,0.3-0.3,0.3-0.6c0.1-0.2,0.1-0.4,0.1-0.7c0-0.3,0-0.5-0.1-0.7c-0.1-0.2-0.2-0.4-0.3-0.6
					c-0.1-0.2-0.3-0.3-0.5-0.4c-0.2-0.1-0.4-0.1-0.7-0.1c-0.2,0-0.5,0-0.7,0.1c-0.2,0.1-0.4,0.2-0.6,0.4c-0.2,0.2-0.3,0.3-0.4,0.6
					C144.8,69.2,144.8,69.4,144.8,69.7z"/>
				<path fill="#3C3C3B" d="M155.6,69.8c0,0.3,0,0.5-0.1,0.7c-0.1,0.2-0.2,0.4-0.4,0.6c-0.2,0.2-0.4,0.3-0.6,0.4
					c-0.2,0.1-0.5,0.1-0.7,0.1c-0.3,0-0.5,0-0.7-0.1c-0.2-0.1-0.4-0.2-0.6-0.4c-0.2-0.2-0.3-0.3-0.4-0.6c-0.1-0.2-0.1-0.5-0.1-0.7
					c0-0.2,0-0.4,0.1-0.5c0.1-0.2,0.1-0.3,0.2-0.5c0.1-0.2,0.2-0.3,0.4-0.4c0.2-0.1,0.4-0.2,0.6-0.3v0c-0.4-0.1-0.7-0.4-0.8-0.6
					c-0.2-0.3-0.3-0.6-0.3-0.9c0-0.2,0-0.4,0.1-0.6c0.1-0.2,0.2-0.3,0.3-0.5c0.1-0.1,0.3-0.2,0.5-0.3c0.2-0.1,0.4-0.1,0.7-0.1
					c0.2,0,0.4,0,0.6,0.1c0.2,0.1,0.4,0.2,0.5,0.3c0.1,0.1,0.3,0.3,0.3,0.5c0.1,0.2,0.1,0.4,0.1,0.6c0,0.3-0.1,0.6-0.3,0.9
					c-0.2,0.3-0.5,0.5-0.8,0.6v0c0.2,0.1,0.4,0.2,0.6,0.3c0.2,0.1,0.3,0.3,0.4,0.4c0.1,0.1,0.2,0.3,0.2,0.5
					C155.5,69.4,155.6,69.6,155.6,69.8z M155.4,69.8c0-0.2,0-0.5-0.1-0.7c-0.1-0.2-0.2-0.4-0.4-0.5c-0.2-0.1-0.3-0.3-0.5-0.3
					c-0.2-0.1-0.4-0.1-0.7-0.1c-0.2,0-0.5,0-0.7,0.1c-0.2,0.1-0.4,0.2-0.5,0.3c-0.2,0.1-0.3,0.3-0.4,0.5c-0.1,0.2-0.1,0.4-0.1,0.7
					c0,0.2,0,0.4,0.1,0.6c0.1,0.2,0.2,0.4,0.3,0.5c0.1,0.1,0.3,0.3,0.5,0.3c0.2,0.1,0.4,0.1,0.7,0.1c0.3,0,0.5,0,0.7-0.1
					c0.2-0.1,0.4-0.2,0.5-0.3c0.1-0.1,0.3-0.3,0.3-0.5C155.3,70.2,155.4,70,155.4,69.8z M155.1,66.6c0-0.2,0-0.4-0.1-0.6
					c-0.1-0.2-0.2-0.3-0.3-0.4c-0.1-0.1-0.3-0.2-0.5-0.3c-0.2-0.1-0.4-0.1-0.6-0.1c-0.2,0-0.4,0-0.6,0.1c-0.2,0.1-0.3,0.2-0.5,0.3
					c-0.1,0.1-0.2,0.3-0.3,0.4c-0.1,0.2-0.1,0.4-0.1,0.6c0,0.2,0,0.4,0.1,0.5c0.1,0.2,0.2,0.3,0.3,0.5s0.3,0.2,0.5,0.3
					c0.2,0.1,0.4,0.1,0.6,0.1c0.2,0,0.4,0,0.6-0.1c0.2-0.1,0.3-0.2,0.5-0.3s0.2-0.3,0.3-0.5C155.1,66.9,155.1,66.8,155.1,66.6z"/>
				<path fill="#3C3C3B" d="M160.6,69.8c0,0.3,0,0.5-0.1,0.7c-0.1,0.2-0.2,0.4-0.4,0.6c-0.2,0.2-0.4,0.3-0.6,0.4
					c-0.2,0.1-0.5,0.1-0.7,0.1c-0.3,0-0.5,0-0.7-0.1c-0.2-0.1-0.4-0.2-0.6-0.4c-0.2-0.2-0.3-0.3-0.4-0.6c-0.1-0.2-0.1-0.5-0.1-0.7
					c0-0.2,0-0.4,0.1-0.5c0.1-0.2,0.1-0.3,0.2-0.5c0.1-0.2,0.2-0.3,0.4-0.4c0.2-0.1,0.4-0.2,0.6-0.3v0c-0.4-0.1-0.7-0.4-0.8-0.6
					c-0.2-0.3-0.3-0.6-0.3-0.9c0-0.2,0-0.4,0.1-0.6c0.1-0.2,0.2-0.3,0.3-0.5c0.1-0.1,0.3-0.2,0.5-0.3c0.2-0.1,0.4-0.1,0.7-0.1
					c0.2,0,0.4,0,0.6,0.1c0.2,0.1,0.4,0.2,0.5,0.3c0.1,0.1,0.3,0.3,0.3,0.5c0.1,0.2,0.1,0.4,0.1,0.6c0,0.3-0.1,0.6-0.3,0.9
					c-0.2,0.3-0.5,0.5-0.8,0.6v0c0.2,0.1,0.4,0.2,0.6,0.3s0.3,0.3,0.4,0.4c0.1,0.1,0.2,0.3,0.2,0.5
					C160.6,69.4,160.6,69.6,160.6,69.8z M160.4,69.8c0-0.2,0-0.5-0.1-0.7c-0.1-0.2-0.2-0.4-0.4-0.5c-0.2-0.1-0.3-0.3-0.5-0.3
					c-0.2-0.1-0.4-0.1-0.7-0.1c-0.2,0-0.5,0-0.7,0.1c-0.2,0.1-0.4,0.2-0.5,0.3c-0.2,0.1-0.3,0.3-0.4,0.5c-0.1,0.2-0.1,0.4-0.1,0.7
					c0,0.2,0,0.4,0.1,0.6c0.1,0.2,0.2,0.4,0.3,0.5c0.1,0.1,0.3,0.3,0.5,0.3c0.2,0.1,0.4,0.1,0.7,0.1s0.5,0,0.7-0.1
					c0.2-0.1,0.4-0.2,0.5-0.3c0.1-0.1,0.3-0.3,0.3-0.5C160.3,70.2,160.4,70,160.4,69.8z M160.1,66.6c0-0.2,0-0.4-0.1-0.6
					c-0.1-0.2-0.2-0.3-0.3-0.4c-0.1-0.1-0.3-0.2-0.5-0.3c-0.2-0.1-0.4-0.1-0.6-0.1c-0.2,0-0.4,0-0.6,0.1c-0.2,0.1-0.3,0.2-0.5,0.3
					c-0.1,0.1-0.2,0.3-0.3,0.4c-0.1,0.2-0.1,0.4-0.1,0.6c0,0.2,0,0.4,0.1,0.5c0.1,0.2,0.2,0.3,0.3,0.5c0.1,0.1,0.3,0.2,0.5,0.3
					c0.2,0.1,0.4,0.1,0.6,0.1c0.2,0,0.4,0,0.6-0.1c0.2-0.1,0.3-0.2,0.5-0.3c0.1-0.1,0.2-0.3,0.3-0.5
					C160.1,66.9,160.1,66.8,160.1,66.6z"/>
				<path fill="#3C3C3B" d="M167.6,69.8c0,0.2,0,0.5-0.1,0.7c-0.1,0.2-0.2,0.4-0.3,0.6c-0.1,0.2-0.3,0.3-0.6,0.4
					c-0.2,0.1-0.5,0.1-0.8,0.1c-0.4,0-0.8-0.1-1.1-0.3c-0.3-0.2-0.5-0.4-0.7-0.7l0.2-0.1c0.1,0.3,0.3,0.5,0.6,0.7
					c0.3,0.2,0.6,0.2,1,0.3c0.3,0,0.5,0,0.7-0.1c0.2-0.1,0.4-0.2,0.5-0.3c0.1-0.1,0.2-0.3,0.3-0.5c0.1-0.2,0.1-0.4,0.1-0.6
					c0-0.3-0.1-0.5-0.2-0.7c-0.1-0.2-0.3-0.4-0.4-0.5c-0.2-0.1-0.4-0.2-0.6-0.3c-0.2-0.1-0.4-0.1-0.6-0.1h-0.2V68h0.2
					c0.2,0,0.4,0,0.6-0.1c0.2-0.1,0.4-0.1,0.5-0.3s0.3-0.3,0.4-0.5c0.1-0.2,0.1-0.4,0.1-0.7c0-0.2,0-0.4-0.1-0.6
					c-0.1-0.2-0.2-0.3-0.3-0.4s-0.3-0.2-0.4-0.3c-0.2-0.1-0.4-0.1-0.6-0.1c-0.3,0-0.5,0.1-0.8,0.2c-0.2,0.1-0.4,0.3-0.6,0.5
					l-0.2-0.1c0.2-0.2,0.4-0.4,0.6-0.5c0.3-0.1,0.5-0.2,0.9-0.2c0.2,0,0.4,0,0.6,0.1c0.2,0.1,0.4,0.2,0.5,0.3
					c0.1,0.1,0.3,0.3,0.3,0.5c0.1,0.2,0.1,0.4,0.1,0.6c0,0.2,0,0.4-0.1,0.5c-0.1,0.2-0.1,0.3-0.2,0.5c-0.1,0.1-0.2,0.3-0.4,0.4
					c-0.2,0.1-0.4,0.2-0.6,0.2v0c0.3,0,0.5,0.1,0.7,0.2c0.2,0.1,0.4,0.2,0.5,0.4c0.1,0.1,0.2,0.3,0.3,0.5
					C167.6,69.4,167.6,69.6,167.6,69.8z"/>
				<path fill="#3C3C3B" d="M171,71.6c-0.4,0-0.7-0.1-1-0.3c-0.3-0.2-0.5-0.5-0.6-0.8c-0.1-0.3-0.2-0.7-0.3-1.1
					c-0.1-0.4-0.1-0.8-0.1-1.1c0-0.4,0-0.7,0.1-1.1s0.2-0.7,0.3-1.1c0.1-0.3,0.3-0.6,0.6-0.8c0.3-0.2,0.6-0.3,1-0.3
					c0.4,0,0.7,0.1,1,0.3c0.3,0.2,0.5,0.5,0.6,0.8c0.1,0.3,0.2,0.7,0.3,1.1c0.1,0.4,0.1,0.8,0.1,1.1c0,0.4,0,0.7-0.1,1.1
					c-0.1,0.4-0.2,0.7-0.3,1.1c-0.1,0.3-0.3,0.6-0.6,0.8C171.7,71.5,171.4,71.6,171,71.6z M171,65.2c-0.3,0-0.5,0.1-0.7,0.2
					c-0.2,0.1-0.4,0.3-0.5,0.4c-0.1,0.2-0.2,0.4-0.3,0.6c-0.1,0.2-0.1,0.5-0.2,0.7c0,0.2-0.1,0.5-0.1,0.7c0,0.2,0,0.4,0,0.6
					c0,0.2,0,0.3,0,0.6c0,0.2,0,0.4,0.1,0.7c0,0.2,0.1,0.5,0.2,0.7c0.1,0.2,0.2,0.4,0.3,0.6c0.1,0.2,0.3,0.3,0.5,0.4
					c0.2,0.1,0.4,0.2,0.7,0.2c0.3,0,0.5-0.1,0.7-0.2c0.2-0.1,0.4-0.3,0.5-0.4c0.1-0.2,0.2-0.4,0.3-0.6c0.1-0.2,0.1-0.5,0.2-0.7
					c0-0.2,0.1-0.5,0.1-0.7c0-0.2,0-0.4,0-0.6c0-0.2,0-0.3,0-0.6c0-0.2,0-0.4-0.1-0.7c0-0.2-0.1-0.5-0.2-0.7
					c-0.1-0.2-0.2-0.4-0.3-0.6c-0.1-0.2-0.3-0.3-0.5-0.4C171.5,65.2,171.2,65.2,171,65.2z"/>
				<path fill="#3C3C3B" d="M178.2,71.6c-0.4,0-0.7-0.1-1-0.3c-0.3-0.2-0.5-0.5-0.6-0.8c-0.1-0.3-0.2-0.7-0.3-1.1
					c-0.1-0.4-0.1-0.8-0.1-1.1c0-0.4,0-0.7,0.1-1.1c0.1-0.4,0.2-0.7,0.3-1.1c0.1-0.3,0.3-0.6,0.6-0.8c0.3-0.2,0.6-0.3,1-0.3
					c0.4,0,0.7,0.1,1,0.3c0.3,0.2,0.5,0.5,0.6,0.8c0.1,0.3,0.2,0.7,0.3,1.1c0.1,0.4,0.1,0.8,0.1,1.1c0,0.4,0,0.7-0.1,1.1
					c-0.1,0.4-0.2,0.7-0.3,1.1c-0.1,0.3-0.3,0.6-0.6,0.8C178.9,71.5,178.6,71.6,178.2,71.6z M178.2,65.2c-0.3,0-0.5,0.1-0.7,0.2
					c-0.2,0.1-0.4,0.3-0.5,0.4c-0.1,0.2-0.2,0.4-0.3,0.6c-0.1,0.2-0.1,0.5-0.2,0.7c0,0.2-0.1,0.5-0.1,0.7c0,0.2,0,0.4,0,0.6
					c0,0.2,0,0.3,0,0.6c0,0.2,0,0.4,0.1,0.7c0,0.2,0.1,0.5,0.2,0.7c0.1,0.2,0.2,0.4,0.3,0.6c0.1,0.2,0.3,0.3,0.5,0.4
					c0.2,0.1,0.4,0.2,0.7,0.2c0.3,0,0.5-0.1,0.7-0.2c0.2-0.1,0.4-0.3,0.5-0.4c0.1-0.2,0.2-0.4,0.3-0.6c0.1-0.2,0.1-0.5,0.2-0.7
					c0-0.2,0.1-0.5,0.1-0.7c0-0.2,0-0.4,0-0.6c0-0.2,0-0.3,0-0.6c0-0.2,0-0.4-0.1-0.7c0-0.2-0.1-0.5-0.2-0.7
					c-0.1-0.2-0.2-0.4-0.3-0.6c-0.1-0.2-0.3-0.3-0.5-0.4C178.7,65.2,178.5,65.2,178.2,65.2z"/>
				<path fill="#3C3C3B" d="M184.8,65.4l-2.6,6.1H182l2.7-6.2h-3.3v-0.2h3.4V65.4z"/>
				<path fill="#3C3C3B" d="M188.5,69.3v-0.2h1.6v0.2H188.5z"/>
				<path fill="#3C3C3B" d="M196.6,70.5c0,0.2,0,0.3,0,0.5c0,0.2,0,0.3,0,0.4h-0.2c0-0.1,0-0.1,0-0.2c0-0.1,0-0.2,0-0.3
					c0-0.1,0-0.2,0-0.3c0-0.1,0-0.2,0-0.2h0c-0.1,0.4-0.3,0.7-0.6,0.8c-0.3,0.2-0.6,0.3-0.9,0.3c-0.2,0-0.3,0-0.5-0.1
					c-0.2,0-0.3-0.1-0.4-0.2c-0.1-0.1-0.2-0.2-0.3-0.4c-0.1-0.1-0.1-0.3-0.1-0.5c0-0.3,0.1-0.5,0.2-0.7c0.2-0.2,0.3-0.3,0.6-0.4
					c0.2-0.1,0.5-0.2,0.7-0.2c0.3,0,0.5,0,0.7,0h0.7v-0.3c0-0.5-0.1-0.8-0.4-1c-0.2-0.2-0.6-0.3-1-0.3c-0.2,0-0.5,0-0.7,0.1
					c-0.2,0.1-0.4,0.2-0.6,0.4l-0.1-0.2c0.2-0.2,0.4-0.3,0.6-0.4c0.2-0.1,0.5-0.1,0.7-0.1c0.5,0,0.8,0.1,1.1,0.4
					c0.3,0.2,0.4,0.6,0.4,1.1V70.5z M196.4,69.2h-0.6c-0.2,0-0.5,0-0.7,0c-0.3,0-0.5,0.1-0.7,0.2c-0.2,0.1-0.4,0.2-0.5,0.4
					c-0.1,0.2-0.2,0.4-0.2,0.6c0,0.2,0,0.4,0.1,0.5c0.1,0.1,0.2,0.2,0.3,0.3c0.1,0.1,0.2,0.1,0.4,0.2c0.1,0,0.3,0.1,0.4,0.1
					c0.3,0,0.6-0.1,0.8-0.2c0.2-0.1,0.4-0.3,0.5-0.4c0.1-0.2,0.2-0.4,0.3-0.6c0-0.2,0.1-0.4,0.1-0.6V69.2z"/>
				<path fill="#3C3C3B" d="M198.4,71.5v-6.8h0.2v6.8H198.4z"/>
				<path fill="#3C3C3B" d="M200.5,65.8c-0.1,0-0.1,0-0.1-0.1c0,0-0.1-0.1-0.1-0.2c0-0.1,0-0.1,0.1-0.2c0,0,0.1-0.1,0.1-0.1
					c0.1,0,0.1,0,0.1,0.1c0,0,0.1,0.1,0.1,0.2c0,0.1,0,0.1-0.1,0.2C200.6,65.8,200.5,65.8,200.5,65.8z M200.4,71.5v-4.1h0.2v4.1
					H200.4z"/>
				<path fill="#3C3C3B" d="M202.2,69.4c0,0.3,0,0.5,0.1,0.7c0.1,0.2,0.2,0.5,0.3,0.7c0.2,0.2,0.3,0.3,0.6,0.5
					c0.2,0.1,0.5,0.2,0.8,0.2c0.3,0,0.6-0.1,0.9-0.2c0.3-0.1,0.5-0.3,0.7-0.6l0.1,0.1c-0.2,0.3-0.4,0.5-0.7,0.6
					c-0.3,0.1-0.6,0.2-0.9,0.2c-0.3,0-0.6-0.1-0.8-0.2c-0.3-0.1-0.5-0.3-0.6-0.5c-0.2-0.2-0.3-0.4-0.4-0.7c-0.1-0.3-0.1-0.6-0.1-0.9
					c0-0.3,0.1-0.6,0.2-0.9c0.1-0.3,0.2-0.5,0.4-0.7c0.2-0.2,0.4-0.3,0.6-0.4c0.2-0.1,0.5-0.2,0.8-0.2c0.3,0,0.6,0.1,0.8,0.2
					c0.2,0.1,0.4,0.3,0.6,0.4s0.3,0.4,0.4,0.6c0.1,0.2,0.1,0.5,0.1,0.7v0.2H202.2z M205.7,69.2c0-0.3-0.1-0.5-0.1-0.7
					c-0.1-0.2-0.2-0.4-0.4-0.6c-0.1-0.2-0.3-0.3-0.5-0.4c-0.2-0.1-0.4-0.1-0.7-0.1c-0.3,0-0.6,0.1-0.8,0.2c-0.2,0.1-0.4,0.3-0.5,0.5
					c-0.1,0.2-0.2,0.4-0.3,0.6c-0.1,0.2-0.1,0.4-0.1,0.5H205.7z"/>
				<path fill="#3C3C3B" d="M207.9,67.9c0.1-0.1,0.2-0.3,0.4-0.4c0.1-0.1,0.3-0.2,0.5-0.2c0.2-0.1,0.3-0.1,0.5-0.1
					c0.3,0,0.5,0.1,0.7,0.2c0.2,0.1,0.3,0.2,0.5,0.4c0.1,0.2,0.2,0.4,0.2,0.6c0,0.2,0.1,0.4,0.1,0.6v2.5h-0.2V69
					c0-0.2,0-0.3-0.1-0.5c0-0.2-0.1-0.4-0.2-0.5c-0.1-0.2-0.2-0.3-0.4-0.4c-0.2-0.1-0.4-0.2-0.6-0.2c-0.2,0-0.4,0-0.6,0.1
					c-0.2,0.1-0.4,0.2-0.5,0.4c-0.1,0.2-0.3,0.4-0.3,0.6c-0.1,0.2-0.1,0.5-0.1,0.8v2.1h-0.2v-3.1c0-0.1,0-0.1,0-0.2
					c0-0.1,0-0.2,0-0.3c0-0.1,0-0.2,0-0.3c0-0.1,0-0.2,0-0.2h0.2c0,0.1,0,0.1,0,0.2c0,0.1,0,0.2,0,0.3s0,0.2,0,0.3s0,0.2,0,0.3h0
					C207.7,68.2,207.7,68.1,207.9,67.9z"/>
				<path fill="#3C3C3B" d="M216.4,69.4c0,0.3-0.1,0.6-0.2,0.9c-0.1,0.3-0.3,0.5-0.4,0.7c-0.2,0.2-0.4,0.3-0.7,0.5
					c-0.3,0.1-0.6,0.2-0.9,0.2c-0.3,0-0.6-0.1-0.9-0.2c-0.3-0.1-0.5-0.3-0.7-0.5c-0.2-0.2-0.3-0.4-0.4-0.7c-0.1-0.3-0.2-0.6-0.2-0.9
					c0-0.3,0.1-0.6,0.2-0.9c0.1-0.3,0.3-0.5,0.4-0.7c0.2-0.2,0.4-0.3,0.7-0.4c0.3-0.1,0.6-0.2,0.9-0.2c0.3,0,0.6,0.1,0.9,0.2
					c0.3,0.1,0.5,0.3,0.7,0.4c0.2,0.2,0.3,0.4,0.4,0.7C216.4,68.8,216.4,69.1,216.4,69.4z M216.2,69.4c0-0.3,0-0.5-0.1-0.8
					c-0.1-0.2-0.2-0.5-0.4-0.6c-0.2-0.2-0.4-0.3-0.6-0.4c-0.2-0.1-0.5-0.2-0.8-0.2c-0.3,0-0.6,0.1-0.8,0.2c-0.2,0.1-0.4,0.2-0.6,0.4
					c-0.2,0.2-0.3,0.4-0.4,0.6c-0.1,0.2-0.1,0.5-0.1,0.8c0,0.3,0,0.5,0.1,0.8c0.1,0.2,0.2,0.5,0.4,0.6c0.2,0.2,0.4,0.3,0.6,0.4
					c0.2,0.1,0.5,0.2,0.8,0.2c0.3,0,0.6-0.1,0.8-0.2c0.2-0.1,0.4-0.3,0.6-0.4c0.2-0.2,0.3-0.4,0.4-0.6
					C216.2,69.9,216.2,69.7,216.2,69.4z"/>
				<path fill="#3C3C3B" d="M221.5,64.7h0.2v6.8h-0.2v-1.1h0c-0.2,0.4-0.4,0.7-0.8,0.9c-0.3,0.2-0.7,0.3-1.1,0.3
					c-0.3,0-0.6-0.1-0.8-0.2c-0.3-0.1-0.5-0.3-0.7-0.5c-0.2-0.2-0.3-0.4-0.4-0.7c-0.1-0.3-0.2-0.6-0.2-0.9s0.1-0.6,0.2-0.9
					c0.1-0.3,0.2-0.5,0.4-0.7c0.2-0.2,0.4-0.4,0.7-0.5c0.3-0.1,0.5-0.2,0.8-0.2c0.4,0,0.8,0.1,1.1,0.3c0.3,0.2,0.6,0.5,0.8,0.9h0
					V64.7z M217.7,69.4c0,0.3,0,0.5,0.1,0.8c0.1,0.2,0.2,0.5,0.4,0.6c0.2,0.2,0.4,0.3,0.6,0.4c0.2,0.1,0.5,0.2,0.8,0.2
					c0.3,0,0.5-0.1,0.8-0.2c0.2-0.1,0.4-0.3,0.6-0.4c0.2-0.2,0.3-0.4,0.4-0.6c0.1-0.2,0.1-0.5,0.1-0.8s0-0.5-0.1-0.8
					c-0.1-0.2-0.2-0.5-0.4-0.6c-0.2-0.2-0.4-0.3-0.6-0.4c-0.2-0.1-0.5-0.2-0.8-0.2c-0.3,0-0.5,0.1-0.8,0.2c-0.2,0.1-0.4,0.3-0.6,0.4
					c-0.2,0.2-0.3,0.4-0.4,0.6C217.8,68.9,217.7,69.1,217.7,69.4z"/>
				<path fill="#3C3C3B" d="M223.3,69.4c0,0.3,0,0.5,0.1,0.7c0.1,0.2,0.2,0.5,0.3,0.7c0.2,0.2,0.3,0.3,0.6,0.5
					c0.2,0.1,0.5,0.2,0.8,0.2c0.3,0,0.6-0.1,0.9-0.2c0.3-0.1,0.5-0.3,0.7-0.6l0.1,0.1c-0.2,0.3-0.4,0.5-0.7,0.6
					c-0.3,0.1-0.6,0.2-0.9,0.2c-0.3,0-0.6-0.1-0.8-0.2c-0.3-0.1-0.5-0.3-0.6-0.5c-0.2-0.2-0.3-0.4-0.4-0.7c-0.1-0.3-0.1-0.6-0.1-0.9
					c0-0.3,0.1-0.6,0.2-0.9c0.1-0.3,0.2-0.5,0.4-0.7c0.2-0.2,0.4-0.3,0.6-0.4c0.2-0.1,0.5-0.2,0.8-0.2c0.3,0,0.6,0.1,0.8,0.2
					c0.2,0.1,0.4,0.3,0.6,0.4s0.3,0.4,0.4,0.6c0.1,0.2,0.1,0.5,0.1,0.7v0.2H223.3z M226.8,69.2c0-0.3-0.1-0.5-0.1-0.7
					c-0.1-0.2-0.2-0.4-0.4-0.6c-0.1-0.2-0.3-0.3-0.5-0.4c-0.2-0.1-0.4-0.1-0.7-0.1c-0.3,0-0.6,0.1-0.8,0.2c-0.2,0.1-0.4,0.3-0.5,0.5
					c-0.1,0.2-0.2,0.4-0.3,0.6c-0.1,0.2-0.1,0.4-0.1,0.5H226.8z"/>
				<path fill="#3C3C3B" d="M229.6,71.5h-0.3l-1.6-4.1h0.2l1.5,3.9h0l1.5-3.9h0.2L229.6,71.5z"/>
				<path fill="#3C3C3B" d="M238.2,67.7c0,0.3,0,0.6-0.1,0.9c-0.1,0.3-0.2,0.5-0.3,0.7c-0.1,0.2-0.3,0.4-0.5,0.5
					c-0.2,0.1-0.5,0.2-0.7,0.2c-0.2,0-0.4-0.1-0.6-0.2c-0.1-0.1-0.2-0.3-0.2-0.6h0c0,0.1-0.1,0.2-0.2,0.3c-0.1,0.1-0.2,0.2-0.3,0.3
					c-0.1,0.1-0.2,0.1-0.3,0.2c-0.1,0.1-0.3,0.1-0.4,0.1c-0.2,0-0.3,0-0.5-0.1c-0.1-0.1-0.2-0.1-0.3-0.3c-0.1-0.1-0.1-0.2-0.2-0.4
					c0-0.1-0.1-0.3-0.1-0.4c0-0.3,0-0.5,0.1-0.8c0.1-0.3,0.2-0.5,0.4-0.8c0.2-0.2,0.3-0.4,0.6-0.6c0.2-0.1,0.5-0.2,0.7-0.2
					c0.3,0,0.5,0.1,0.6,0.2c0.2,0.1,0.3,0.3,0.3,0.6h0l0.2-0.7h0.2l-0.6,2.1c0,0.1,0,0.2-0.1,0.3c0,0.1,0,0.2,0,0.3
					c0,0.2,0.1,0.3,0.2,0.4c0.1,0.1,0.2,0.1,0.4,0.1c0.3,0,0.5-0.1,0.7-0.2c0.2-0.1,0.4-0.3,0.5-0.5c0.1-0.2,0.2-0.4,0.3-0.7
					c0.1-0.3,0.1-0.5,0.1-0.8c0-0.4-0.1-0.7-0.2-1c-0.1-0.3-0.3-0.6-0.6-0.8c-0.3-0.2-0.6-0.4-0.9-0.6c-0.4-0.1-0.7-0.2-1.1-0.2
					c-0.5,0-0.9,0.1-1.2,0.3c-0.4,0.2-0.7,0.4-1,0.7c-0.3,0.3-0.5,0.6-0.6,1c-0.2,0.4-0.2,0.8-0.2,1.2c0,0.4,0.1,0.8,0.2,1.2
					c0.2,0.4,0.4,0.7,0.6,1c0.3,0.3,0.6,0.5,1,0.7s0.8,0.3,1.3,0.3c0.5,0,1-0.1,1.4-0.3c0.4-0.2,0.8-0.5,1.1-0.9l0.1,0.1
					c-0.3,0.4-0.7,0.7-1.2,0.9c-0.5,0.2-1,0.3-1.5,0.3c-0.5,0-1-0.1-1.4-0.3c-0.4-0.2-0.8-0.4-1.1-0.7c-0.3-0.3-0.5-0.7-0.7-1.1
					c-0.2-0.4-0.2-0.8-0.2-1.3c0-0.5,0.1-0.9,0.3-1.3c0.2-0.4,0.4-0.8,0.7-1.1c0.3-0.3,0.6-0.5,1-0.7c0.4-0.2,0.8-0.3,1.3-0.3
					c0.4,0,0.9,0.1,1.2,0.2c0.4,0.1,0.7,0.3,1,0.6c0.3,0.3,0.5,0.5,0.6,0.9C238.2,67,238.2,67.3,238.2,67.7z M236.1,67.6
					c0-0.1,0-0.2,0-0.3c0-0.1-0.1-0.2-0.1-0.3c-0.1-0.1-0.1-0.1-0.3-0.2c-0.1,0-0.2-0.1-0.4-0.1c-0.3,0-0.5,0.1-0.7,0.2
					c-0.2,0.1-0.4,0.3-0.5,0.5c-0.1,0.2-0.2,0.5-0.3,0.7c-0.1,0.3-0.1,0.5-0.1,0.7c0,0.3,0.1,0.5,0.2,0.7s0.4,0.3,0.7,0.3
					c0.3,0,0.5-0.1,0.7-0.3c0.2-0.2,0.4-0.4,0.5-0.6s0.2-0.5,0.3-0.7C236.1,68,236.1,67.7,236.1,67.6z"/>
				<path fill="#3C3C3B" d="M243.1,70.3L243.1,70.3c-0.1,0.2-0.2,0.4-0.3,0.5c-0.1,0.2-0.3,0.3-0.4,0.4c-0.2,0.1-0.3,0.2-0.5,0.2
					c-0.2,0.1-0.4,0.1-0.6,0.1c-0.3,0-0.6-0.1-0.8-0.2c-0.3-0.1-0.5-0.3-0.7-0.5c-0.2-0.2-0.3-0.4-0.4-0.7c-0.1-0.3-0.2-0.6-0.2-0.9
					s0.1-0.6,0.2-0.9c0.1-0.3,0.2-0.5,0.4-0.7c0.2-0.2,0.4-0.4,0.7-0.5c0.3-0.1,0.5-0.2,0.8-0.2c0.4,0,0.8,0.1,1.1,0.3
					c0.3,0.2,0.6,0.5,0.8,0.9h0v-1.1h0.2v3.9c0,0.3,0,0.6-0.1,0.9c-0.1,0.3-0.2,0.6-0.3,0.8c-0.2,0.2-0.4,0.4-0.6,0.5
					c-0.3,0.1-0.6,0.2-1,0.2c-0.4,0-0.7-0.1-1-0.2c-0.3-0.1-0.6-0.3-0.8-0.6l0.1-0.1c0.2,0.3,0.5,0.4,0.8,0.6
					c0.3,0.1,0.6,0.2,0.9,0.2c0.4,0,0.7-0.1,0.9-0.2c0.2-0.1,0.4-0.3,0.6-0.5c0.1-0.2,0.2-0.5,0.3-0.7c0.1-0.3,0.1-0.6,0.1-0.9V70.3
					z M239.3,69.4c0,0.3,0,0.5,0.1,0.8c0.1,0.2,0.2,0.5,0.4,0.6c0.2,0.2,0.4,0.3,0.6,0.4c0.2,0.1,0.5,0.2,0.8,0.2
					c0.3,0,0.5-0.1,0.8-0.2c0.2-0.1,0.4-0.3,0.6-0.4c0.2-0.2,0.3-0.4,0.4-0.6c0.1-0.2,0.1-0.5,0.1-0.8s0-0.5-0.1-0.8
					c-0.1-0.2-0.2-0.5-0.4-0.6c-0.2-0.2-0.4-0.3-0.6-0.4c-0.2-0.1-0.5-0.2-0.8-0.2c-0.3,0-0.5,0.1-0.8,0.2c-0.2,0.1-0.4,0.3-0.6,0.4
					c-0.2,0.2-0.3,0.4-0.4,0.6C239.4,68.9,239.3,69.1,239.3,69.4z"/>
				<path fill="#3C3C3B" d="M248.2,68.5c0.1-0.4,0.3-0.7,0.6-0.9c0.3-0.2,0.6-0.3,1-0.3c0.3,0,0.5,0.1,0.7,0.2
					c0.2,0.1,0.3,0.2,0.4,0.4c0.1,0.2,0.2,0.4,0.2,0.6c0,0.2,0.1,0.4,0.1,0.6v2.5h-0.2V69c0-0.2,0-0.3-0.1-0.5
					c0-0.2-0.1-0.4-0.2-0.5c-0.1-0.2-0.2-0.3-0.4-0.4c-0.2-0.1-0.4-0.2-0.6-0.2c-0.2,0-0.4,0-0.6,0.1c-0.2,0.1-0.4,0.2-0.5,0.4
					s-0.3,0.4-0.3,0.6c-0.1,0.2-0.1,0.5-0.1,0.8v2.1h-0.2V69c0-0.2,0-0.3,0-0.5c0-0.2-0.1-0.4-0.2-0.5c-0.1-0.2-0.2-0.3-0.4-0.4
					c-0.2-0.1-0.4-0.2-0.6-0.2c-0.2,0-0.4,0-0.6,0.1c-0.2,0.1-0.4,0.2-0.5,0.4c-0.1,0.2-0.3,0.4-0.3,0.6c-0.1,0.2-0.1,0.5-0.1,0.8
					v2.1h-0.2v-3.1c0-0.1,0-0.1,0-0.2c0-0.1,0-0.2,0-0.3c0-0.1,0-0.2,0-0.3c0-0.1,0-0.2,0-0.2h0.2c0,0.1,0,0.1,0,0.2
					c0,0.1,0,0.2,0,0.3c0,0.1,0,0.2,0,0.3s0,0.2,0,0.3h0c0.1-0.2,0.1-0.4,0.3-0.5c0.1-0.1,0.2-0.3,0.4-0.4s0.3-0.2,0.4-0.2
					c0.2-0.1,0.3-0.1,0.5-0.1c0.2,0,0.4,0,0.6,0.1c0.2,0.1,0.3,0.2,0.4,0.3c0.1,0.1,0.2,0.2,0.3,0.4
					C248.2,68.1,248.2,68.3,248.2,68.5L248.2,68.5z"/>
				<path fill="#3C3C3B" d="M255.9,70.5c0,0.2,0,0.3,0,0.5c0,0.2,0,0.3,0,0.4h-0.2c0-0.1,0-0.1,0-0.2c0-0.1,0-0.2,0-0.3
					c0-0.1,0-0.2,0-0.3c0-0.1,0-0.2,0-0.2h0c-0.1,0.4-0.3,0.7-0.6,0.8c-0.3,0.2-0.6,0.3-0.9,0.3c-0.2,0-0.3,0-0.5-0.1
					c-0.2,0-0.3-0.1-0.4-0.2c-0.1-0.1-0.2-0.2-0.3-0.4c-0.1-0.1-0.1-0.3-0.1-0.5c0-0.3,0.1-0.5,0.2-0.7c0.2-0.2,0.3-0.3,0.6-0.4
					c0.2-0.1,0.5-0.2,0.7-0.2c0.3,0,0.5,0,0.7,0h0.7v-0.3c0-0.5-0.1-0.8-0.4-1c-0.2-0.2-0.6-0.3-1-0.3c-0.2,0-0.5,0-0.7,0.1
					c-0.2,0.1-0.4,0.2-0.6,0.4l-0.1-0.2c0.2-0.2,0.4-0.3,0.6-0.4c0.2-0.1,0.5-0.1,0.7-0.1c0.5,0,0.8,0.1,1.1,0.4
					c0.3,0.2,0.4,0.6,0.4,1.1V70.5z M255.7,69.2H255c-0.2,0-0.5,0-0.7,0c-0.3,0-0.5,0.1-0.7,0.2c-0.2,0.1-0.4,0.2-0.5,0.4
					c-0.1,0.2-0.2,0.4-0.2,0.6c0,0.2,0,0.4,0.1,0.5c0.1,0.1,0.2,0.2,0.3,0.3c0.1,0.1,0.2,0.1,0.4,0.2c0.1,0,0.3,0.1,0.4,0.1
					c0.3,0,0.6-0.1,0.8-0.2c0.2-0.1,0.4-0.3,0.5-0.4c0.1-0.2,0.2-0.4,0.3-0.6c0-0.2,0.1-0.4,0.1-0.6V69.2z"/>
				<path fill="#3C3C3B" d="M257.7,65.8c-0.1,0-0.1,0-0.1-0.1c0,0-0.1-0.1-0.1-0.2c0-0.1,0-0.1,0.1-0.2c0,0,0.1-0.1,0.1-0.1
					s0.1,0,0.1,0.1c0,0,0.1,0.1,0.1,0.2c0,0.1,0,0.1-0.1,0.2C257.8,65.8,257.8,65.8,257.7,65.8z M257.6,71.5v-4.1h0.2v4.1H257.6z"/>
				<path fill="#3C3C3B" d="M259.7,71.5v-6.8h0.2v6.8H259.7z"/>
				<path fill="#3C3C3B" d="M261.8,71.5c-0.1,0-0.1,0-0.1-0.1c0,0-0.1-0.1-0.1-0.2c0-0.1,0-0.1,0.1-0.2c0,0,0.1-0.1,0.1-0.1
					s0.1,0,0.1,0.1c0,0,0.1,0.1,0.1,0.2c0,0.1,0,0.1-0.1,0.2C261.9,71.5,261.9,71.5,261.8,71.5z"/>
				<path fill="#3C3C3B" d="M266.8,67.9c-0.2-0.2-0.3-0.3-0.5-0.4c-0.2-0.1-0.4-0.1-0.7-0.1c-0.3,0-0.6,0.1-0.8,0.2
					c-0.2,0.1-0.4,0.3-0.6,0.4c-0.2,0.2-0.3,0.4-0.4,0.6c-0.1,0.2-0.1,0.5-0.1,0.8c0,0.3,0,0.5,0.1,0.8c0.1,0.2,0.2,0.5,0.4,0.6
					c0.2,0.2,0.4,0.3,0.6,0.4c0.2,0.1,0.5,0.2,0.8,0.2c0.2,0,0.4,0,0.7-0.1c0.2-0.1,0.4-0.2,0.6-0.3l0.1,0.1
					c-0.2,0.2-0.4,0.3-0.6,0.4c-0.2,0.1-0.5,0.1-0.7,0.1c-0.3,0-0.6-0.1-0.8-0.2c-0.3-0.1-0.5-0.3-0.7-0.4c-0.2-0.2-0.3-0.4-0.4-0.7
					c-0.1-0.3-0.2-0.6-0.2-0.9c0-0.3,0.1-0.6,0.2-0.9c0.1-0.3,0.3-0.5,0.4-0.7c0.2-0.2,0.4-0.3,0.7-0.5c0.3-0.1,0.5-0.2,0.8-0.2
					c0.3,0,0.5,0,0.7,0.1c0.2,0.1,0.4,0.2,0.6,0.4L266.8,67.9z"/>
				<path fill="#3C3C3B" d="M272.1,69.4c0,0.3-0.1,0.6-0.2,0.9c-0.1,0.3-0.3,0.5-0.4,0.7c-0.2,0.2-0.4,0.3-0.7,0.5
					c-0.3,0.1-0.6,0.2-0.9,0.2c-0.3,0-0.6-0.1-0.9-0.2c-0.3-0.1-0.5-0.3-0.7-0.5c-0.2-0.2-0.3-0.4-0.4-0.7c-0.1-0.3-0.2-0.6-0.2-0.9
					c0-0.3,0.1-0.6,0.2-0.9c0.1-0.3,0.3-0.5,0.4-0.7c0.2-0.2,0.4-0.3,0.7-0.4c0.3-0.1,0.6-0.2,0.9-0.2c0.3,0,0.6,0.1,0.9,0.2
					c0.3,0.1,0.5,0.3,0.7,0.4c0.2,0.2,0.3,0.4,0.4,0.7C272,68.8,272.1,69.1,272.1,69.4z M271.9,69.4c0-0.3,0-0.5-0.1-0.8
					c-0.1-0.2-0.2-0.5-0.4-0.6c-0.2-0.2-0.4-0.3-0.6-0.4c-0.2-0.1-0.5-0.2-0.8-0.2c-0.3,0-0.6,0.1-0.8,0.2c-0.2,0.1-0.4,0.2-0.6,0.4
					c-0.2,0.2-0.3,0.4-0.4,0.6c-0.1,0.2-0.1,0.5-0.1,0.8c0,0.3,0,0.5,0.1,0.8c0.1,0.2,0.2,0.5,0.4,0.6c0.2,0.2,0.4,0.3,0.6,0.4
					c0.2,0.1,0.5,0.2,0.8,0.2c0.3,0,0.6-0.1,0.8-0.2c0.2-0.1,0.4-0.3,0.6-0.4c0.2-0.2,0.3-0.4,0.4-0.6
					C271.8,69.9,271.9,69.7,271.9,69.4z"/>
				<path fill="#3C3C3B" d="M276.7,68.5c0.1-0.4,0.3-0.7,0.6-0.9c0.3-0.2,0.6-0.3,1-0.3c0.3,0,0.5,0.1,0.7,0.2
					c0.2,0.1,0.3,0.2,0.4,0.4c0.1,0.2,0.2,0.4,0.2,0.6c0,0.2,0.1,0.4,0.1,0.6v2.5h-0.2V69c0-0.2,0-0.3-0.1-0.5
					c0-0.2-0.1-0.4-0.2-0.5c-0.1-0.2-0.2-0.3-0.4-0.4c-0.2-0.1-0.4-0.2-0.6-0.2c-0.2,0-0.4,0-0.6,0.1c-0.2,0.1-0.4,0.2-0.5,0.4
					s-0.3,0.4-0.3,0.6c-0.1,0.2-0.1,0.5-0.1,0.8v2.1h-0.2V69c0-0.2,0-0.3,0-0.5c0-0.2-0.1-0.4-0.2-0.5c-0.1-0.2-0.2-0.3-0.4-0.4
					c-0.2-0.1-0.4-0.2-0.6-0.2c-0.2,0-0.4,0-0.6,0.1c-0.2,0.1-0.4,0.2-0.5,0.4c-0.1,0.2-0.3,0.4-0.3,0.6c-0.1,0.2-0.1,0.5-0.1,0.8
					v2.1h-0.2v-3.1c0-0.1,0-0.1,0-0.2c0-0.1,0-0.2,0-0.3c0-0.1,0-0.2,0-0.3c0-0.1,0-0.2,0-0.2h0.2c0,0.1,0,0.1,0,0.2
					c0,0.1,0,0.2,0,0.3c0,0.1,0,0.2,0,0.3c0,0.1,0,0.2,0,0.3h0c0.1-0.2,0.1-0.4,0.3-0.5c0.1-0.1,0.2-0.3,0.4-0.4
					c0.1-0.1,0.3-0.2,0.4-0.2c0.2-0.1,0.3-0.1,0.5-0.1c0.2,0,0.4,0,0.6,0.1c0.2,0.1,0.3,0.2,0.4,0.3c0.1,0.1,0.2,0.2,0.3,0.4
					C276.6,68.1,276.6,68.3,276.7,68.5L276.7,68.5z"/>
			</g>
			<g>
				<path fill="#3C3C3B" d="M128.1,79.7c0.1-0.2,0.3-0.4,0.5-0.5c0.2-0.1,0.5-0.2,0.8-0.2c0.3,0,0.5,0,0.7,0.1
					c0.2,0.1,0.4,0.2,0.5,0.4c0.1,0.2,0.2,0.3,0.3,0.5s0.1,0.4,0.1,0.7v2.6h-0.8V81c0-0.2,0-0.3,0-0.5c0-0.2-0.1-0.3-0.1-0.4
					c-0.1-0.1-0.2-0.2-0.3-0.3c-0.1-0.1-0.3-0.1-0.5-0.1c-0.3,0-0.6,0.1-0.8,0.4c-0.2,0.3-0.3,0.6-0.3,1v2.3h-0.8v-6.8h0.8
					L128.1,79.7L128.1,79.7z"/>
				<path fill="#3C3C3B" d="M134.5,79.8h-1.1V82c0,0.3,0,0.4,0.1,0.5c0.1,0.1,0.2,0.2,0.5,0.2c0.1,0,0.2,0,0.3,0s0.2,0,0.2-0.1
					l0,0.7c-0.1,0-0.2,0.1-0.3,0.1c-0.1,0-0.2,0-0.4,0c-0.4,0-0.7-0.1-0.9-0.3c-0.2-0.2-0.3-0.6-0.3-1v-2.3h-0.8v-0.7h0.8v-1.2h0.8
					v1.2h1.1V79.8z"/>
				<path fill="#3C3C3B" d="M137.3,79.8h-1.1V82c0,0.3,0,0.4,0.1,0.5c0.1,0.1,0.2,0.2,0.5,0.2c0.1,0,0.2,0,0.3,0
					c0.1,0,0.2,0,0.2-0.1l0,0.7c-0.1,0-0.2,0.1-0.3,0.1c-0.1,0-0.2,0-0.4,0c-0.4,0-0.7-0.1-0.9-0.3c-0.2-0.2-0.3-0.6-0.3-1v-2.3
					h-0.8v-0.7h0.8v-1.2h0.8v1.2h1.1V79.8z"/>
				<path fill="#3C3C3B" d="M139,85.5h-0.8v-6.4h0.8v0.7h0c0.1-0.2,0.3-0.4,0.6-0.6c0.3-0.1,0.6-0.2,0.9-0.2c0.3,0,0.6,0.1,0.9,0.2
					c0.3,0.1,0.5,0.3,0.7,0.5c0.2,0.2,0.3,0.4,0.4,0.7c0.1,0.3,0.2,0.6,0.2,0.9s-0.1,0.6-0.2,0.9c-0.1,0.3-0.2,0.5-0.4,0.7
					c-0.2,0.2-0.4,0.4-0.7,0.5c-0.3,0.1-0.6,0.2-0.9,0.2c-0.3,0-0.6-0.1-0.9-0.2c-0.3-0.1-0.5-0.3-0.6-0.6h0V85.5z M141.8,81.2
					c0-0.2,0-0.4-0.1-0.6c-0.1-0.2-0.1-0.3-0.3-0.5c-0.1-0.1-0.3-0.3-0.4-0.3c-0.2-0.1-0.4-0.1-0.6-0.1c-0.2,0-0.4,0-0.6,0.1
					c-0.2,0.1-0.3,0.2-0.5,0.3c-0.1,0.1-0.2,0.3-0.3,0.5c-0.1,0.2-0.1,0.4-0.1,0.6s0,0.4,0.1,0.6s0.2,0.3,0.3,0.5
					c0.1,0.1,0.3,0.3,0.5,0.3c0.2,0.1,0.4,0.1,0.6,0.1c0.2,0,0.4,0,0.6-0.1c0.2-0.1,0.3-0.2,0.4-0.3c0.1-0.1,0.2-0.3,0.3-0.5
					C141.8,81.6,141.8,81.4,141.8,81.2z"/>
				<path fill="#3C3C3B" d="M146.1,80.2c-0.1-0.2-0.2-0.3-0.4-0.4c-0.2-0.1-0.4-0.1-0.6-0.1c-0.1,0-0.2,0-0.3,0s-0.2,0.1-0.3,0.1
					c-0.1,0-0.1,0.1-0.2,0.2c0,0.1-0.1,0.2-0.1,0.3c0,0.2,0.1,0.3,0.2,0.4c0.2,0.1,0.4,0.2,0.7,0.2c0.2,0,0.4,0.1,0.6,0.2
					c0.2,0.1,0.3,0.1,0.5,0.2c0.1,0.1,0.2,0.2,0.3,0.4c0.1,0.1,0.1,0.3,0.1,0.5c0,0.3,0,0.5-0.1,0.6c-0.1,0.2-0.2,0.3-0.4,0.4
					s-0.3,0.2-0.5,0.2c-0.2,0-0.4,0.1-0.6,0.1c-0.3,0-0.6-0.1-0.9-0.2c-0.3-0.1-0.6-0.3-0.8-0.6l0.6-0.5c0.1,0.2,0.3,0.3,0.5,0.4
					c0.2,0.1,0.4,0.2,0.7,0.2c0.1,0,0.2,0,0.3,0c0.1,0,0.2-0.1,0.3-0.1c0.1,0,0.1-0.1,0.2-0.2c0-0.1,0.1-0.2,0.1-0.3
					c0-0.2-0.1-0.3-0.3-0.4c-0.2-0.1-0.5-0.2-0.8-0.3c-0.1,0-0.3-0.1-0.4-0.1c-0.1-0.1-0.3-0.1-0.4-0.2c-0.1-0.1-0.2-0.2-0.3-0.3
					c-0.1-0.1-0.1-0.3-0.1-0.5c0-0.2,0-0.4,0.1-0.6c0.1-0.2,0.2-0.3,0.4-0.4c0.1-0.1,0.3-0.2,0.5-0.2c0.2-0.1,0.4-0.1,0.6-0.1
					c0.3,0,0.6,0.1,0.9,0.2c0.3,0.1,0.5,0.3,0.7,0.5L146.1,80.2z"/>
				<path fill="#3C3C3B" d="M149,79.6c0,0.2-0.1,0.3-0.2,0.4c-0.1,0.1-0.3,0.2-0.4,0.2c-0.2,0-0.3-0.1-0.4-0.2
					c-0.1-0.1-0.2-0.3-0.2-0.4c0-0.2,0.1-0.3,0.2-0.4c0.1-0.1,0.3-0.2,0.4-0.2c0.2,0,0.3,0.1,0.4,0.2C149,79.3,149,79.5,149,79.6z
					 M149,82.8c0,0.2-0.1,0.3-0.2,0.4c-0.1,0.1-0.3,0.2-0.4,0.2c-0.2,0-0.3-0.1-0.4-0.2c-0.1-0.1-0.2-0.3-0.2-0.4
					c0-0.2,0.1-0.3,0.2-0.4c0.1-0.1,0.3-0.2,0.4-0.2c0.2,0,0.3,0.1,0.4,0.2C149,82.5,149,82.6,149,82.8z"/>
				<path fill="#3C3C3B" d="M150.4,83.6l-0.6-0.2l2.7-6.7l0.6,0.2L150.4,83.6z"/>
				<path fill="#3C3C3B" d="M153.8,83.6l-0.6-0.2l2.7-6.7l0.6,0.2L153.8,83.6z"/>
				<path fill="#3C3C3B" d="M157.6,84.1c0.2,0.2,0.4,0.4,0.7,0.5c0.3,0.1,0.6,0.2,0.9,0.2c0.3,0,0.5,0,0.7-0.1
					c0.2-0.1,0.3-0.2,0.5-0.3c0.1-0.1,0.2-0.3,0.3-0.5c0.1-0.2,0.1-0.4,0.1-0.6v-0.5h0c-0.2,0.2-0.4,0.4-0.6,0.5
					c-0.3,0.1-0.6,0.2-0.9,0.2c-0.3,0-0.6-0.1-0.9-0.2c-0.3-0.1-0.5-0.3-0.7-0.5c-0.2-0.2-0.3-0.4-0.4-0.7c-0.1-0.3-0.2-0.6-0.2-0.9
					c0-0.3,0.1-0.6,0.2-0.9c0.1-0.3,0.2-0.5,0.4-0.7c0.2-0.2,0.4-0.4,0.7-0.5c0.3-0.1,0.6-0.2,0.9-0.2c0.3,0,0.6,0.1,0.9,0.2
					s0.5,0.3,0.7,0.6h0v-0.7h0.8v4c0,0.3,0,0.6-0.1,0.9c-0.1,0.3-0.2,0.5-0.4,0.8c-0.2,0.2-0.4,0.4-0.7,0.5
					c-0.3,0.1-0.7,0.2-1.1,0.2c-0.4,0-0.7-0.1-1.1-0.2c-0.4-0.1-0.7-0.3-1-0.6L157.6,84.1z M157.9,81.2c0,0.2,0,0.4,0.1,0.6
					c0.1,0.2,0.2,0.3,0.3,0.5c0.1,0.1,0.3,0.2,0.4,0.3c0.2,0.1,0.4,0.1,0.6,0.1c0.2,0,0.4,0,0.6-0.1c0.2-0.1,0.3-0.2,0.5-0.3
					c0.1-0.1,0.2-0.3,0.3-0.5c0.1-0.2,0.1-0.4,0.1-0.6c0-0.2,0-0.4-0.1-0.6c-0.1-0.2-0.2-0.3-0.3-0.5c-0.1-0.1-0.3-0.2-0.5-0.3
					c-0.2-0.1-0.4-0.1-0.6-0.1c-0.2,0-0.4,0-0.6,0.1c-0.2,0.1-0.3,0.2-0.4,0.3c-0.1,0.1-0.2,0.3-0.3,0.5
					C157.9,80.8,157.9,81,157.9,81.2z"/>
				<path fill="#3C3C3B" d="M165.6,80.6c0-0.3-0.1-0.6-0.3-0.7c-0.2-0.2-0.4-0.2-0.8-0.2c-0.2,0-0.5,0-0.7,0.1
					c-0.2,0.1-0.4,0.2-0.5,0.4l-0.4-0.5c0.2-0.2,0.5-0.4,0.8-0.5c0.3-0.1,0.6-0.2,1-0.2c0.3,0,0.6,0,0.8,0.1
					c0.2,0.1,0.4,0.2,0.5,0.4c0.1,0.1,0.3,0.3,0.3,0.5c0.1,0.2,0.1,0.4,0.1,0.7v1.9c0,0.1,0,0.3,0,0.5c0,0.2,0,0.3,0,0.4h-0.8
					c0-0.2-0.1-0.4-0.1-0.6h0c-0.2,0.2-0.4,0.4-0.6,0.5c-0.2,0.1-0.5,0.2-0.8,0.2c-0.2,0-0.3,0-0.5-0.1c-0.2,0-0.3-0.1-0.5-0.2
					c-0.1-0.1-0.3-0.2-0.4-0.4c-0.1-0.2-0.1-0.4-0.1-0.6c0-0.3,0.1-0.6,0.3-0.8c0.2-0.2,0.4-0.3,0.7-0.4c0.3-0.1,0.6-0.2,0.9-0.2
					c0.4,0,0.7,0,1.1,0V80.6z M165.4,81.3c-0.2,0-0.4,0-0.6,0c-0.2,0-0.4,0.1-0.6,0.1c-0.2,0.1-0.3,0.1-0.5,0.2
					c-0.1,0.1-0.2,0.3-0.2,0.4c0,0.1,0,0.2,0.1,0.3c0.1,0.1,0.1,0.2,0.2,0.2c0.1,0.1,0.2,0.1,0.3,0.1c0.1,0,0.2,0,0.3,0
					c0.4,0,0.7-0.1,0.9-0.4c0.2-0.2,0.3-0.5,0.3-0.9v-0.2H165.4z"/>
				<path fill="#3C3C3B" d="M167.8,79.6c0-0.2,0-0.3,0-0.5h0.8c0,0.1,0,0.2,0,0.4c0,0.1,0,0.3,0,0.3h0c0.1-0.3,0.3-0.5,0.5-0.6
					c0.2-0.2,0.5-0.2,0.8-0.2c0.1,0,0.2,0,0.3,0l0,0.8c-0.1,0-0.2,0-0.4,0c-0.2,0-0.4,0-0.5,0.1c-0.1,0.1-0.3,0.2-0.4,0.3
					s-0.2,0.3-0.2,0.4c0,0.2-0.1,0.3-0.1,0.5v2.2h-0.8V80C167.8,79.9,167.8,79.7,167.8,79.6z"/>
				<path fill="#3C3C3B" d="M173.8,80.2c-0.1-0.1-0.2-0.3-0.4-0.3c-0.2-0.1-0.4-0.1-0.6-0.1c-0.2,0-0.4,0-0.6,0.1
					c-0.2,0.1-0.3,0.2-0.4,0.3c-0.1,0.1-0.2,0.3-0.3,0.5c-0.1,0.2-0.1,0.4-0.1,0.6s0,0.4,0.1,0.6s0.2,0.3,0.3,0.5
					c0.1,0.1,0.3,0.3,0.4,0.3c0.2,0.1,0.4,0.1,0.6,0.1c0.2,0,0.4,0,0.6-0.1c0.2-0.1,0.3-0.2,0.4-0.3l0.6,0.5
					c-0.2,0.2-0.4,0.4-0.7,0.5c-0.3,0.1-0.6,0.2-0.9,0.2c-0.3,0-0.6-0.1-0.9-0.2c-0.3-0.1-0.5-0.3-0.7-0.5c-0.2-0.2-0.4-0.4-0.5-0.7
					c-0.1-0.3-0.2-0.6-0.2-0.9c0-0.3,0.1-0.6,0.2-0.9c0.1-0.3,0.3-0.5,0.5-0.7c0.2-0.2,0.4-0.3,0.7-0.5c0.3-0.1,0.6-0.2,0.9-0.2
					c0.3,0,0.6,0.1,0.9,0.2c0.3,0.1,0.5,0.3,0.7,0.5L173.8,80.2z"/>
				<path fill="#3C3C3B" d="M176.3,77.6c0,0.2-0.1,0.3-0.2,0.4c-0.1,0.1-0.2,0.2-0.4,0.2c-0.2,0-0.3-0.1-0.4-0.2
					c-0.1-0.1-0.2-0.2-0.2-0.4c0-0.2,0.1-0.3,0.2-0.4c0.1-0.1,0.2-0.2,0.4-0.2c0.2,0,0.3,0.1,0.4,0.2
					C176.2,77.3,176.3,77.4,176.3,77.6z M176.1,83.3h-0.8v-4.2h0.8V83.3z"/>
				<path fill="#3C3C3B" d="M180.2,80.6c0-0.3-0.1-0.6-0.3-0.7c-0.2-0.2-0.4-0.2-0.8-0.2c-0.2,0-0.5,0-0.7,0.1
					c-0.2,0.1-0.4,0.2-0.5,0.4l-0.4-0.5c0.2-0.2,0.5-0.4,0.8-0.5c0.3-0.1,0.6-0.2,1-0.2c0.3,0,0.6,0,0.8,0.1
					c0.2,0.1,0.4,0.2,0.5,0.4c0.1,0.1,0.3,0.3,0.3,0.5c0.1,0.2,0.1,0.4,0.1,0.7v1.9c0,0.1,0,0.3,0,0.5c0,0.2,0,0.3,0,0.4h-0.8
					c0-0.2-0.1-0.4-0.1-0.6h0c-0.2,0.2-0.4,0.4-0.6,0.5c-0.2,0.1-0.5,0.2-0.8,0.2c-0.2,0-0.3,0-0.5-0.1c-0.2,0-0.3-0.1-0.5-0.2
					c-0.1-0.1-0.3-0.2-0.4-0.4c-0.1-0.2-0.1-0.4-0.1-0.6c0-0.3,0.1-0.6,0.3-0.8c0.2-0.2,0.4-0.3,0.7-0.4c0.3-0.1,0.6-0.2,0.9-0.2
					c0.4,0,0.7,0,1.1,0V80.6z M180,81.3c-0.2,0-0.4,0-0.6,0c-0.2,0-0.4,0.1-0.6,0.1c-0.2,0.1-0.3,0.1-0.5,0.2
					c-0.1,0.1-0.2,0.3-0.2,0.4c0,0.1,0,0.2,0.1,0.3c0.1,0.1,0.1,0.2,0.2,0.2c0.1,0.1,0.2,0.1,0.3,0.1c0.1,0,0.2,0,0.3,0
					c0.4,0,0.7-0.1,0.9-0.4c0.2-0.2,0.3-0.5,0.3-0.9v-0.2H180z"/>
				<path fill="#3C3C3B" d="M183.8,79.2c0.2-0.2,0.5-0.2,0.8-0.2c0.3,0,0.5,0.1,0.8,0.2c0.2,0.1,0.4,0.3,0.5,0.7
					c0.1-0.3,0.3-0.5,0.6-0.6c0.3-0.1,0.5-0.2,0.8-0.2c0.3,0,0.5,0,0.7,0.1c0.2,0.1,0.4,0.2,0.5,0.4c0.1,0.2,0.2,0.3,0.3,0.5
					s0.1,0.4,0.1,0.7v2.6h-0.8V81c0-0.2,0-0.3,0-0.5c0-0.2-0.1-0.3-0.2-0.4c-0.1-0.1-0.2-0.2-0.3-0.3c-0.1-0.1-0.3-0.1-0.5-0.1
					c-0.2,0-0.4,0-0.5,0.1c-0.1,0.1-0.2,0.2-0.3,0.3c-0.1,0.1-0.1,0.3-0.2,0.4c0,0.2-0.1,0.3-0.1,0.5v2.3h-0.8v-2.5
					c0-0.2,0-0.3,0-0.5c0-0.1-0.1-0.3-0.2-0.4c-0.1-0.1-0.2-0.2-0.3-0.2c-0.1-0.1-0.3-0.1-0.4-0.1c-0.3,0-0.6,0.1-0.8,0.4
					c-0.2,0.3-0.3,0.6-0.3,1v2.3h-0.8V80c0-0.1,0-0.3,0-0.4c0-0.2,0-0.3,0-0.5h0.8c0,0.1,0,0.2,0,0.4c0,0.1,0,0.2,0,0.3h0
					C183.4,79.6,183.6,79.4,183.8,79.2z"/>
				<path fill="#3C3C3B" d="M193,80.6c0-0.3-0.1-0.6-0.3-0.7c-0.2-0.2-0.4-0.2-0.8-0.2c-0.2,0-0.5,0-0.7,0.1
					c-0.2,0.1-0.4,0.2-0.5,0.4l-0.4-0.5c0.2-0.2,0.5-0.4,0.8-0.5c0.3-0.1,0.6-0.2,1-0.2c0.3,0,0.6,0,0.8,0.1
					c0.2,0.1,0.4,0.2,0.5,0.4c0.1,0.1,0.3,0.3,0.3,0.5c0.1,0.2,0.1,0.4,0.1,0.7v1.9c0,0.1,0,0.3,0,0.5c0,0.2,0,0.3,0,0.4h-0.8
					c0-0.2-0.1-0.4-0.1-0.6h0c-0.2,0.2-0.4,0.4-0.6,0.5c-0.2,0.1-0.5,0.2-0.8,0.2c-0.2,0-0.3,0-0.5-0.1c-0.2,0-0.3-0.1-0.5-0.2
					c-0.1-0.1-0.3-0.2-0.4-0.4c-0.1-0.2-0.1-0.4-0.1-0.6c0-0.3,0.1-0.6,0.3-0.8c0.2-0.2,0.4-0.3,0.7-0.4c0.3-0.1,0.6-0.2,0.9-0.2
					c0.4,0,0.7,0,1.1,0V80.6z M192.8,81.3c-0.2,0-0.4,0-0.6,0c-0.2,0-0.4,0.1-0.6,0.1c-0.2,0.1-0.3,0.1-0.5,0.2
					c-0.1,0.1-0.2,0.3-0.2,0.4c0,0.1,0,0.2,0.1,0.3c0.1,0.1,0.1,0.2,0.2,0.2c0.1,0.1,0.2,0.1,0.3,0.1c0.1,0,0.2,0,0.3,0
					c0.4,0,0.7-0.1,0.9-0.4c0.2-0.2,0.3-0.5,0.3-0.9v-0.2H192.8z"/>
				<path fill="#3C3C3B" d="M195.2,79.6c0-0.2,0-0.3,0-0.5h0.8c0,0.1,0,0.2,0,0.4c0,0.1,0,0.3,0,0.3h0c0.1-0.3,0.3-0.5,0.5-0.6
					c0.2-0.2,0.5-0.2,0.8-0.2c0.1,0,0.2,0,0.3,0l0,0.8c-0.1,0-0.2,0-0.4,0c-0.2,0-0.4,0-0.5,0.1c-0.1,0.1-0.3,0.2-0.4,0.3
					c-0.1,0.1-0.2,0.3-0.2,0.4c0,0.2-0.1,0.3-0.1,0.5v2.2h-0.8V80C195.2,79.9,195.2,79.7,195.2,79.6z"/>
				<path fill="#3C3C3B" d="M201.3,80.2c-0.1-0.1-0.2-0.3-0.4-0.3c-0.2-0.1-0.4-0.1-0.6-0.1c-0.2,0-0.4,0-0.6,0.1
					c-0.2,0.1-0.3,0.2-0.4,0.3c-0.1,0.1-0.2,0.3-0.3,0.5c-0.1,0.2-0.1,0.4-0.1,0.6s0,0.4,0.1,0.6s0.2,0.3,0.3,0.5
					c0.1,0.1,0.3,0.3,0.4,0.3c0.2,0.1,0.4,0.1,0.6,0.1c0.2,0,0.4,0,0.6-0.1c0.2-0.1,0.3-0.2,0.4-0.3l0.6,0.5
					c-0.2,0.2-0.4,0.4-0.7,0.5c-0.3,0.1-0.6,0.2-0.9,0.2c-0.3,0-0.6-0.1-0.9-0.2c-0.3-0.1-0.5-0.3-0.7-0.5c-0.2-0.2-0.4-0.4-0.5-0.7
					c-0.1-0.3-0.2-0.6-0.2-0.9c0-0.3,0.1-0.6,0.2-0.9c0.1-0.3,0.3-0.5,0.5-0.7c0.2-0.2,0.4-0.3,0.7-0.5c0.3-0.1,0.6-0.2,0.9-0.2
					c0.3,0,0.6,0.1,0.9,0.2c0.3,0.1,0.5,0.3,0.7,0.5L201.3,80.2z"/>
				<path fill="#3C3C3B" d="M207,81.2c0,0.3-0.1,0.6-0.2,0.9c-0.1,0.3-0.3,0.5-0.5,0.7c-0.2,0.2-0.4,0.4-0.7,0.5
					c-0.3,0.1-0.6,0.2-0.9,0.2c-0.3,0-0.6-0.1-0.9-0.2c-0.3-0.1-0.5-0.3-0.7-0.5c-0.2-0.2-0.4-0.4-0.5-0.7c-0.1-0.3-0.2-0.6-0.2-0.9
					s0.1-0.6,0.2-0.9c0.1-0.3,0.3-0.5,0.5-0.7c0.2-0.2,0.4-0.4,0.7-0.5c0.3-0.1,0.6-0.2,0.9-0.2c0.3,0,0.6,0.1,0.9,0.2
					c0.3,0.1,0.5,0.3,0.7,0.5c0.2,0.2,0.4,0.4,0.5,0.7C207,80.6,207,80.9,207,81.2z M206.1,81.2c0-0.2,0-0.4-0.1-0.6
					c-0.1-0.2-0.2-0.3-0.3-0.5c-0.1-0.1-0.3-0.3-0.4-0.3c-0.2-0.1-0.4-0.1-0.6-0.1c-0.2,0-0.4,0-0.6,0.1c-0.2,0.1-0.3,0.2-0.4,0.3
					c-0.1,0.1-0.2,0.3-0.3,0.5c-0.1,0.2-0.1,0.4-0.1,0.6c0,0.2,0,0.4,0.1,0.6c0.1,0.2,0.2,0.3,0.3,0.5c0.1,0.1,0.3,0.3,0.4,0.3
					c0.2,0.1,0.4,0.1,0.6,0.1c0.2,0,0.4,0,0.6-0.1c0.2-0.1,0.3-0.2,0.4-0.3s0.2-0.3,0.3-0.5S206.1,81.4,206.1,81.2z"/>
				<path fill="#3C3C3B" d="M209.4,79.7h0.3c0.2,0,0.4,0,0.5,0c0.2,0,0.3-0.1,0.5-0.2c0.1-0.1,0.2-0.2,0.3-0.3
					c0.1-0.1,0.1-0.3,0.1-0.5c0-0.2,0-0.3-0.1-0.4c-0.1-0.1-0.1-0.2-0.2-0.3c-0.1-0.1-0.2-0.2-0.4-0.2c-0.1-0.1-0.3-0.1-0.4-0.1
					c-0.3,0-0.5,0.1-0.7,0.2c-0.2,0.1-0.3,0.3-0.4,0.6l-0.8-0.3c0.2-0.4,0.4-0.7,0.7-0.9c0.3-0.2,0.7-0.3,1.2-0.3
					c0.3,0,0.5,0,0.7,0.1c0.2,0.1,0.4,0.2,0.6,0.3c0.2,0.1,0.3,0.3,0.4,0.5c0.1,0.2,0.2,0.5,0.2,0.7c0,0.2,0,0.3-0.1,0.5
					c-0.1,0.2-0.1,0.3-0.2,0.4c-0.1,0.1-0.2,0.2-0.4,0.3c-0.1,0.1-0.3,0.2-0.4,0.2v0c0.2,0,0.4,0.1,0.5,0.2c0.2,0.1,0.3,0.2,0.4,0.3
					c0.1,0.1,0.2,0.3,0.3,0.5c0.1,0.2,0.1,0.4,0.1,0.6c0,0.3-0.1,0.6-0.2,0.8c-0.1,0.2-0.3,0.4-0.5,0.6c-0.2,0.2-0.4,0.3-0.7,0.4
					c-0.3,0.1-0.5,0.1-0.8,0.1c-0.5,0-0.9-0.1-1.3-0.3c-0.4-0.2-0.7-0.6-0.8-1.1l0.8-0.3c0.1,0.3,0.3,0.5,0.5,0.7
					c0.2,0.2,0.5,0.3,0.8,0.3c0.2,0,0.3,0,0.5-0.1c0.2-0.1,0.3-0.1,0.4-0.2c0.1-0.1,0.2-0.2,0.3-0.4c0.1-0.1,0.1-0.3,0.1-0.5
					c0-0.2,0-0.4-0.1-0.6c-0.1-0.1-0.2-0.3-0.4-0.4c-0.2-0.1-0.3-0.2-0.5-0.2c-0.2,0-0.4-0.1-0.6-0.1h-0.3V79.7z"/>
				<path fill="#3C3C3B" d="M214.7,79.7h0.3c0.2,0,0.4,0,0.5,0c0.2,0,0.3-0.1,0.5-0.2c0.1-0.1,0.2-0.2,0.3-0.3
					c0.1-0.1,0.1-0.3,0.1-0.5c0-0.2,0-0.3-0.1-0.4c-0.1-0.1-0.1-0.2-0.2-0.3c-0.1-0.1-0.2-0.2-0.4-0.2c-0.1-0.1-0.3-0.1-0.4-0.1
					c-0.3,0-0.5,0.1-0.7,0.2c-0.2,0.1-0.3,0.3-0.4,0.6l-0.8-0.3c0.2-0.4,0.4-0.7,0.7-0.9c0.3-0.2,0.7-0.3,1.2-0.3
					c0.3,0,0.5,0,0.7,0.1c0.2,0.1,0.4,0.2,0.6,0.3c0.2,0.1,0.3,0.3,0.4,0.5c0.1,0.2,0.2,0.5,0.2,0.7c0,0.2,0,0.3-0.1,0.5
					c-0.1,0.2-0.1,0.3-0.2,0.4c-0.1,0.1-0.2,0.2-0.4,0.3c-0.1,0.1-0.3,0.2-0.4,0.2v0c0.2,0,0.4,0.1,0.5,0.2c0.2,0.1,0.3,0.2,0.4,0.3
					c0.1,0.1,0.2,0.3,0.3,0.5c0.1,0.2,0.1,0.4,0.1,0.6c0,0.3-0.1,0.6-0.2,0.8c-0.1,0.2-0.3,0.4-0.5,0.6c-0.2,0.2-0.4,0.3-0.7,0.4
					c-0.3,0.1-0.5,0.1-0.8,0.1c-0.5,0-0.9-0.1-1.3-0.3c-0.4-0.2-0.7-0.6-0.8-1.1l0.8-0.3c0.1,0.3,0.3,0.5,0.5,0.7
					c0.2,0.2,0.5,0.3,0.8,0.3c0.2,0,0.3,0,0.5-0.1c0.2-0.1,0.3-0.1,0.4-0.2c0.1-0.1,0.2-0.2,0.3-0.4c0.1-0.1,0.1-0.3,0.1-0.5
					c0-0.2,0-0.4-0.1-0.6c-0.1-0.1-0.2-0.3-0.4-0.4c-0.2-0.1-0.3-0.2-0.5-0.2c-0.2,0-0.4-0.1-0.6-0.1h-0.3V79.7z"/>
				<path fill="#3C3C3B" d="M219.9,82.8c0,0.2-0.1,0.3-0.2,0.4c-0.1,0.1-0.3,0.2-0.4,0.2c-0.2,0-0.3-0.1-0.4-0.2
					c-0.1-0.1-0.2-0.3-0.2-0.4c0-0.2,0.1-0.3,0.2-0.4c0.1-0.1,0.3-0.2,0.4-0.2c0.2,0,0.3,0.1,0.4,0.2
					C219.8,82.5,219.9,82.6,219.9,82.8z"/>
				<path fill="#3C3C3B" d="M221.5,84.1c0.2,0.2,0.4,0.4,0.7,0.5c0.3,0.1,0.6,0.2,0.9,0.2c0.3,0,0.5,0,0.7-0.1
					c0.2-0.1,0.3-0.2,0.5-0.3c0.1-0.1,0.2-0.3,0.3-0.5c0-0.2,0.1-0.4,0.1-0.6v-0.5h0c-0.2,0.2-0.4,0.4-0.6,0.5
					c-0.3,0.1-0.6,0.2-0.9,0.2c-0.3,0-0.6-0.1-0.9-0.2c-0.3-0.1-0.5-0.3-0.7-0.5c-0.2-0.2-0.3-0.4-0.4-0.7c-0.1-0.3-0.2-0.6-0.2-0.9
					c0-0.3,0.1-0.6,0.2-0.9c0.1-0.3,0.2-0.5,0.4-0.7c0.2-0.2,0.4-0.4,0.7-0.5c0.3-0.1,0.6-0.2,0.9-0.2c0.3,0,0.6,0.1,0.9,0.2
					c0.3,0.1,0.5,0.3,0.7,0.6h0v-0.7h0.8v4c0,0.3,0,0.6-0.1,0.9c-0.1,0.3-0.2,0.5-0.4,0.8c-0.2,0.2-0.4,0.4-0.7,0.5
					c-0.3,0.1-0.7,0.2-1.1,0.2c-0.4,0-0.7-0.1-1.1-0.2s-0.7-0.3-1-0.6L221.5,84.1z M221.7,81.2c0,0.2,0,0.4,0.1,0.6s0.2,0.3,0.3,0.5
					c0.1,0.1,0.3,0.2,0.4,0.3c0.2,0.1,0.4,0.1,0.6,0.1c0.2,0,0.4,0,0.6-0.1c0.2-0.1,0.3-0.2,0.5-0.3c0.1-0.1,0.2-0.3,0.3-0.5
					c0.1-0.2,0.1-0.4,0.1-0.6c0-0.2,0-0.4-0.1-0.6c-0.1-0.2-0.2-0.3-0.3-0.5c-0.1-0.1-0.3-0.2-0.5-0.3c-0.2-0.1-0.4-0.1-0.6-0.1
					c-0.2,0-0.4,0-0.6,0.1c-0.2,0.1-0.3,0.2-0.4,0.3c-0.1,0.1-0.2,0.3-0.3,0.5C221.8,80.8,221.7,81,221.7,81.2z"/>
				<path fill="#3C3C3B" d="M227.8,77.6c0,0.2-0.1,0.3-0.2,0.4c-0.1,0.1-0.2,0.2-0.4,0.2c-0.2,0-0.3-0.1-0.4-0.2
					c-0.1-0.1-0.2-0.2-0.2-0.4c0-0.2,0.1-0.3,0.2-0.4c0.1-0.1,0.2-0.2,0.4-0.2c0.2,0,0.3,0.1,0.4,0.2
					C227.7,77.3,227.8,77.4,227.8,77.6z M227.6,83.3h-0.8v-4.2h0.8V83.3z"/>
				<path fill="#3C3C3B" d="M231.2,79.8h-1.1V82c0,0.3,0,0.4,0.1,0.5c0.1,0.1,0.2,0.2,0.5,0.2c0.1,0,0.2,0,0.3,0
					c0.1,0,0.2,0,0.2-0.1l0,0.7c-0.1,0-0.2,0.1-0.3,0.1c-0.1,0-0.3,0-0.4,0c-0.4,0-0.7-0.1-0.9-0.3c-0.2-0.2-0.3-0.6-0.3-1v-2.3
					h-0.8v-0.7h0.8v-1.2h0.8v1.2h1.1V79.8z"/>
				<path fill="#3C3C3B" d="M232.9,79.7c0.1-0.2,0.3-0.4,0.5-0.5c0.2-0.1,0.5-0.2,0.8-0.2c0.3,0,0.5,0,0.7,0.1
					c0.2,0.1,0.4,0.2,0.5,0.4c0.1,0.2,0.2,0.3,0.3,0.5s0.1,0.4,0.1,0.7v2.6H235V81c0-0.2,0-0.3,0-0.5c0-0.2-0.1-0.3-0.1-0.4
					c-0.1-0.1-0.2-0.2-0.3-0.3c-0.1-0.1-0.3-0.1-0.5-0.1c-0.3,0-0.6,0.1-0.8,0.4c-0.2,0.3-0.3,0.6-0.3,1v2.3h-0.8v-6.8h0.8
					L232.9,79.7L232.9,79.7z"/>
				<path fill="#3C3C3B" d="M240.3,83.3c0-0.1,0-0.2,0-0.4c0-0.1,0-0.2,0-0.3h0c-0.1,0.2-0.3,0.4-0.5,0.6c-0.3,0.2-0.5,0.2-0.8,0.2
					c-0.3,0-0.5,0-0.7-0.1c-0.2-0.1-0.4-0.2-0.5-0.4c-0.1-0.2-0.2-0.3-0.3-0.6s-0.1-0.4-0.1-0.7v-2.6h0.8v2.3c0,0.2,0,0.3,0,0.5
					c0,0.2,0.1,0.3,0.1,0.4c0.1,0.1,0.2,0.2,0.3,0.3c0.1,0.1,0.3,0.1,0.5,0.1c0.3,0,0.6-0.1,0.8-0.4c0.2-0.3,0.3-0.6,0.3-1v-2.3h0.8
					v3.3c0,0.1,0,0.3,0,0.4c0,0.2,0,0.3,0,0.5H240.3z"/>
				<path fill="#3C3C3B" d="M243.3,82.7v0.7h-0.8v-6.8h0.8v3.2h0c0.1-0.2,0.3-0.4,0.6-0.5c0.3-0.1,0.6-0.2,0.9-0.2
					c0.3,0,0.6,0.1,0.9,0.2c0.3,0.1,0.5,0.3,0.7,0.5c0.2,0.2,0.3,0.4,0.4,0.7c0.1,0.3,0.2,0.6,0.2,0.9s-0.1,0.6-0.2,0.9
					c-0.1,0.3-0.2,0.5-0.4,0.7c-0.2,0.2-0.4,0.4-0.7,0.5s-0.6,0.2-0.9,0.2c-0.3,0-0.6-0.1-0.9-0.2C243.7,83.1,243.5,82.9,243.3,82.7
					L243.3,82.7z M246.1,81.2c0-0.2,0-0.4-0.1-0.6c-0.1-0.2-0.1-0.3-0.3-0.5c-0.1-0.1-0.3-0.3-0.4-0.3c-0.2-0.1-0.4-0.1-0.6-0.1
					c-0.2,0-0.4,0-0.6,0.1c-0.2,0.1-0.3,0.2-0.5,0.3c-0.1,0.1-0.2,0.3-0.3,0.5c-0.1,0.2-0.1,0.4-0.1,0.6s0,0.4,0.1,0.6
					c0.1,0.2,0.2,0.3,0.3,0.5c0.1,0.1,0.3,0.3,0.5,0.3c0.2,0.1,0.4,0.1,0.6,0.1c0.2,0,0.4,0,0.6-0.1c0.2-0.1,0.3-0.2,0.4-0.3
					c0.1-0.1,0.2-0.3,0.3-0.5C246.1,81.6,246.1,81.4,246.1,81.2z"/>
				<path fill="#3C3C3B" d="M249.1,82.8c0,0.2-0.1,0.3-0.2,0.4c-0.1,0.1-0.3,0.2-0.4,0.2c-0.2,0-0.3-0.1-0.4-0.2
					c-0.1-0.1-0.2-0.3-0.2-0.4c0-0.2,0.1-0.3,0.2-0.4c0.1-0.1,0.3-0.2,0.4-0.2c0.2,0,0.3,0.1,0.4,0.2
					C249,82.5,249.1,82.6,249.1,82.8z"/>
				<path fill="#3C3C3B" d="M251.4,77.6c0,0.2-0.1,0.3-0.2,0.4c-0.1,0.1-0.2,0.2-0.4,0.2c-0.2,0-0.3-0.1-0.4-0.2
					c-0.1-0.1-0.2-0.2-0.2-0.4c0-0.2,0.1-0.3,0.2-0.4c0.1-0.1,0.2-0.2,0.4-0.2c0.2,0,0.3,0.1,0.4,0.2
					C251.3,77.3,251.4,77.4,251.4,77.6z M251.2,83.3h-0.8v-4.2h0.8V83.3z"/>
				<path fill="#3C3C3B" d="M257,81.2c0,0.3-0.1,0.6-0.2,0.9c-0.1,0.3-0.3,0.5-0.5,0.7c-0.2,0.2-0.4,0.4-0.7,0.5
					c-0.3,0.1-0.6,0.2-0.9,0.2s-0.6-0.1-0.9-0.2c-0.3-0.1-0.5-0.3-0.7-0.5c-0.2-0.2-0.4-0.4-0.5-0.7c-0.1-0.3-0.2-0.6-0.2-0.9
					s0.1-0.6,0.2-0.9c0.1-0.3,0.3-0.5,0.5-0.7c0.2-0.2,0.4-0.4,0.7-0.5c0.3-0.1,0.6-0.2,0.9-0.2s0.6,0.1,0.9,0.2
					c0.3,0.1,0.5,0.3,0.7,0.5c0.2,0.2,0.4,0.4,0.5,0.7C256.9,80.6,257,80.9,257,81.2z M256.1,81.2c0-0.2,0-0.4-0.1-0.6
					c-0.1-0.2-0.2-0.3-0.3-0.5c-0.1-0.1-0.3-0.3-0.4-0.3s-0.4-0.1-0.6-0.1c-0.2,0-0.4,0-0.6,0.1c-0.2,0.1-0.3,0.2-0.4,0.3
					c-0.1,0.1-0.2,0.3-0.3,0.5c-0.1,0.2-0.1,0.4-0.1,0.6c0,0.2,0,0.4,0.1,0.6s0.2,0.3,0.3,0.5s0.3,0.3,0.4,0.3
					c0.2,0.1,0.4,0.1,0.6,0.1c0.2,0,0.4,0,0.6-0.1s0.3-0.2,0.4-0.3c0.1-0.1,0.2-0.3,0.3-0.5C256.1,81.6,256.1,81.4,256.1,81.2z"/>
				<path fill="#3C3C3B" d="M258.1,83.6l-0.6-0.2l2.7-6.7l0.6,0.2L258.1,83.6z"/>
				<path fill="#3C3C3B" d="M262.5,83.3h-0.9V77h2c0.3,0,0.6,0,0.9,0.1c0.3,0.1,0.5,0.2,0.7,0.3c0.2,0.1,0.4,0.3,0.5,0.5
					c0.1,0.2,0.2,0.5,0.2,0.8c0,0.5-0.1,0.8-0.4,1.1c-0.3,0.3-0.7,0.5-1.1,0.5l1.8,2.9h-1.1l-1.6-2.8h-0.9V83.3z M262.5,79.8h1
					c0.2,0,0.4,0,0.6-0.1c0.2,0,0.3-0.1,0.5-0.2c0.1-0.1,0.2-0.2,0.3-0.3c0.1-0.1,0.1-0.3,0.1-0.5c0-0.2,0-0.3-0.1-0.5
					c-0.1-0.1-0.2-0.2-0.3-0.3c-0.1-0.1-0.3-0.1-0.5-0.2c-0.2,0-0.4,0-0.5,0h-1.1V79.8z"/>
				<path fill="#3C3C3B" d="M268.8,81.5h-2.1v-0.7h2.1V81.5z"/>
				<path fill="#3C3C3B" d="M271.9,79.8h-1v3.6h-0.8v-3.6h-0.8v-0.7h0.8v-0.9c0-0.3,0-0.5,0.1-0.7c0.1-0.2,0.1-0.4,0.3-0.6
					c0.1-0.2,0.3-0.3,0.5-0.4c0.2-0.1,0.4-0.1,0.7-0.1c0.2,0,0.4,0,0.5,0.1l-0.1,0.7c-0.1,0-0.1,0-0.2,0c-0.1,0-0.1,0-0.2,0
					c-0.2,0-0.3,0-0.4,0.1c-0.1,0.1-0.2,0.1-0.2,0.2c-0.1,0.1-0.1,0.2-0.1,0.3c0,0.1,0,0.2,0,0.4v0.9h1V79.8z M273.6,83.3h-0.8v-6.8
					h0.8V83.3z"/>
				<path fill="#3C3C3B" d="M279,81.2c0,0,0,0.1,0,0.1c0,0,0,0.1,0,0.1h-3.4c0,0.2,0,0.3,0.1,0.5c0.1,0.2,0.2,0.3,0.3,0.4
					c0.1,0.1,0.3,0.2,0.4,0.3c0.2,0.1,0.3,0.1,0.5,0.1c0.3,0,0.5-0.1,0.7-0.2c0.2-0.1,0.4-0.3,0.5-0.5l0.6,0.5
					c-0.2,0.3-0.5,0.5-0.8,0.7c-0.3,0.1-0.6,0.2-1,0.2c-0.3,0-0.6-0.1-0.9-0.2c-0.3-0.1-0.5-0.3-0.7-0.5c-0.2-0.2-0.4-0.4-0.5-0.7
					c-0.1-0.3-0.2-0.6-0.2-0.9c0-0.3,0.1-0.6,0.2-0.9c0.1-0.3,0.3-0.5,0.5-0.7c0.2-0.2,0.4-0.4,0.7-0.5c0.3-0.1,0.6-0.2,0.9-0.2
					c0.3,0,0.6,0.1,0.8,0.2c0.3,0.1,0.5,0.2,0.6,0.4c0.2,0.2,0.3,0.4,0.4,0.7C279,80.5,279,80.8,279,81.2z M278.2,80.8
					c0-0.2,0-0.3-0.1-0.5c-0.1-0.1-0.1-0.3-0.2-0.4c-0.1-0.1-0.2-0.2-0.4-0.3c-0.1-0.1-0.3-0.1-0.5-0.1c-0.2,0-0.3,0-0.5,0.1
					c-0.2,0.1-0.3,0.1-0.4,0.3c-0.1,0.1-0.2,0.2-0.3,0.4c-0.1,0.1-0.1,0.3-0.1,0.5H278.2z"/>
				<path fill="#3C3C3B" d="M281.1,81.1l-1.5-2h1l1,1.5l1-1.5h1l-1.5,2l1.7,2.2h-1l-1.2-1.7l-1.2,1.7h-1L281.1,81.1z"/>
				<path fill="#3C3C3B" d="M288.9,81.2c0,0.3-0.1,0.6-0.2,0.9c-0.1,0.3-0.3,0.5-0.5,0.7c-0.2,0.2-0.4,0.4-0.7,0.5
					c-0.3,0.1-0.6,0.2-0.9,0.2s-0.6-0.1-0.9-0.2c-0.3-0.1-0.5-0.3-0.7-0.5c-0.2-0.2-0.4-0.4-0.5-0.7c-0.1-0.3-0.2-0.6-0.2-0.9
					s0.1-0.6,0.2-0.9c0.1-0.3,0.3-0.5,0.5-0.7c0.2-0.2,0.4-0.4,0.7-0.5c0.3-0.1,0.6-0.2,0.9-0.2s0.6,0.1,0.9,0.2
					c0.3,0.1,0.5,0.3,0.7,0.5c0.2,0.2,0.4,0.4,0.5,0.7C288.8,80.6,288.9,80.9,288.9,81.2z M288,81.2c0-0.2,0-0.4-0.1-0.6
					c-0.1-0.2-0.2-0.3-0.3-0.5c-0.1-0.1-0.3-0.3-0.4-0.3c-0.2-0.1-0.4-0.1-0.6-0.1s-0.4,0-0.6,0.1s-0.3,0.2-0.4,0.3
					c-0.1,0.1-0.2,0.3-0.3,0.5c-0.1,0.2-0.1,0.4-0.1,0.6c0,0.2,0,0.4,0.1,0.6s0.2,0.3,0.3,0.5c0.1,0.1,0.3,0.3,0.4,0.3
					s0.4,0.1,0.6,0.1s0.4,0,0.6-0.1c0.2-0.1,0.3-0.2,0.4-0.3s0.2-0.3,0.3-0.5S288,81.4,288,81.2z"/>
				<path fill="#3C3C3B" d="M290.9,83.3H290v-6.8h0.8V83.3z"/>
				<path fill="#3C3C3B" d="M296.6,81.2c0,0.3-0.1,0.6-0.2,0.9c-0.1,0.3-0.3,0.5-0.5,0.7c-0.2,0.2-0.4,0.4-0.7,0.5
					c-0.3,0.1-0.6,0.2-0.9,0.2s-0.6-0.1-0.9-0.2c-0.3-0.1-0.5-0.3-0.7-0.5c-0.2-0.2-0.4-0.4-0.5-0.7c-0.1-0.3-0.2-0.6-0.2-0.9
					s0.1-0.6,0.2-0.9c0.1-0.3,0.3-0.5,0.5-0.7c0.2-0.2,0.4-0.4,0.7-0.5c0.3-0.1,0.6-0.2,0.9-0.2s0.6,0.1,0.9,0.2
					c0.3,0.1,0.5,0.3,0.7,0.5c0.2,0.2,0.4,0.4,0.5,0.7C296.6,80.6,296.6,80.9,296.6,81.2z M295.8,81.2c0-0.2,0-0.4-0.1-0.6
					c-0.1-0.2-0.2-0.3-0.3-0.5c-0.1-0.1-0.3-0.3-0.4-0.3c-0.2-0.1-0.4-0.1-0.6-0.1s-0.4,0-0.6,0.1s-0.3,0.2-0.4,0.3
					c-0.1,0.1-0.2,0.3-0.3,0.5c-0.1,0.2-0.1,0.4-0.1,0.6c0,0.2,0,0.4,0.1,0.6s0.2,0.3,0.3,0.5s0.3,0.3,0.4,0.3s0.4,0.1,0.6,0.1
					s0.4,0,0.6-0.1c0.2-0.1,0.3-0.2,0.4-0.3s0.2-0.3,0.3-0.5S295.8,81.4,295.8,81.2z"/>
				<path fill="#3C3C3B" d="M298.1,84.1c0.2,0.2,0.4,0.4,0.7,0.5c0.3,0.1,0.6,0.2,0.9,0.2c0.3,0,0.5,0,0.7-0.1
					c0.2-0.1,0.3-0.2,0.5-0.3c0.1-0.1,0.2-0.3,0.3-0.5c0-0.2,0.1-0.4,0.1-0.6v-0.5h0c-0.2,0.2-0.4,0.4-0.6,0.5
					c-0.3,0.1-0.6,0.2-0.9,0.2c-0.3,0-0.6-0.1-0.9-0.2c-0.3-0.1-0.5-0.3-0.7-0.5c-0.2-0.2-0.3-0.4-0.4-0.7c-0.1-0.3-0.2-0.6-0.2-0.9
					c0-0.3,0.1-0.6,0.2-0.9c0.1-0.3,0.2-0.5,0.4-0.7c0.2-0.2,0.4-0.4,0.7-0.5c0.3-0.1,0.6-0.2,0.9-0.2c0.3,0,0.6,0.1,0.9,0.2
					c0.3,0.1,0.5,0.3,0.7,0.6h0v-0.7h0.8v4c0,0.3,0,0.6-0.1,0.9c-0.1,0.3-0.2,0.5-0.4,0.8c-0.2,0.2-0.4,0.4-0.7,0.5
					c-0.3,0.1-0.7,0.2-1.1,0.2c-0.4,0-0.7-0.1-1.1-0.2c-0.4-0.1-0.7-0.3-1-0.6L298.1,84.1z M298.4,81.2c0,0.2,0,0.4,0.1,0.6
					s0.2,0.3,0.3,0.5c0.1,0.1,0.3,0.2,0.4,0.3c0.2,0.1,0.4,0.1,0.6,0.1c0.2,0,0.4,0,0.6-0.1c0.2-0.1,0.3-0.2,0.5-0.3
					c0.1-0.1,0.2-0.3,0.3-0.5c0.1-0.2,0.1-0.4,0.1-0.6c0-0.2,0-0.4-0.1-0.6c-0.1-0.2-0.2-0.3-0.3-0.5c-0.1-0.1-0.3-0.2-0.5-0.3
					c-0.2-0.1-0.4-0.1-0.6-0.1c-0.2,0-0.4,0-0.6,0.1c-0.2,0.1-0.3,0.2-0.4,0.3c-0.1,0.1-0.2,0.3-0.3,0.5
					C298.4,80.8,298.4,81,298.4,81.2z"/>
				<path fill="#3C3C3B" d="M304.4,77.6c0,0.2-0.1,0.3-0.2,0.4c-0.1,0.1-0.2,0.2-0.4,0.2c-0.2,0-0.3-0.1-0.4-0.2
					c-0.1-0.1-0.2-0.2-0.2-0.4c0-0.2,0.1-0.3,0.2-0.4c0.1-0.1,0.2-0.2,0.4-0.2c0.2,0,0.3,0.1,0.4,0.2
					C304.4,77.3,304.4,77.4,304.4,77.6z M304.3,83.3h-0.8v-4.2h0.8V83.3z"/>
				<path fill="#3C3C3B" d="M309.7,81.2c0,0,0,0.1,0,0.1c0,0,0,0.1,0,0.1h-3.4c0,0.2,0,0.3,0.1,0.5c0.1,0.2,0.2,0.3,0.3,0.4
					c0.1,0.1,0.3,0.2,0.4,0.3c0.2,0.1,0.3,0.1,0.5,0.1c0.3,0,0.5-0.1,0.7-0.2c0.2-0.1,0.4-0.3,0.5-0.5l0.6,0.5
					c-0.2,0.3-0.5,0.5-0.8,0.7c-0.3,0.1-0.6,0.2-1,0.2c-0.3,0-0.6-0.1-0.9-0.2c-0.3-0.1-0.5-0.3-0.7-0.5c-0.2-0.2-0.4-0.4-0.5-0.7
					c-0.1-0.3-0.2-0.6-0.2-0.9c0-0.3,0.1-0.6,0.2-0.9c0.1-0.3,0.3-0.5,0.5-0.7c0.2-0.2,0.4-0.4,0.7-0.5c0.3-0.1,0.6-0.2,0.9-0.2
					c0.3,0,0.6,0.1,0.8,0.2c0.3,0.1,0.5,0.2,0.6,0.4c0.2,0.2,0.3,0.4,0.4,0.7C309.7,80.5,309.7,80.8,309.7,81.2z M308.9,80.8
					c0-0.2,0-0.3-0.1-0.5c-0.1-0.1-0.1-0.3-0.2-0.4c-0.1-0.1-0.2-0.2-0.4-0.3c-0.1-0.1-0.3-0.1-0.5-0.1c-0.2,0-0.3,0-0.5,0.1
					c-0.2,0.1-0.3,0.1-0.4,0.3c-0.1,0.1-0.2,0.2-0.3,0.4c-0.1,0.1-0.1,0.3-0.1,0.5H308.9z"/>
			</g>
		</g>
	</g>
	<g>
		<path fill="#EDEDED" d="M64.5,20.3L64.5,20.3C64.5,20.3,64.5,20.3,64.5,20.3c-0.1,0-0.1,0-0.2,0v0C39.2,20.4,20.3,41.9,31.9,68
			c11.6,26.1,26.9,35.4,32.5,35.4S85.4,94,97,68C108.6,41.9,89.7,20.4,64.5,20.3z"/>
		<path fill="#3C3C3B" d="M64.4,103.6c-5.3,0-20.9-8.9-32.7-35.5C26.5,56.6,27,45.2,33,35.9c6.4-9.8,18-15.8,31.1-15.9v0l0.2,0
			l0.3,0c13.2,0.1,24.9,6,31.2,15.9c6,9.3,6.5,20.7,1.3,32.2C85.4,94.6,69.7,103.6,64.4,103.6z M64.4,20.5L64.4,20.5
			c-13.1,0.1-24.7,5.9-31,15.7c-5.9,9.1-6.3,20.4-1.3,31.7c11.8,26.3,27.1,35.2,32.3,35.2c5.2,0,20.7-8.9,32.4-35.2
			c5-11.3,4.6-22.6-1.3-31.7c-6.3-9.8-17.9-15.6-31-15.7L64.4,20.5z"/>
		<path fill="#3C3C3B" d="M62.5,71.6c0,0-2.6-23.7-18-20.5C33.8,53.4,30.9,75.3,62.5,71.6z"/>
		<path fill="#3C3C3B" d="M66.2,71.6c0,0,2.6-23.7,18-20.5C94.9,53.4,97.9,75.3,66.2,71.6z"/>
		<ellipse fill="#3C3C3B" cx="64.4" cy="90.3" rx="1.5" ry="2.1"/>
		<path fill="#3C3C3B" d="M67.6,77.3c0,0,0,0.3-0.2,0.6c-0.2,0.3-0.4,0.7-0.7,0.9c-0.3,0.3-0.7,0.5-1,0.6c-0.3,0.1-0.6,0.1-0.6,0.1
			s0-0.3,0.2-0.6c0.2-0.3,0.4-0.7,0.7-0.9c0.3-0.3,0.7-0.5,1-0.6C67.3,77.3,67.6,77.3,67.6,77.3z"/>
		<path fill="#3C3C3B" d="M61.1,77.3c0,0,0.3,0,0.6,0.1c0.3,0.1,0.7,0.3,1,0.6c0.3,0.3,0.6,0.6,0.7,0.9c0.2,0.3,0.2,0.6,0.2,0.6
			s-0.3,0-0.6-0.1c-0.3-0.1-0.7-0.3-1-0.6c-0.3-0.3-0.6-0.6-0.7-0.9C61.1,77.6,61.1,77.3,61.1,77.3z"/>
		<path fill="#EDEDED" d="M72.8,112.7c-28,4.5-54.4-14.6-58.9-42.6c-4.5-28,14.6-54.4,42.6-58.9s54.4,14.6,58.9,42.6
			C119.9,81.8,100.7,108.2,72.8,112.7z M56.9,14.1c-26.4,4.2-44.3,29.1-40.1,55.5c4.2,26.3,29.1,44.3,55.5,40.1
			c26.4-4.2,44.3-29.1,40.1-55.5C108.2,27.9,83.3,9.9,56.9,14.1z"/>
		<path fill="#3C3C3B" d="M64.6,113.6c-12.1,0-24-4.3-33.3-12.2c-9.4-8-15.7-19.1-17.7-31.2C9.1,42,28.3,15.4,56.4,10.9
			c2.7-0.4,5.5-0.7,8.2-0.7c12.1,0,24,4.3,33.3,12.2c9.4,8,15.7,19.1,17.7,31.2c4.5,28.1-14.7,54.7-42.8,59.2
			C70.1,113.4,67.3,113.6,64.6,113.6z M64.6,10.8c-2.7,0-5.4,0.2-8.1,0.7C43,13.6,31.2,20.9,23.2,32C15.2,43,12,56.6,14.1,70
			C16,82.1,22.3,93.1,31.6,101c9.2,7.8,21,12.1,33,12.1c2.7,0,5.4-0.2,8.1-0.7C86.2,110.3,98,103,106,91.9
			c8-11.1,11.2-24.6,9.1-38.1c-1.9-12.1-8.1-23.1-17.5-30.9C88.4,15.1,76.7,10.8,64.6,10.8z M64.6,110.6
			C64.6,110.6,64.6,110.6,64.6,110.6c-11.4,0-22.6-4.1-31.4-11.5c-8.9-7.5-14.8-18-16.6-29.4c-4.2-26.5,13.8-51.5,40.3-55.7
			c2.6-0.4,5.2-0.6,7.7-0.6c11.4,0,22.6,4.1,31.4,11.5c8.9,7.5,14.8,18,16.6,29.4c2.1,12.8-1,25.7-8.6,36.2
			C96.4,101,85.1,107.9,72.3,110C69.8,110.4,67.2,110.6,64.6,110.6z M64.6,13.8c-2.5,0-5.1,0.2-7.7,0.6c-26.2,4.2-44.1,29-39.9,55.2
			c1.8,11.4,7.7,21.7,16.5,29.1c8.7,7.3,19.7,11.4,31,11.4c0,0,0,0,0,0c2.5,0,5.1-0.2,7.6-0.6c12.7-2,23.8-8.9,31.4-19.3
			s10.6-23.2,8.5-35.8c-1.8-11.4-7.7-21.7-16.5-29.1C87,17.8,76,13.8,64.6,13.8z"/>
		<path fill="#EDEDED" d="M18.1,43.8c-1.7-1.3-2.8-1.1-2.8-1.1c-1.5,0.4-1,1.9-1,1.9c-1.4,0.6-0.4,1.8-0.4,1.8s-1.8,0.2-0.7,3.3
			c0,0,0.2,1.1,1.1,1.8c0,0,0.2-1.4,0.5-2.1c0.3-0.7,2.7-0.1,2.7,1.6c0,0,1.2-1,0.6-2"/>
		<path fill="#3C3C3B" d="M14.5,51.8l-0.3-0.2c-1-0.7-1.2-1.9-1.2-1.9c-0.5-1.2-0.5-2.2-0.1-2.9c0.2-0.3,0.4-0.5,0.6-0.6
			c-0.1-0.2-0.3-0.6-0.2-1c0.1-0.3,0.3-0.6,0.7-0.8c-0.1-0.3-0.1-0.8,0.2-1.2c0.2-0.4,0.6-0.6,1.1-0.8c0.1,0,1.3-0.2,3.1,1.2L18,44
			c-1.5-1.2-2.6-1.1-2.6-1.1c-0.3,0.1-0.6,0.3-0.8,0.5c-0.3,0.5-0.1,1-0.1,1l0.1,0.2l-0.2,0.1c-0.3,0.1-0.5,0.3-0.6,0.5
			c-0.1,0.4,0.3,0.8,0.3,0.9l0.3,0.4l-0.5,0.1c0,0-0.4,0.1-0.6,0.5c-0.2,0.4-0.4,1.1,0.2,2.5c0,0,0.1,0.8,0.7,1.4
			c0.1-0.5,0.2-1.3,0.4-1.8c0.2-0.4,0.7-0.5,1.3-0.4c0.7,0.2,1.5,0.7,1.8,1.5c0.2-0.3,0.5-0.8,0.2-1.3l0.4-0.3
			c0.7,1.1-0.6,2.3-0.6,2.3l-0.4,0.4l0-0.6c0-0.9-0.8-1.4-1.5-1.6c-0.4-0.1-0.7,0-0.7,0.1c-0.3,0.7-0.5,2-0.5,2.1L14.5,51.8z"/>
		<path fill="#EDEDED" d="M15.3,44.7c0,0,1.2-0.2,2.3,0.7"/>
		<path fill="#3C3C3B" d="M17.5,45.6c-1-0.8-2.1-0.6-2.1-0.6l-0.1-0.5c0.1,0,1.3-0.2,2.5,0.7L17.5,45.6z"/>
		<path fill="#EDEDED" d="M15.1,46.8c0,0,1.9,0.1,3,2c0,0,1.9-0.8,0.9-1.6"/>
		<path fill="#3C3C3B" d="M18,49.1l-0.1-0.2c-1-1.7-2.8-1.8-2.8-1.8l0-0.5c0.1,0,1.9,0.1,3.1,1.9c0.4-0.2,0.8-0.5,0.8-0.8
			c0,0,0-0.2-0.2-0.4l0.3-0.4c0.4,0.3,0.4,0.6,0.4,0.8c-0.1,0.7-1.2,1.2-1.3,1.2L18,49.1z"/>
		<path fill="#EDEDED" d="M18.7,47.1c-0.8-0.1-1.5-0.1-1-1.8c0.5-1.6,0.5-2.2,1.3-2.1s1.4-0.3,0.8,2.3
			C19.5,46.6,19.5,47.2,18.7,47.1z"/>
		<path fill="#3C3C3B" d="M18.8,47.4c-0.1,0-0.1,0-0.2,0l-0.1,0c-0.4,0-0.9-0.1-1.1-0.5c-0.2-0.3-0.2-0.8,0-1.6l0.1-0.5
			c0.4-1.3,0.5-2,1.4-1.8c0.1,0,0.2,0,0.3,0c0.3,0,0.6,0,0.8,0.3c0.3,0.3,0.3,1,0,2.3l0,0.1C19.8,46.7,19.6,47.4,18.8,47.4z
			 M18.8,43.5c-0.3,0-0.4,0.3-0.7,1.5l-0.1,0.5c-0.2,0.6-0.2,1-0.1,1.2c0.1,0.2,0.4,0.2,0.8,0.2l0.1,0c0.5,0.1,0.6-0.2,0.8-1.2
			l0-0.1c0.3-1.3,0.2-1.8,0.1-1.9c-0.1-0.1-0.2-0.1-0.4-0.1c-0.1,0-0.2,0-0.3,0C18.8,43.5,18.8,43.5,18.8,43.5z"/>
		<path fill="#EDEDED" d="M33,100.5c-1.8,1.2-2,2.4-2,2.4c-0.1,1.6,1.5,1.5,1.5,1.5c0.1,1.5,1.6,0.9,1.6,0.9s-0.4,1.8,2.9,1.6
			c0,0,1.1,0.2,2-0.5c0,0-1.3-0.6-1.9-1.1c-0.6-0.5,0.7-2.6,2.3-2.1c0,0-0.6-1.4-1.7-1.2"/>
		<path fill="#3C3C3B" d="M37.3,107.3c-0.2,0-0.3,0-0.3,0c-1.3,0.1-2.3-0.2-2.8-0.8c-0.2-0.3-0.3-0.6-0.3-0.8c-0.3,0-0.7,0.1-1-0.1
			c-0.3-0.2-0.5-0.5-0.5-0.9c-0.3,0-0.8-0.2-1.1-0.5c-0.3-0.3-0.4-0.7-0.4-1.3c0-0.1,0.2-1.3,2.1-2.5l0.3,0.4
			c-1.7,1.1-1.9,2.2-1.9,2.2c0,0.4,0.1,0.7,0.3,0.9c0.4,0.4,1,0.4,1,0.4l0.2,0l0,0.2c0,0.4,0.1,0.6,0.3,0.7c0.4,0.2,0.9,0,0.9,0
			l0.4-0.2l-0.1,0.4c0,0-0.1,0.4,0.2,0.7c0.3,0.3,0.9,0.7,2.4,0.6c0,0,0.8,0.1,1.5-0.3c-0.4-0.2-1.1-0.6-1.5-1
			c-0.3-0.3-0.3-0.8,0-1.4c0.4-0.7,1.1-1.2,2-1.2c-0.2-0.3-0.7-0.7-1.2-0.6l-0.1-0.5c1.3-0.3,2,1.2,2,1.3l0.2,0.5l-0.5-0.2
			c-0.8-0.3-1.6,0.3-2,0.9c-0.2,0.4-0.2,0.7-0.1,0.7c0.6,0.5,1.8,1.1,1.8,1.1l0.4,0.2l-0.3,0.2C38.5,107.2,37.7,107.3,37.3,107.3z"
			/>
		<path fill="#EDEDED" d="M33,103.5c0,0,0.2-1.2,1.3-2"/>
		<path fill="#3C3C3B" d="M33.3,103.5l-0.5-0.1c0-0.1,0.2-1.3,1.4-2.2l0.3,0.4C33.4,102.4,33.3,103.5,33.3,103.5z"/>
		<path fill="#EDEDED" d="M34.9,104.4c0,0,0.7-1.8,2.8-2.3c0,0-0.2-2.1-1.3-1.3"/>
		<path fill="#3C3C3B" d="M35.2,104.4l-0.5-0.2c0-0.1,0.7-1.8,2.8-2.4c-0.1-0.4-0.2-0.9-0.5-1c0,0-0.2-0.1-0.4,0.1l-0.3-0.4
			c0.4-0.3,0.7-0.2,0.9-0.1c0.6,0.3,0.8,1.5,0.8,1.6l0,0.2l-0.2,0C35.8,102.8,35.2,104.4,35.2,104.4z"/>
		<path fill="#EDEDED" d="M36.4,101.1c-0.3,0.7-0.6,1.4-2,0.4c-1.4-0.9-2-1.2-1.6-1.9c0.3-0.7,0.1-1.4,2.5-0.1
			C36.1,100.1,36.7,100.3,36.4,101.1z"/>
		<path fill="#3C3C3B" d="M35.5,102.2c-0.3,0-0.7-0.2-1.3-0.5l-0.4-0.3c-1.1-0.7-1.7-1.1-1.3-1.9c0-0.1,0.1-0.2,0.1-0.3
			c0.1-0.3,0.3-0.7,0.8-0.7c0.4,0,1,0.2,1.9,0.8l0.1,0.1c0.8,0.5,1.5,0.9,1.1,1.8l0,0.1C36.3,101.7,36.1,102.2,35.5,102.2z
			 M33.4,99.1c-0.2,0-0.2,0-0.3,0.4c0,0.1-0.1,0.2-0.1,0.3c-0.2,0.4-0.1,0.5,1.1,1.3l0.4,0.3c0.4,0.3,0.8,0.4,1,0.4
			c0.3,0,0.4-0.2,0.6-0.7l0-0.1c0.2-0.4,0-0.6-0.9-1.1l-0.1-0.1C34.2,99.3,33.7,99.1,33.4,99.1z"/>
		<path fill="#EDEDED" d="M91.5,103.9c0.6,2.1,1.6,2.6,1.6,2.6c1.4,0.6,1.9-0.9,1.9-0.9c1.5,0.3,1.4-1.2,1.4-1.2s1.6,0.9,2.5-2.2
			c0,0,0.5-1,0.1-2.1c0,0-1,1-1.7,1.4c-0.7,0.4-2.2-1.5-1.3-2.9c0,0-1.5,0.2-1.6,1.3"/>
		<path fill="#3C3C3B" d="M93.8,106.9c-0.2,0-0.5-0.1-0.7-0.2c-0.1,0-1.2-0.6-1.8-2.8l0.5-0.1c0.5,1.9,1.5,2.4,1.5,2.4
			c0.3,0.1,0.6,0.1,0.9,0c0.5-0.2,0.7-0.8,0.7-0.8l0.1-0.2l0.2,0.1c0.3,0.1,0.6,0,0.8-0.1c0.3-0.3,0.3-0.8,0.3-0.8l0-0.5l0.4,0.2
			c0,0,0.4,0.2,0.8,0c0.4-0.2,0.9-0.7,1.3-2.1c0,0,0.3-0.7,0.2-1.5c-0.4,0.3-0.9,0.9-1.4,1.2c-0.4,0.2-0.9,0-1.3-0.4
			c-0.5-0.6-0.8-1.5-0.6-2.3c-0.4,0.1-0.9,0.4-0.9,0.9l-0.5,0c0.1-1.3,1.8-1.5,1.9-1.5l0.6-0.1l-0.3,0.5c-0.5,0.7-0.2,1.6,0.3,2.2
			c0.3,0.3,0.6,0.4,0.7,0.3c0.6-0.4,1.6-1.4,1.6-1.4l0.3-0.3l0.1,0.4c0.4,1.2-0.1,2.3-0.1,2.3c-0.4,1.3-0.9,2.1-1.6,2.4
			c-0.3,0.1-0.6,0.1-0.9,0.1c0,0.3-0.1,0.7-0.4,0.9c-0.3,0.2-0.6,0.3-1,0.2c-0.1,0.3-0.4,0.7-0.9,0.9
			C94.2,106.9,94,106.9,93.8,106.9z"/>
		<path fill="#EDEDED" d="M94.4,104.8c0,0-1.1-0.5-1.5-1.9"/>
		<path fill="#3C3C3B" d="M94.3,105c0,0-1.2-0.6-1.6-2l0.5-0.1c0.3,1.2,1.3,1.7,1.3,1.7L94.3,105z"/>
		<path fill="#EDEDED" d="M95.8,103.3c0,0-1.5-1.2-1.3-3.4c0,0-2-0.5-1.7,0.8"/>
		<path fill="#3C3C3B" d="M95.6,103.5c-0.1-0.1-1.5-1.2-1.4-3.4c-0.4-0.1-0.9-0.1-1.1,0.1c0,0-0.1,0.1,0,0.4l-0.5,0.1
			c-0.1-0.5,0-0.7,0.1-0.9c0.5-0.5,1.7-0.3,1.8-0.2l0.2,0l0,0.2c-0.2,2,1.1,3.1,1.2,3.1L95.6,103.5z"/>
		<path fill="#EDEDED" d="M93.1,100.9c0.6,0.5,1.1,1-0.2,2c-1.3,1.1-1.7,1.5-2.3,1c-0.5-0.5-1.3-0.5,0.7-2.4
			C92.1,100.8,92.5,100.4,93.1,100.9z"/>
		<path fill="#3C3C3B" d="M91.1,104.4c-0.2,0-0.4-0.1-0.6-0.3c-0.1-0.1-0.1-0.1-0.2-0.2c-0.2-0.2-0.5-0.4-0.5-0.7
			c0-0.4,0.4-1,1.4-1.9l0.1-0.1c0.5-0.5,0.9-0.8,1.4-0.8c0.2,0,0.5,0.1,0.7,0.3l0.1,0.1c0.3,0.3,0.7,0.6,0.7,1
			c0,0.4-0.3,0.8-0.9,1.3l-0.4,0.3C91.9,104,91.5,104.4,91.1,104.4z M92.6,100.9c-0.3,0-0.6,0.3-1,0.7l-0.1,0.1
			c-1,0.9-1.2,1.3-1.2,1.5c0,0.1,0.1,0.2,0.3,0.3c0.1,0.1,0.2,0.1,0.3,0.2c0.1,0.1,0.2,0.1,0.3,0.1c0.2,0,0.7-0.3,1.3-0.8l0.4-0.3
			c0.5-0.4,0.7-0.7,0.7-0.9c0-0.2-0.2-0.4-0.5-0.7l-0.1-0.1C92.8,100.9,92.7,100.9,92.6,100.9z"/>
		<path fill="#EDEDED" d="M112.9,49.3c2.1,0.1,3-0.7,3-0.7c1-1.2-0.3-2.1-0.3-2.1c0.8-1.3-0.7-1.7-0.7-1.7s1.3-1.2-1.4-3
			c0,0-0.8-0.8-2-0.8c0,0,0.7,1.2,0.9,2c0.2,0.8-2.1,1.7-3.1,0.3c0,0-0.3,1.5,0.7,2"/>
		<path fill="#3C3C3B" d="M113.2,49.6c-0.1,0-0.2,0-0.3,0l0-0.5c2,0.1,2.8-0.7,2.8-0.7c0.2-0.3,0.3-0.6,0.3-0.9
			c-0.1-0.5-0.6-0.9-0.6-0.9l-0.2-0.1l0.1-0.2c0.2-0.3,0.2-0.6,0.1-0.8c-0.2-0.4-0.7-0.5-0.7-0.5l-0.4-0.1l0.3-0.3
			c0,0,0.3-0.3,0.2-0.7c0-0.4-0.3-1.1-1.6-1.9c0,0-0.6-0.6-1.4-0.7c0.2,0.4,0.6,1.2,0.7,1.7c0.1,0.4-0.2,0.8-0.8,1.1
			c-0.7,0.3-1.6,0.3-2.3-0.2c0,0.4,0.1,1,0.6,1.2l-0.2,0.5c-1.2-0.5-0.9-2.2-0.9-2.2l0.1-0.6l0.3,0.5c0.5,0.7,1.5,0.7,2.1,0.4
			c0.4-0.2,0.6-0.4,0.5-0.5c-0.2-0.7-0.8-1.9-0.8-1.9l-0.2-0.4l0.4,0c0,0,0,0,0.1,0c1.2,0,2,0.8,2.1,0.8c1.1,0.7,1.7,1.5,1.8,2.3
			c0,0.4-0.1,0.6-0.2,0.8c0.2,0.1,0.6,0.3,0.7,0.7c0.1,0.3,0.1,0.7-0.1,1c0.2,0.2,0.5,0.6,0.6,1.1c0.1,0.4-0.1,0.9-0.4,1.3
			C116,48.8,115.2,49.6,113.2,49.6z"/>
		<path fill="#EDEDED" d="M114.6,46.9c0,0-0.8,0.9-2.2,0.8"/>
		<path fill="#3C3C3B" d="M112.5,48c-0.1,0-0.1,0-0.2,0l0-0.5c1.2,0.1,2-0.7,2-0.7l0.4,0.3C114.7,47.1,113.9,48,112.5,48z"/>
		<path fill="#EDEDED" d="M113.6,45.1c0,0-1.6,1-3.6,0.2c0,0-1.1,1.8,0.3,1.8"/>
		<path fill="#3C3C3B" d="M110.2,47.3c-0.5,0-0.7-0.2-0.8-0.4c-0.3-0.6,0.3-1.7,0.3-1.8l0.1-0.2l0.2,0.1c1.9,0.8,3.3-0.1,3.4-0.2
			l0.3,0.4c-0.1,0-1.6,1-3.6,0.3c-0.2,0.4-0.3,0.9-0.2,1.1c0,0,0.1,0.1,0.4,0.2L110.2,47.3z"/>
		<path fill="#EDEDED" d="M110.5,46.9c0.7-0.4,1.3-0.8,1.9,0.8c0.6,1.6,0.9,2.1,0.2,2.5c-0.7,0.4-0.9,1.1-2-1.4
			C110.1,47.8,109.8,47.3,110.5,46.9z"/>
		<path fill="#3C3C3B" d="M111.8,50.8c-0.5,0-0.9-0.5-1.5-1.9l-0.1-0.1c-0.4-0.9-0.7-1.6,0.1-2.1l0.1,0c0.3-0.2,0.6-0.3,0.9-0.3
			c0.5,0,0.9,0.4,1.2,1.3l0.2,0.5c0.5,1.3,0.7,1.9-0.1,2.3c-0.1,0-0.2,0.1-0.2,0.2C112.3,50.7,112.1,50.8,111.8,50.8z M111.3,46.8
			c-0.2,0-0.4,0.1-0.7,0.3l-0.1,0c-0.4,0.2-0.4,0.5,0.1,1.5l0.1,0.1c0.6,1.3,0.9,1.6,1.1,1.6c0.1,0,0.2-0.1,0.3-0.2
			c0.1-0.1,0.2-0.1,0.3-0.2c0.3-0.2,0.3-0.4-0.2-1.7l-0.2-0.5C111.7,46.8,111.4,46.8,111.3,46.8z"/>
		<path fill="#EDEDED" d="M67.5,12.1c0.8-2,0.2-3.1,0.2-3.1c-0.8-1.3-2.1-0.4-2.1-0.4c-1-1.1-1.8,0.2-1.8,0.2s-0.8-1.7-3.3,0.4
			c0,0-1,0.5-1.3,1.6c0,0,1.4-0.3,2.2-0.2s0.9,2.5-0.7,3.1c0,0,1.3,0.8,2.1-0.1"/>
		<path fill="#3C3C3B" d="M61.8,14.3c-0.7,0-1.2-0.3-1.3-0.4l-0.5-0.3l0.5-0.2c0.8-0.3,1.1-1.2,1.1-1.9c0-0.4-0.2-0.7-0.3-0.7
			c-0.7-0.1-2.1,0.2-2.1,0.2l-0.4,0.1l0.1-0.4C59.3,9.6,60.3,9,60.4,9c1-0.8,2-1.2,2.7-1c0.3,0.1,0.6,0.3,0.7,0.4
			C64,8.2,64.3,8,64.7,8c0.3,0,0.7,0.1,1,0.4c0.2-0.1,0.7-0.3,1.2-0.2c0.4,0.1,0.8,0.4,1.1,0.8c0,0.1,0.6,1.2-0.2,3.3L67.3,12
			c0.7-1.9,0.2-2.8,0.2-2.9c-0.2-0.3-0.4-0.5-0.7-0.6c-0.5-0.1-1,0.3-1,0.3L65.6,9l-0.2-0.2c-0.2-0.3-0.4-0.4-0.7-0.4
			C64.3,8.5,64,9,64,9l-0.2,0.4l-0.2-0.4c0,0-0.2-0.4-0.6-0.5c-0.4-0.1-1.1,0-2.3,0.9c0,0-0.7,0.4-1.1,1.1c0.5-0.1,1.3-0.2,1.8-0.1
			c0.4,0,0.7,0.5,0.8,1.1c0.1,0.8-0.2,1.7-0.9,2.2c0.4,0.1,1,0.2,1.3-0.2l0.4,0.3C62.6,14.2,62.2,14.3,61.8,14.3z"/>
		<path fill="#EDEDED" d="M65.7,9.8c0,0,0.6,1.1,0.1,2.4"/>
		<path fill="#3C3C3B" d="M66.1,12.2l-0.5-0.2c0.5-1.2-0.1-2.2-0.1-2.2L66,9.6C66,9.7,66.6,10.8,66.1,12.2z"/>
		<path fill="#EDEDED" d="M63.7,10.2c0,0,0.5,1.8-0.9,3.5c0,0,1.4,1.6,1.8,0.3"/>
		<path fill="#3C3C3B" d="M64,14.7c-0.7,0-1.4-0.8-1.5-0.9l-0.1-0.2l0.1-0.2c1.3-1.5,0.9-3.2,0.9-3.2l0.5-0.1c0,0.1,0.5,1.9-0.8,3.5
			c0.3,0.3,0.7,0.6,1,0.6c0,0,0.2,0,0.3-0.3l0.5,0.2c-0.2,0.5-0.4,0.6-0.6,0.6C64.1,14.7,64.1,14.7,64,14.7z"/>
		<path fill="#EDEDED" d="M64.5,13.7c-0.2-0.8-0.4-1.4,1.4-1.5c1.7-0.1,2.3-0.2,2.4,0.5c0.1,0.7,0.7,1.2-1.9,1.5
			C65.3,14.3,64.6,14.4,64.5,13.7z"/>
		<path fill="#3C3C3B" d="M65.4,14.5c-0.4,0-1-0.1-1.1-0.8l0-0.1c-0.1-0.4-0.2-0.9,0.1-1.2c0.2-0.3,0.7-0.5,1.5-0.5l0.5,0
			c0.3,0,0.6,0,0.9,0c0.6,0,1.2,0.1,1.3,0.8c0,0.1,0,0.2,0.1,0.3c0.1,0.3,0.2,0.6,0,0.8c-0.2,0.4-0.9,0.6-2.2,0.7l-0.1,0
			C65.9,14.5,65.6,14.5,65.4,14.5z M67.2,12.3c-0.2,0-0.5,0-0.8,0l-0.5,0c-0.6,0-1,0.1-1.1,0.3c-0.1,0.2-0.1,0.5,0,0.8l0,0.1
			c0.1,0.3,0.2,0.4,0.6,0.4c0.2,0,0.5,0,0.8-0.1l0.1,0c1.4-0.2,1.8-0.4,1.8-0.5c0.1-0.1,0-0.2,0-0.4c0-0.1-0.1-0.2-0.1-0.3
			C68,12.5,67.9,12.3,67.2,12.3z"/>
	</g>
</g>
</svg>
