<?xml version="1.0" encoding="utf-8"?>
<!-- Generator: Adobe Illustrator 18.0.0, SVG Export Plug-In . SVG Version: 6.00 Build 0)  -->
<!DOCTYPE svg PUBLIC "-//W3C//DTD SVG 1.1//EN" "http://www.w3.org/Graphics/SVG/1.1/DTD/svg11.dtd">
<svg version="1.1" id="Calque_1" xmlns="http://www.w3.org/2000/svg" xmlns:xlink="http://www.w3.org/1999/xlink" x="0px" y="0px"
	 viewBox="0 0 130 124.4" enable-background="new 0 0 130 124.4" xml:space="preserve">
<g>
	<path fill="#EDEDED" d="M65,21.7L65,21.7C65,21.7,64.9,21.7,65,21.7c-0.1,0-0.1,0-0.2,0v0c-25.2,0.1-44.1,21.7-32.5,47.7
		c11.6,26.1,26.9,35.4,32.5,35.4c5.6,0,21-9.3,32.7-35.4C109.1,43.4,90.1,21.8,65,21.7z"/>
	<path fill="#3C3C3B" d="M64.8,105c-5.3,0-20.9-8.9-32.7-35.5C27,58,27.4,46.6,33.4,37.3c6.4-9.8,18-15.8,31.1-15.9v0l0.2,0l0.3,0
		c13.2,0.1,24.9,6,31.2,15.9c6,9.3,6.5,20.7,1.3,32.2C85.9,96.1,70.2,105,64.8,105z M64.8,21.9L64.8,21.9
		c-13.1,0.1-24.7,5.9-31,15.7C28,46.7,27.5,58,32.5,69.3c11.8,26.3,27.1,35.2,32.3,35.2c5.2,0,20.7-8.9,32.4-35.2
		c5-11.3,4.6-22.6-1.3-31.7C89.7,27.9,78.1,22,65,21.9L64.8,21.9z"/>
	<path fill="#3C3C3B" d="M63,73c0,0-2.6-23.7-18-20.5C34.3,54.8,31.3,76.7,63,73z"/>
	<path fill="#3C3C3B" d="M66.7,73c0,0,2.6-23.7,18-20.5C95.4,54.8,98.3,76.7,66.7,73z"/>
	<ellipse fill="#3C3C3B" cx="64.8" cy="91.7" rx="1.5" ry="2.1"/>
	<path fill="#3C3C3B" d="M68.1,78.7c0,0,0,0.3-0.2,0.6c-0.2,0.3-0.4,0.7-0.7,0.9c-0.3,0.3-0.7,0.5-1,0.6c-0.3,0.1-0.6,0.1-0.6,0.1
		s0-0.3,0.2-0.6c0.2-0.3,0.4-0.7,0.7-0.9c0.3-0.3,0.7-0.5,1-0.6C67.8,78.7,68.1,78.7,68.1,78.7z"/>
	<path fill="#3C3C3B" d="M61.6,78.7c0,0,0.3,0,0.6,0.1c0.3,0.1,0.7,0.3,1,0.6c0.3,0.3,0.6,0.6,0.7,0.9c0.2,0.3,0.2,0.6,0.2,0.6
		s-0.3,0-0.6-0.1c-0.3-0.1-0.7-0.3-1-0.6c-0.3-0.3-0.6-0.6-0.7-0.9C61.6,79,61.6,78.7,61.6,78.7z"/>
	<path fill="#EDEDED" d="M73.2,114.1c-28,4.5-54.4-14.6-58.9-42.6c-4.5-28,14.6-54.4,42.6-58.9s54.4,14.6,58.9,42.6
		C120.3,83.2,101.2,109.6,73.2,114.1z M57.4,15.6C31.1,19.8,13.1,44.7,17.3,71c4.2,26.3,29.1,44.3,55.5,40.1
		c26.4-4.2,44.3-29.1,40.1-55.5C108.6,29.3,83.8,11.3,57.4,15.6z"/>
	<path fill="#3C3C3B" d="M65,115c-12.1,0-24-4.3-33.3-12.2c-9.4-8-15.7-19.1-17.7-31.2C9.6,43.4,28.8,16.9,56.9,12.4
		c2.7-0.4,5.5-0.7,8.2-0.7c12.1,0,24,4.3,33.3,12.2c9.4,8,15.7,19.1,17.7,31.2c4.5,28.1-14.7,54.7-42.8,59.2
		C70.5,114.8,67.8,115,65,115z M65.1,12.2c-2.7,0-5.4,0.2-8.1,0.7C43.5,15,31.7,22.3,23.6,33.4c-8,11.1-11.2,24.6-9.1,38.1
		c1.9,12.1,8.1,23.1,17.5,30.9c9.2,7.8,21,12.1,33,12.1c2.7,0,5.4-0.2,8.1-0.7c13.5-2.2,25.3-9.5,33.3-20.5
		c8-11.1,11.2-24.6,9.1-38.1c-1.9-12.1-8.1-23.1-17.5-30.9C88.8,16.5,77.1,12.2,65.1,12.2z M65,112C65,112,65,112,65,112
		c-11.4,0-22.6-4.1-31.4-11.5C24.8,93,18.9,82.5,17,71.1c-4.2-26.5,13.8-51.5,40.3-55.7c2.6-0.4,5.2-0.6,7.7-0.6
		c11.4,0,22.6,4.1,31.4,11.5c8.9,7.5,14.8,18,16.6,29.4c2.1,12.8-1,25.7-8.6,36.2c-7.6,10.5-18.9,17.5-31.7,19.5
		C70.2,111.8,67.6,112,65,112z M65.1,15.2c-2.5,0-5.1,0.2-7.7,0.6C31.2,20,13.3,44.8,17.5,71c1.8,11.4,7.7,21.7,16.5,29.1
		c8.7,7.3,19.7,11.4,31,11.4c0,0,0,0,0,0c2.5,0,5.1-0.2,7.6-0.6c12.7-2,23.8-8.9,31.4-19.3s10.6-23.2,8.5-35.8
		c-1.8-11.4-7.7-21.7-16.5-29.1C87.4,19.3,76.4,15.2,65.1,15.2z"/>
	<path fill="#EDEDED" d="M18.6,45.2c-1.7-1.3-2.8-1.1-2.8-1.1c-1.5,0.4-1,1.9-1,1.9c-1.4,0.6-0.4,1.8-0.4,1.8s-1.8,0.2-0.7,3.3
		c0,0,0.2,1.1,1.1,1.8c0,0,0.2-1.4,0.5-2.1c0.3-0.7,2.7-0.1,2.7,1.6c0,0,1.2-1,0.6-2"/>
	<path fill="#3C3C3B" d="M15,53.2L14.7,53c-1-0.7-1.2-1.9-1.2-1.9c-0.5-1.2-0.5-2.2-0.1-2.9c0.2-0.3,0.4-0.5,0.6-0.6
		c-0.1-0.2-0.3-0.6-0.2-1c0.1-0.3,0.3-0.6,0.7-0.8c-0.1-0.3-0.1-0.8,0.2-1.2c0.2-0.4,0.6-0.6,1.1-0.8c0.1,0,1.3-0.2,3.1,1.2
		l-0.3,0.4c-1.5-1.2-2.6-1.1-2.6-1.1c-0.3,0.1-0.6,0.3-0.8,0.5c-0.3,0.5-0.1,1-0.1,1l0.1,0.2l-0.2,0.1c-0.3,0.1-0.5,0.3-0.6,0.5
		c-0.1,0.4,0.3,0.8,0.3,0.9l0.3,0.4L14.4,48c0,0-0.4,0.1-0.6,0.5c-0.2,0.4-0.4,1.1,0.2,2.5c0,0,0.1,0.8,0.7,1.4
		c0.1-0.5,0.2-1.3,0.4-1.8c0.2-0.4,0.7-0.5,1.3-0.4c0.7,0.2,1.5,0.7,1.8,1.5c0.2-0.3,0.5-0.8,0.2-1.3l0.4-0.3
		c0.7,1.1-0.6,2.3-0.6,2.3l-0.4,0.4l0-0.6c0-0.9-0.8-1.4-1.5-1.6c-0.4-0.1-0.7,0-0.7,0.1c-0.3,0.7-0.5,2-0.5,2.1L15,53.2z"/>
	<path fill="#EDEDED" d="M15.8,46.2c0,0,1.2-0.2,2.3,0.7"/>
	<path fill="#3C3C3B" d="M17.9,47c-1-0.8-2.1-0.6-2.1-0.6l-0.1-0.5c0.1,0,1.3-0.2,2.5,0.7L17.9,47z"/>
	<path fill="#EDEDED" d="M15.5,48.2c0,0,1.9,0.1,3,2c0,0,1.9-0.8,0.9-1.6"/>
	<path fill="#3C3C3B" d="M18.5,50.5l-0.1-0.2c-1-1.7-2.8-1.8-2.8-1.8l0-0.5c0.1,0,1.9,0.1,3.1,1.9c0.4-0.2,0.8-0.5,0.8-0.8
		c0,0,0-0.2-0.2-0.4l0.3-0.4C20,48.7,20,49,20,49.2c-0.1,0.7-1.2,1.2-1.3,1.2L18.5,50.5z"/>
	<path fill="#EDEDED" d="M19.1,48.6c-0.8-0.1-1.5-0.1-1-1.8c0.5-1.6,0.5-2.2,1.3-2.1c0.7,0.1,1.4-0.3,0.8,2.3
		C20,48,19.9,48.7,19.1,48.6z"/>
	<path fill="#3C3C3B" d="M19.2,48.8c-0.1,0-0.1,0-0.2,0l-0.1,0c-0.4,0-0.9-0.1-1.1-0.5c-0.2-0.3-0.2-0.8,0-1.6l0.1-0.5
		c0.4-1.3,0.5-2,1.4-1.8c0.1,0,0.2,0,0.3,0c0.3,0,0.6,0,0.8,0.3c0.3,0.3,0.3,1,0,2.3l0,0.1C20.2,48.1,20.1,48.8,19.2,48.8z
		 M19.2,44.9c-0.3,0-0.4,0.3-0.7,1.5l-0.1,0.5c-0.2,0.6-0.2,1-0.1,1.2c0.1,0.2,0.4,0.2,0.8,0.2l0.1,0c0.5,0.1,0.6-0.2,0.8-1.2l0-0.1
		c0.3-1.3,0.2-1.8,0.1-1.9C20,45,19.9,45,19.7,45c-0.1,0-0.2,0-0.3,0C19.3,44.9,19.3,44.9,19.2,44.9z"/>
	<path fill="#EDEDED" d="M33.4,101.9c-1.8,1.2-2,2.4-2,2.4c-0.1,1.6,1.5,1.5,1.5,1.5c0.1,1.5,1.6,0.9,1.6,0.9s-0.4,1.8,2.9,1.6
		c0,0,1.1,0.2,2-0.5c0,0-1.3-0.6-1.9-1.1c-0.6-0.5,0.7-2.6,2.3-2.1c0,0-0.6-1.4-1.7-1.2"/>
	<path fill="#3C3C3B" d="M37.7,108.7c-0.2,0-0.3,0-0.3,0c-1.3,0.1-2.3-0.2-2.8-0.8c-0.2-0.3-0.3-0.6-0.3-0.8c-0.3,0-0.7,0.1-1-0.1
		c-0.3-0.2-0.5-0.5-0.5-0.9c-0.3,0-0.8-0.2-1.1-0.5c-0.3-0.3-0.4-0.7-0.4-1.3c0-0.1,0.2-1.3,2.1-2.5l0.3,0.4
		c-1.7,1.1-1.9,2.2-1.9,2.2c0,0.4,0.1,0.7,0.3,0.9c0.4,0.4,1,0.4,1,0.4l0.2,0l0,0.2c0,0.4,0.1,0.6,0.3,0.7c0.4,0.2,0.9,0,0.9,0
		l0.4-0.2l-0.1,0.4c0,0-0.1,0.4,0.2,0.7c0.3,0.3,0.9,0.7,2.4,0.6c0,0,0.8,0.1,1.5-0.3c-0.4-0.2-1.1-0.6-1.5-1
		c-0.3-0.3-0.3-0.8,0-1.4c0.4-0.7,1.1-1.2,2-1.2c-0.2-0.3-0.7-0.7-1.2-0.6l-0.1-0.5c1.3-0.3,2,1.2,2,1.3l0.2,0.5l-0.5-0.2
		c-0.8-0.3-1.6,0.3-2,0.9c-0.2,0.4-0.2,0.7-0.1,0.7c0.6,0.5,1.8,1.1,1.8,1.1l0.4,0.2l-0.3,0.2C38.9,108.6,38.2,108.7,37.7,108.7z"/>
	<path fill="#EDEDED" d="M33.5,104.9c0,0,0.2-1.2,1.3-2"/>
	<path fill="#3C3C3B" d="M33.7,104.9l-0.5-0.1c0-0.1,0.2-1.3,1.4-2.2l0.3,0.4C33.9,103.8,33.7,104.9,33.7,104.9z"/>
	<path fill="#EDEDED" d="M35.4,105.8c0,0,0.7-1.8,2.8-2.3c0,0-0.2-2.1-1.3-1.3"/>
	<path fill="#3C3C3B" d="M35.6,105.9l-0.5-0.2c0-0.1,0.7-1.8,2.8-2.4c-0.1-0.4-0.2-0.9-0.5-1c0,0-0.2-0.1-0.4,0.1l-0.3-0.4
		c0.4-0.3,0.7-0.2,0.9-0.1c0.6,0.3,0.8,1.5,0.8,1.6l0,0.2l-0.2,0C36.3,104.2,35.6,105.8,35.6,105.9z"/>
	<path fill="#EDEDED" d="M36.8,102.5c-0.3,0.7-0.6,1.4-2,0.4c-1.4-0.9-2-1.2-1.6-1.9c0.3-0.7,0.1-1.4,2.5-0.1
		C36.6,101.5,37.1,101.8,36.8,102.5z"/>
	<path fill="#3C3C3B" d="M36,103.6c-0.3,0-0.7-0.2-1.3-0.5l-0.4-0.3c-1.1-0.7-1.7-1.1-1.3-1.9c0-0.1,0.1-0.2,0.1-0.3
		c0.1-0.3,0.3-0.7,0.8-0.7c0.4,0,1,0.2,1.9,0.8l0.1,0.1c0.8,0.5,1.5,0.9,1.1,1.8l0,0.1C36.8,103.1,36.6,103.6,36,103.6z M33.9,100.5
		c-0.2,0-0.2,0-0.3,0.4c0,0.1-0.1,0.2-0.1,0.3c-0.2,0.4-0.1,0.5,1.1,1.3l0.4,0.3c0.4,0.3,0.8,0.4,1,0.4c0.3,0,0.4-0.2,0.6-0.7l0-0.1
		c0.2-0.4,0-0.6-0.9-1.1l-0.1-0.1C34.7,100.7,34.1,100.5,33.9,100.5z"/>
	<path fill="#EDEDED" d="M92,105.4c0.6,2.1,1.6,2.6,1.6,2.6c1.4,0.6,1.9-0.9,1.9-0.9c1.5,0.3,1.4-1.2,1.4-1.2s1.6,0.9,2.5-2.2
		c0,0,0.5-1,0.1-2.1c0,0-1,1-1.7,1.4c-0.7,0.4-2.2-1.5-1.3-2.9c0,0-1.5,0.2-1.6,1.3"/>
	<path fill="#3C3C3B" d="M94.3,108.4c-0.2,0-0.5-0.1-0.7-0.2c-0.1,0-1.2-0.6-1.8-2.8l0.5-0.1c0.5,1.9,1.5,2.4,1.5,2.4
		c0.3,0.1,0.6,0.1,0.9,0c0.5-0.2,0.7-0.8,0.7-0.8l0.1-0.2l0.2,0.1c0.3,0.1,0.6,0,0.8-0.1c0.3-0.3,0.3-0.8,0.3-0.8l0-0.5l0.4,0.2
		c0,0,0.4,0.2,0.8,0c0.4-0.2,0.9-0.7,1.3-2.1c0,0,0.3-0.7,0.2-1.5c-0.4,0.3-0.9,0.9-1.4,1.2c-0.4,0.2-0.9,0-1.3-0.4
		c-0.5-0.6-0.8-1.5-0.6-2.3c-0.4,0.1-0.9,0.4-0.9,0.9l-0.5,0c0.1-1.3,1.8-1.5,1.9-1.5l0.6-0.1l-0.3,0.5c-0.5,0.7-0.2,1.6,0.3,2.2
		c0.3,0.3,0.6,0.4,0.7,0.3c0.6-0.4,1.6-1.4,1.6-1.4l0.3-0.3l0.1,0.4c0.4,1.2-0.1,2.3-0.1,2.3c-0.4,1.3-0.9,2.1-1.6,2.4
		c-0.3,0.1-0.6,0.1-0.9,0.1c0,0.3-0.1,0.7-0.4,0.9c-0.3,0.2-0.6,0.3-1,0.2c-0.1,0.3-0.4,0.7-0.9,0.9
		C94.7,108.3,94.5,108.4,94.3,108.4z"/>
	<path fill="#EDEDED" d="M94.8,106.2c0,0-1.1-0.5-1.5-1.9"/>
	<path fill="#3C3C3B" d="M94.7,106.5c0,0-1.2-0.6-1.6-2l0.5-0.1c0.3,1.2,1.3,1.7,1.3,1.7L94.7,106.5z"/>
	<path fill="#EDEDED" d="M96.2,104.7c0,0-1.5-1.2-1.3-3.4c0,0-2-0.5-1.7,0.8"/>
	<path fill="#3C3C3B" d="M96.1,104.9c-0.1-0.1-1.5-1.2-1.4-3.4c-0.4-0.1-0.9-0.1-1.1,0.1c0,0-0.1,0.1,0,0.4l-0.5,0.1
		c-0.1-0.5,0-0.7,0.1-0.9c0.5-0.5,1.7-0.3,1.8-0.2l0.2,0l0,0.2c-0.2,2,1.1,3.1,1.2,3.1L96.1,104.9z"/>
	<path fill="#EDEDED" d="M93.6,102.3c0.6,0.5,1.1,1-0.2,2c-1.3,1.1-1.7,1.5-2.3,1c-0.5-0.5-1.3-0.5,0.7-2.4
		C92.5,102.2,93,101.8,93.6,102.3z"/>
	<path fill="#3C3C3B" d="M91.5,105.8c-0.2,0-0.4-0.1-0.6-0.3c-0.1-0.1-0.1-0.1-0.2-0.2c-0.2-0.2-0.5-0.4-0.5-0.7
		c0-0.4,0.4-1,1.4-1.9l0.1-0.1c0.5-0.5,0.9-0.8,1.4-0.8c0.2,0,0.5,0.1,0.7,0.3l0.1,0.1c0.3,0.3,0.7,0.6,0.7,1c0,0.4-0.3,0.8-0.9,1.3
		l-0.4,0.3C92.4,105.5,91.9,105.8,91.5,105.8z M93,102.3c-0.3,0-0.6,0.3-1,0.7l-0.1,0.1c-1,0.9-1.2,1.3-1.2,1.5
		c0,0.1,0.1,0.2,0.3,0.3c0.1,0.1,0.2,0.1,0.3,0.2c0.1,0.1,0.2,0.1,0.3,0.1c0.2,0,0.7-0.3,1.3-0.8l0.4-0.3c0.5-0.4,0.7-0.7,0.7-0.9
		c0-0.2-0.2-0.4-0.5-0.7l-0.1-0.1C93.2,102.4,93.1,102.3,93,102.3z"/>
	<path fill="#EDEDED" d="M113.4,50.7c2.1,0.1,3-0.7,3-0.7c1-1.2-0.3-2.1-0.3-2.1c0.8-1.3-0.7-1.7-0.7-1.7s1.3-1.2-1.4-3
		c0,0-0.8-0.8-2-0.8c0,0,0.7,1.2,0.9,2c0.2,0.8-2.1,1.7-3.1,0.3c0,0-0.3,1.5,0.7,2"/>
	<path fill="#3C3C3B" d="M113.7,51c-0.1,0-0.2,0-0.3,0l0-0.5c2,0.1,2.8-0.7,2.8-0.7c0.2-0.3,0.3-0.6,0.3-0.9
		c-0.1-0.5-0.6-0.9-0.6-0.9l-0.2-0.1l0.1-0.2c0.2-0.3,0.2-0.6,0.1-0.8c-0.2-0.4-0.7-0.5-0.7-0.5l-0.4-0.1l0.3-0.3
		c0,0,0.3-0.3,0.2-0.7c0-0.4-0.3-1.1-1.6-1.9c0,0-0.6-0.6-1.4-0.7c0.2,0.4,0.6,1.2,0.7,1.7c0.1,0.4-0.2,0.8-0.8,1.1
		c-0.7,0.3-1.6,0.3-2.3-0.2c0,0.4,0.1,1,0.6,1.2l-0.2,0.5c-1.2-0.5-0.9-2.2-0.9-2.2l0.1-0.6l0.3,0.5c0.5,0.7,1.5,0.7,2.1,0.4
		c0.4-0.2,0.6-0.4,0.5-0.5c-0.2-0.7-0.8-1.9-0.8-1.9l-0.2-0.4l0.4,0c0,0,0,0,0.1,0c1.2,0,2,0.8,2.1,0.8c1.1,0.7,1.7,1.5,1.8,2.3
		c0,0.4-0.1,0.6-0.2,0.8c0.2,0.1,0.6,0.3,0.7,0.7c0.1,0.3,0.1,0.7-0.1,1c0.2,0.2,0.5,0.6,0.6,1.1c0.1,0.4-0.1,0.9-0.4,1.3
		C116.5,50.2,115.7,51,113.7,51z"/>
	<path fill="#EDEDED" d="M115,48.3c0,0-0.8,0.9-2.2,0.8"/>
	<path fill="#3C3C3B" d="M113,49.4c-0.1,0-0.1,0-0.2,0l0-0.5c1.2,0.1,2-0.7,2-0.7l0.4,0.3C115.2,48.5,114.4,49.4,113,49.4z"/>
	<path fill="#EDEDED" d="M114,46.5c0,0-1.6,1-3.6,0.2c0,0-1.1,1.8,0.3,1.8"/>
	<path fill="#3C3C3B" d="M110.7,48.7c-0.5,0-0.7-0.2-0.8-0.4c-0.3-0.6,0.3-1.7,0.3-1.8l0.1-0.2l0.2,0.1c1.9,0.8,3.3-0.1,3.4-0.2
		l0.3,0.4c-0.1,0-1.6,1-3.6,0.3c-0.2,0.4-0.3,0.9-0.2,1.1c0,0,0.1,0.1,0.4,0.2L110.7,48.7z"/>
	<path fill="#EDEDED" d="M110.9,48.3c0.7-0.4,1.3-0.8,1.9,0.8c0.6,1.6,0.9,2.1,0.2,2.5c-0.7,0.4-0.9,1.1-2-1.4
		C110.5,49.3,110.2,48.7,110.9,48.3z"/>
	<path fill="#3C3C3B" d="M112.3,52.2c-0.5,0-0.9-0.5-1.5-1.9l-0.1-0.1c-0.4-0.9-0.7-1.6,0.1-2.1l0.1,0c0.3-0.2,0.6-0.3,0.9-0.3
		c0.5,0,0.9,0.4,1.2,1.3l0.2,0.5c0.5,1.3,0.7,1.9-0.1,2.3c-0.1,0-0.2,0.1-0.2,0.2C112.7,52.1,112.5,52.2,112.3,52.2z M111.8,48.2
		c-0.2,0-0.4,0.1-0.7,0.3l-0.1,0c-0.4,0.2-0.4,0.5,0.1,1.5l0.1,0.1c0.6,1.3,0.9,1.6,1.1,1.6c0.1,0,0.2-0.1,0.3-0.2
		c0.1-0.1,0.2-0.1,0.3-0.2c0.3-0.2,0.3-0.4-0.2-1.7l-0.2-0.5C112.2,48.2,111.9,48.2,111.8,48.2z"/>
	<path fill="#EDEDED" d="M68,13.5c0.8-2,0.2-3.1,0.2-3.1c-0.8-1.3-2.1-0.4-2.1-0.4c-1-1.1-1.8,0.2-1.8,0.2s-0.8-1.7-3.3,0.4
		c0,0-1,0.5-1.3,1.6c0,0,1.4-0.3,2.2-0.2c0.8,0.1,0.9,2.5-0.7,3.1c0,0,1.3,0.8,2.1-0.1"/>
	<path fill="#3C3C3B" d="M62.3,15.7c-0.7,0-1.2-0.3-1.3-0.4l-0.5-0.3l0.5-0.2c0.8-0.3,1.1-1.2,1.1-1.9c0-0.4-0.2-0.7-0.3-0.7
		c-0.7-0.1-2.1,0.2-2.1,0.2l-0.4,0.1l0.1-0.4c0.4-1.2,1.4-1.8,1.5-1.8c1-0.8,2-1.2,2.7-1c0.3,0.1,0.6,0.3,0.7,0.4
		c0.2-0.2,0.5-0.4,0.9-0.5c0.3,0,0.7,0.1,1,0.4c0.2-0.1,0.7-0.3,1.2-0.2c0.4,0.1,0.8,0.4,1.1,0.8c0,0.1,0.6,1.2-0.2,3.3l-0.5-0.2
		c0.7-1.9,0.2-2.8,0.2-2.9c-0.2-0.3-0.4-0.5-0.7-0.6c-0.5-0.1-1,0.3-1,0.3L66,10.4l-0.2-0.2c-0.2-0.3-0.4-0.4-0.7-0.4
		c-0.4,0-0.7,0.5-0.7,0.5l-0.2,0.4L64,10.4c0,0-0.2-0.4-0.6-0.5c-0.4-0.1-1.1,0-2.3,0.9c0,0-0.7,0.4-1.1,1.1
		c0.5-0.1,1.3-0.2,1.8-0.1c0.4,0,0.7,0.5,0.8,1.1c0.1,0.8-0.2,1.7-0.9,2.2c0.4,0.1,1,0.2,1.3-0.2l0.4,0.3
		C63.1,15.6,62.7,15.7,62.3,15.7z"/>
	<path fill="#EDEDED" d="M66.2,11.2c0,0,0.6,1.1,0.1,2.4"/>
	<path fill="#3C3C3B" d="M66.5,13.7L66,13.5c0.5-1.2-0.1-2.2-0.1-2.2l0.4-0.2C66.4,11.1,67.1,12.3,66.5,13.7z"/>
	<path fill="#EDEDED" d="M64.2,11.6c0,0,0.5,1.8-0.9,3.5c0,0,1.4,1.6,1.8,0.3"/>
	<path fill="#3C3C3B" d="M64.5,16.1c-0.7,0-1.4-0.8-1.5-0.9l-0.1-0.2l0.1-0.2c1.3-1.5,0.9-3.2,0.9-3.2l0.5-0.1
		c0,0.1,0.5,1.9-0.8,3.5c0.3,0.3,0.7,0.6,1,0.6c0,0,0.2,0,0.3-0.3l0.5,0.2c-0.2,0.5-0.4,0.6-0.6,0.6C64.6,16.1,64.5,16.1,64.5,16.1z
		"/>
	<path fill="#EDEDED" d="M64.9,15.1c-0.2-0.8-0.4-1.4,1.4-1.5c1.7-0.1,2.3-0.2,2.4,0.5c0.1,0.7,0.7,1.2-1.9,1.5
		C65.7,15.8,65.1,15.9,64.9,15.1z"/>
	<path fill="#3C3C3B" d="M65.8,16c-0.4,0-1-0.1-1.1-0.8l0-0.1c-0.1-0.4-0.2-0.9,0.1-1.2c0.2-0.3,0.7-0.5,1.5-0.5l0.5,0
		c0.3,0,0.6,0,0.9,0c0.6,0,1.2,0.1,1.3,0.8c0,0.1,0,0.2,0.1,0.3c0.1,0.3,0.2,0.6,0,0.8c-0.2,0.4-0.9,0.6-2.2,0.7l-0.1,0
		C66.3,15.9,66.1,16,65.8,16z M67.6,13.8c-0.2,0-0.5,0-0.8,0l-0.5,0c-0.6,0-1,0.1-1.1,0.3c-0.1,0.2-0.1,0.5,0,0.8l0,0.1
		c0.1,0.3,0.2,0.4,0.6,0.4c0.2,0,0.5,0,0.8-0.1l0.1,0c1.4-0.2,1.8-0.4,1.8-0.5c0.1-0.1,0-0.2,0-0.4c0-0.1-0.1-0.2-0.1-0.3
		C68.4,13.9,68.4,13.8,67.6,13.8z"/>
</g>
</svg>
