<?xml version="1.0" encoding="utf-8"?>
<!-- Generator: Adobe Illustrator 18.0.0, SVG Export Plug-In . SVG Version: 6.00 Build 0)  -->
<!DOCTYPE svg PUBLIC "-//W3C//DTD SVG 1.1//EN" "http://www.w3.org/Graphics/SVG/1.1/DTD/svg11.dtd">
<svg version="1.1" id="Calque_1" xmlns="http://www.w3.org/2000/svg" xmlns:xlink="http://www.w3.org/1999/xlink" x="0px" y="0px"
	 viewBox="0 0 178.3 170.6" enable-background="new 0 0 178.3 170.6" xml:space="preserve">
<g>
	<g>
		<g>
			<g>
				<path fill="#3C3C3B" d="M30.1,139.4c-0.7,0.3-1.4-0.1-1.6-0.7l-3.4-9.1l-3.4,9.1c-0.2,0.7-0.9,1-1.6,0.7c-0.7-0.2-1-0.9-0.7-1.6
					l4.5-12.2c0.2-0.5,0.7-0.8,1.2-0.8c0.5,0,1,0.3,1.2,0.8l4.5,12.2C31.1,138.5,30.8,139.2,30.1,139.4z"/>
				<path fill="#3C3C3B" d="M45.4,138.3c0,0.6-0.5,1.2-1.2,1.2h-7.1c-0.7,0-1.2-0.5-1.2-1.2v-12.3c0-0.7,0.5-1.2,1.2-1.2
					c0.7,0,1.2,0.5,1.2,1.2v11h5.9C44.8,137.1,45.4,137.6,45.4,138.3z"/>
				<path fill="#3C3C3B" d="M54.4,126v12.3c0,0.7-0.5,1.2-1.2,1.2c-0.7,0-1.2-0.5-1.2-1.2V126c0-0.6,0.5-1.2,1.2-1.2
					C53.9,124.8,54.4,125.4,54.4,126z"/>
				<path fill="#3C3C3B" d="M60,138.3V126c0-0.7,0.5-1.2,1.2-1.2h7.2c0.7,0,1.2,0.5,1.2,1.2c0,0.7-0.6,1.2-1.2,1.2h-5.9v3.8h4.5
					c0.7,0,1.2,0.5,1.2,1.2c0,0.7-0.5,1.2-1.2,1.2h-4.5v3.7h5.9c0.7,0,1.2,0.6,1.2,1.2c0,0.7-0.6,1.2-1.2,1.2h-7.2
					C60.5,139.5,60,139,60,138.3z"/>
				<path fill="#3C3C3B" d="M85.3,138.9l-6.3-9.1v8.4c0,0.6-0.5,1.2-1.2,1.2s-1.2-0.5-1.2-1.2l0-12.2c0-0.4,0.2-0.9,0.6-1.1
					c0.2-0.1,0.4-0.2,0.6-0.2c0.4,0,0.8,0.2,1,0.5l6.3,9.3V126c0-0.7,0.6-1.2,1.2-1.2c0.6,0,1.2,0.5,1.2,1.2v12.2
					c0,0.7-0.3,1.3-1.2,1.3C85.9,139.5,85.5,139.3,85.3,138.9z"/>
				<path fill="#3C3C3B" d="M100.5,139.5c-4,0-7.3-3.3-7.3-7.4c0-4,3.3-7.3,7.3-7.3c4,0,7.3,3.2,7.3,7.3
					C107.7,136.2,104.5,139.5,100.5,139.5z M95.5,132.1c0,2.8,2.2,5,4.9,5c2.7,0,4.9-2.3,4.9-5c0-2.7-2.2-4.9-4.9-4.9
					C97.7,127.2,95.5,129.4,95.5,132.1z"/>
				<path fill="#3C3C3B" d="M114.1,138.3v-12.3c0-0.6,0.6-1.2,1.2-1.2h3c1.1,0,2.1,0.2,3.1,0.6c1,0.4,1.8,1,2.5,1.8
					c0.7,0.8,1.2,1.6,1.5,2.6c0.3,1,0.4,2.1,0.3,3.1c-0.2,1.8-1.1,3.4-2.4,4.6c-1.3,1.2-3.1,1.9-4.9,1.9h-3
					C114.6,139.5,114.1,138.9,114.1,138.3z M123.2,132.7c0.2-1.5-0.2-2.8-1.1-3.9c-1-1.1-2.3-1.7-3.8-1.7h-1.8v9.9h1.8
					C120.8,137.1,122.9,135.2,123.2,132.7z"/>
				<path fill="#3C3C3B" d="M130.7,138.3V126c0-0.7,0.5-1.2,1.2-1.2h7.2c0.7,0,1.2,0.5,1.2,1.2c0,0.7-0.6,1.2-1.2,1.2h-5.9v3.8h4.5
					c0.7,0,1.2,0.5,1.2,1.2c0,0.7-0.5,1.2-1.2,1.2h-4.5v3.7h5.9c0.7,0,1.2,0.6,1.2,1.2c0,0.7-0.6,1.2-1.2,1.2h-7.2
					C131.2,139.5,130.7,139,130.7,138.3z"/>
				<path fill="#3C3C3B" d="M158.9,125.5c0.1,0.3,0.1,0.6,0,0.9l-4.7,12.3c-0.2,0.5-0.7,0.8-1.1,0.8h0c-0.5,0-0.9-0.3-1.1-0.8
					l-4.6-12.2c-0.1-0.3-0.1-0.7,0-1c0.1-0.3,0.4-0.5,0.7-0.6c0.1-0.1,0.3-0.1,0.4-0.1c0.5,0,0.9,0.3,1.1,0.8l3.5,9.3l3.6-9.4
					c0.2-0.5,0.6-0.8,1.1-0.8c0.1,0,0.3,0,0.4,0.1C158.5,125,158.8,125.2,158.9,125.5z"/>
			</g>
			<g>
				<path fill="#3C3C3B" d="M41.6,147.6c-0.3,0-0.5-0.1-0.7-0.2c-0.2-0.1-0.3-0.3-0.4-0.5c-0.1-0.2-0.2-0.4-0.2-0.7
					s-0.1-0.5-0.1-0.8s0-0.5,0.1-0.8s0.1-0.5,0.2-0.7c0.1-0.2,0.2-0.4,0.4-0.5c0.2-0.1,0.4-0.2,0.7-0.2c0.3,0,0.5,0.1,0.7,0.2
					c0.2,0.1,0.3,0.3,0.4,0.5s0.2,0.4,0.2,0.7c0,0.3,0.1,0.5,0.1,0.8s0,0.5-0.1,0.8c0,0.3-0.1,0.5-0.2,0.7s-0.2,0.4-0.4,0.5
					C42.1,147.5,41.9,147.6,41.6,147.6z M41.6,143.3c-0.2,0-0.3,0-0.5,0.1s-0.2,0.2-0.3,0.3c-0.1,0.1-0.2,0.3-0.2,0.4
					c-0.1,0.2-0.1,0.3-0.1,0.5c0,0.2,0,0.3-0.1,0.4c0,0.1,0,0.3,0,0.4c0,0.1,0,0.2,0,0.4c0,0.1,0,0.3,0.1,0.4c0,0.2,0.1,0.3,0.1,0.5
					c0.1,0.1,0.1,0.3,0.2,0.4c0.1,0.1,0.2,0.2,0.3,0.3s0.3,0.1,0.5,0.1c0.2,0,0.3,0,0.5-0.1s0.2-0.2,0.3-0.3
					c0.1-0.1,0.2-0.3,0.2-0.4c0.1-0.2,0.1-0.3,0.1-0.5c0-0.2,0-0.3,0.1-0.4s0-0.3,0-0.4c0-0.1,0-0.2,0-0.4c0-0.1,0-0.3-0.1-0.4
					c0-0.2-0.1-0.3-0.1-0.5c-0.1-0.1-0.1-0.3-0.2-0.4c-0.1-0.1-0.2-0.2-0.3-0.3S41.8,143.3,41.6,143.3z"/>
				<path fill="#3C3C3B" d="M43.7,146.3c0-0.2,0-0.3,0.1-0.5s0.1-0.4,0.3-0.6l1.1-1.9h0.2l-1.3,2.2l0,0c0.1-0.1,0.2-0.2,0.4-0.3
					s0.3-0.1,0.5-0.1c0.2,0,0.3,0,0.5,0.1c0.1,0.1,0.3,0.2,0.4,0.3c0.1,0.1,0.2,0.3,0.3,0.4s0.1,0.3,0.1,0.5c0,0.2,0,0.4-0.1,0.5
					c-0.1,0.2-0.1,0.3-0.3,0.4s-0.2,0.2-0.4,0.3c-0.2,0.1-0.3,0.1-0.5,0.1s-0.4,0-0.5-0.1c-0.2-0.1-0.3-0.1-0.4-0.3
					s-0.2-0.2-0.3-0.4C43.8,146.7,43.7,146.5,43.7,146.3z M43.9,146.3c0,0.2,0,0.3,0.1,0.5c0.1,0.1,0.1,0.3,0.2,0.4
					c0.1,0.1,0.2,0.2,0.4,0.2s0.3,0.1,0.5,0.1c0.2,0,0.3,0,0.5-0.1c0.1-0.1,0.3-0.1,0.4-0.2c0.1-0.1,0.2-0.2,0.2-0.4
					c0.1-0.1,0.1-0.3,0.1-0.5s0-0.3-0.1-0.5c-0.1-0.1-0.1-0.3-0.2-0.4c-0.1-0.1-0.2-0.2-0.3-0.2c-0.1-0.1-0.3-0.1-0.4-0.1
					c-0.2,0-0.3,0-0.4,0.1c-0.1,0.1-0.3,0.1-0.4,0.2c-0.1,0.1-0.2,0.2-0.3,0.4C43.9,146,43.9,146.1,43.9,146.3z"/>
				<path fill="#3C3C3B" d="M50.6,146.4v1.1h-0.1v-1.1h-2v-0.2l1.9-3h0.2v3h0.7v0.1H50.6z M50.4,143.4L50.4,143.4l-1.9,2.9h1.9
					V143.4z"/>
				<path fill="#3C3C3B" d="M52,146.3c0-0.2,0-0.3,0.1-0.5s0.1-0.4,0.3-0.6l1.1-1.9h0.2l-1.3,2.2l0,0c0.1-0.1,0.2-0.2,0.4-0.3
					s0.3-0.1,0.5-0.1c0.2,0,0.3,0,0.5,0.1c0.1,0.1,0.3,0.2,0.4,0.3c0.1,0.1,0.2,0.3,0.3,0.4s0.1,0.3,0.1,0.5c0,0.2,0,0.4-0.1,0.5
					c-0.1,0.2-0.1,0.3-0.3,0.4s-0.2,0.2-0.4,0.3c-0.2,0.1-0.3,0.1-0.5,0.1s-0.4,0-0.5-0.1c-0.2-0.1-0.3-0.1-0.4-0.3
					s-0.2-0.2-0.3-0.4C52,146.7,52,146.5,52,146.3z M52.1,146.3c0,0.2,0,0.3,0.1,0.5c0.1,0.1,0.1,0.3,0.2,0.4
					c0.1,0.1,0.2,0.2,0.4,0.2s0.3,0.1,0.5,0.1c0.2,0,0.3,0,0.5-0.1c0.1-0.1,0.3-0.1,0.4-0.2c0.1-0.1,0.2-0.2,0.2-0.4
					c0.1-0.1,0.1-0.3,0.1-0.5s0-0.3-0.1-0.5c-0.1-0.1-0.1-0.3-0.2-0.4c-0.1-0.1-0.2-0.2-0.3-0.2c-0.1-0.1-0.3-0.1-0.4-0.1
					c-0.2,0-0.3,0-0.4,0.1c-0.1,0.1-0.3,0.1-0.4,0.2c-0.1,0.1-0.2,0.2-0.3,0.4C52.1,146,52.1,146.1,52.1,146.3z"/>
				<path fill="#3C3C3B" d="M59.3,146.4c0,0.2,0,0.3-0.1,0.5c-0.1,0.1-0.2,0.3-0.3,0.4s-0.2,0.2-0.4,0.2c-0.2,0.1-0.3,0.1-0.5,0.1
					c-0.2,0-0.3,0-0.5-0.1c-0.2-0.1-0.3-0.1-0.4-0.2c-0.1-0.1-0.2-0.2-0.3-0.4c-0.1-0.1-0.1-0.3-0.1-0.5c0-0.1,0-0.2,0.1-0.4
					s0.1-0.2,0.2-0.3c0.1-0.1,0.2-0.2,0.3-0.3s0.2-0.1,0.4-0.2v0c-0.3-0.1-0.4-0.2-0.6-0.4c-0.1-0.2-0.2-0.4-0.2-0.6
					c0-0.2,0-0.3,0.1-0.4s0.1-0.2,0.2-0.3c0.1-0.1,0.2-0.2,0.3-0.2c0.1,0,0.3-0.1,0.4-0.1c0.2,0,0.3,0,0.4,0.1s0.2,0.1,0.3,0.2
					c0.1,0.1,0.2,0.2,0.2,0.3s0.1,0.3,0.1,0.4c0,0.2-0.1,0.4-0.2,0.6c-0.1,0.2-0.3,0.3-0.6,0.4v0c0.2,0,0.3,0.1,0.4,0.2
					s0.2,0.2,0.3,0.3c0.1,0.1,0.1,0.2,0.2,0.3C59.3,146.1,59.3,146.3,59.3,146.4z M59.2,146.4c0-0.2,0-0.3-0.1-0.4
					c-0.1-0.1-0.1-0.2-0.2-0.3c-0.1-0.1-0.2-0.2-0.4-0.2c-0.1-0.1-0.3-0.1-0.4-0.1c-0.2,0-0.3,0-0.4,0.1c-0.1,0.1-0.3,0.1-0.4,0.2
					c-0.1,0.1-0.2,0.2-0.2,0.3c-0.1,0.1-0.1,0.3-0.1,0.4c0,0.2,0,0.3,0.1,0.4s0.1,0.2,0.2,0.3c0.1,0.1,0.2,0.2,0.4,0.2
					c0.1,0.1,0.3,0.1,0.5,0.1s0.3,0,0.5-0.1c0.1-0.1,0.3-0.1,0.4-0.2c0.1-0.1,0.2-0.2,0.2-0.3S59.2,146.5,59.2,146.4z M59,144.2
					c0-0.1,0-0.3-0.1-0.4c0-0.1-0.1-0.2-0.2-0.3c-0.1-0.1-0.2-0.1-0.3-0.2c-0.1,0-0.2-0.1-0.4-0.1c-0.1,0-0.3,0-0.4,0.1
					c-0.1,0-0.2,0.1-0.3,0.2c-0.1,0.1-0.2,0.2-0.2,0.3c-0.1,0.1-0.1,0.2-0.1,0.4c0,0.1,0,0.2,0.1,0.4c0,0.1,0.1,0.2,0.2,0.3
					s0.2,0.2,0.3,0.2c0.1,0.1,0.2,0.1,0.4,0.1c0.1,0,0.3,0,0.4-0.1c0.1-0.1,0.2-0.1,0.3-0.2s0.2-0.2,0.2-0.3
					C59,144.5,59,144.3,59,144.2z"/>
				<path fill="#3C3C3B" d="M62.7,146.4c0,0.2,0,0.3-0.1,0.5c-0.1,0.1-0.2,0.3-0.3,0.4s-0.2,0.2-0.4,0.2c-0.2,0.1-0.3,0.1-0.5,0.1
					c-0.2,0-0.3,0-0.5-0.1c-0.2-0.1-0.3-0.1-0.4-0.2c-0.1-0.1-0.2-0.2-0.3-0.4c-0.1-0.1-0.1-0.3-0.1-0.5c0-0.1,0-0.2,0.1-0.4
					s0.1-0.2,0.2-0.3c0.1-0.1,0.2-0.2,0.3-0.3s0.2-0.1,0.4-0.2v0c-0.3-0.1-0.4-0.2-0.6-0.4c-0.1-0.2-0.2-0.4-0.2-0.6
					c0-0.2,0-0.3,0.1-0.4s0.1-0.2,0.2-0.3c0.1-0.1,0.2-0.2,0.3-0.2c0.1,0,0.3-0.1,0.4-0.1c0.2,0,0.3,0,0.4,0.1s0.2,0.1,0.3,0.2
					c0.1,0.1,0.2,0.2,0.2,0.3s0.1,0.3,0.1,0.4c0,0.2-0.1,0.4-0.2,0.6c-0.1,0.2-0.3,0.3-0.6,0.4v0c0.2,0,0.3,0.1,0.4,0.2
					s0.2,0.2,0.3,0.3c0.1,0.1,0.1,0.2,0.2,0.3C62.7,146.1,62.7,146.3,62.7,146.4z M62.6,146.4c0-0.2,0-0.3-0.1-0.4
					c-0.1-0.1-0.1-0.2-0.2-0.3c-0.1-0.1-0.2-0.2-0.4-0.2c-0.1-0.1-0.3-0.1-0.4-0.1c-0.2,0-0.3,0-0.4,0.1c-0.1,0.1-0.3,0.1-0.4,0.2
					c-0.1,0.1-0.2,0.2-0.2,0.3c-0.1,0.1-0.1,0.3-0.1,0.4c0,0.2,0,0.3,0.1,0.4s0.1,0.2,0.2,0.3c0.1,0.1,0.2,0.2,0.4,0.2
					c0.1,0.1,0.3,0.1,0.5,0.1s0.3,0,0.5-0.1c0.1-0.1,0.3-0.1,0.4-0.2c0.1-0.1,0.2-0.2,0.2-0.3S62.6,146.5,62.6,146.4z M62.4,144.2
					c0-0.1,0-0.3-0.1-0.4c0-0.1-0.1-0.2-0.2-0.3c-0.1-0.1-0.2-0.1-0.3-0.2c-0.1,0-0.2-0.1-0.4-0.1c-0.1,0-0.3,0-0.4,0.1
					c-0.1,0-0.2,0.1-0.3,0.2c-0.1,0.1-0.2,0.2-0.2,0.3c-0.1,0.1-0.1,0.2-0.1,0.4c0,0.1,0,0.2,0.1,0.4c0,0.1,0.1,0.2,0.2,0.3
					s0.2,0.2,0.3,0.2c0.1,0.1,0.2,0.1,0.4,0.1c0.1,0,0.3,0,0.4-0.1c0.1-0.1,0.2-0.1,0.3-0.2s0.2-0.2,0.2-0.3
					C62.4,144.5,62.4,144.3,62.4,144.2z"/>
				<path fill="#3C3C3B" d="M67.4,146.4c0,0.2,0,0.3-0.1,0.4c0,0.1-0.1,0.3-0.2,0.4s-0.2,0.2-0.4,0.3c-0.2,0.1-0.3,0.1-0.5,0.1
					c-0.3,0-0.5-0.1-0.7-0.2s-0.4-0.3-0.5-0.5l0.1-0.1c0.1,0.2,0.2,0.3,0.4,0.4c0.2,0.1,0.4,0.2,0.6,0.2c0.2,0,0.3,0,0.5-0.1
					c0.1-0.1,0.2-0.1,0.3-0.2c0.1-0.1,0.2-0.2,0.2-0.3c0-0.1,0.1-0.3,0.1-0.4c0-0.2,0-0.3-0.1-0.5c-0.1-0.1-0.2-0.2-0.3-0.3
					s-0.3-0.1-0.4-0.2c-0.1,0-0.3-0.1-0.4-0.1h-0.1v-0.1h0.1c0.1,0,0.3,0,0.4-0.1s0.2-0.1,0.3-0.2s0.2-0.2,0.2-0.3s0.1-0.3,0.1-0.5
					c0-0.1,0-0.3-0.1-0.4s-0.1-0.2-0.2-0.3s-0.2-0.1-0.3-0.2c-0.1,0-0.2-0.1-0.4-0.1c-0.2,0-0.3,0-0.5,0.1c-0.2,0.1-0.3,0.2-0.4,0.3
					l-0.1-0.1c0.1-0.1,0.2-0.3,0.4-0.4c0.2-0.1,0.4-0.1,0.6-0.1c0.2,0,0.3,0,0.4,0.1c0.1,0,0.2,0.1,0.3,0.2c0.1,0.1,0.2,0.2,0.2,0.3
					c0.1,0.1,0.1,0.3,0.1,0.4c0,0.1,0,0.2-0.1,0.4c0,0.1-0.1,0.2-0.2,0.3c-0.1,0.1-0.2,0.2-0.3,0.2s-0.3,0.1-0.4,0.1v0
					c0.2,0,0.3,0.1,0.5,0.2s0.2,0.2,0.3,0.3c0.1,0.1,0.2,0.2,0.2,0.3C67.4,146.1,67.4,146.3,67.4,146.4z"/>
				<path fill="#3C3C3B" d="M69.7,147.6c-0.3,0-0.5-0.1-0.7-0.2c-0.2-0.1-0.3-0.3-0.4-0.5c-0.1-0.2-0.2-0.4-0.2-0.7
					s-0.1-0.5-0.1-0.8s0-0.5,0.1-0.8s0.1-0.5,0.2-0.7c0.1-0.2,0.2-0.4,0.4-0.5c0.2-0.1,0.4-0.2,0.7-0.2c0.3,0,0.5,0.1,0.7,0.2
					c0.2,0.1,0.3,0.3,0.4,0.5s0.2,0.4,0.2,0.7c0,0.3,0.1,0.5,0.1,0.8s0,0.5-0.1,0.8c0,0.3-0.1,0.5-0.2,0.7s-0.2,0.4-0.4,0.5
					C70.1,147.5,69.9,147.6,69.7,147.6z M69.7,143.3c-0.2,0-0.3,0-0.5,0.1s-0.2,0.2-0.3,0.3c-0.1,0.1-0.2,0.3-0.2,0.4
					c-0.1,0.2-0.1,0.3-0.1,0.5c0,0.2,0,0.3-0.1,0.4c0,0.1,0,0.3,0,0.4c0,0.1,0,0.2,0,0.4c0,0.1,0,0.3,0.1,0.4c0,0.2,0.1,0.3,0.1,0.5
					c0.1,0.1,0.1,0.3,0.2,0.4c0.1,0.1,0.2,0.2,0.3,0.3s0.3,0.1,0.5,0.1c0.2,0,0.3,0,0.5-0.1s0.2-0.2,0.3-0.3
					c0.1-0.1,0.2-0.3,0.2-0.4c0.1-0.2,0.1-0.3,0.1-0.5c0-0.2,0-0.3,0.1-0.4s0-0.3,0-0.4c0-0.1,0-0.2,0-0.4c0-0.1,0-0.3-0.1-0.4
					c0-0.2-0.1-0.3-0.1-0.5c-0.1-0.1-0.1-0.3-0.2-0.4c-0.1-0.1-0.2-0.2-0.3-0.3S69.8,143.3,69.7,143.3z"/>
				<path fill="#3C3C3B" d="M74.5,147.6c-0.3,0-0.5-0.1-0.7-0.2c-0.2-0.1-0.3-0.3-0.4-0.5c-0.1-0.2-0.2-0.4-0.2-0.7
					s-0.1-0.5-0.1-0.8s0-0.5,0.1-0.8s0.1-0.5,0.2-0.7c0.1-0.2,0.2-0.4,0.4-0.5c0.2-0.1,0.4-0.2,0.7-0.2c0.3,0,0.5,0.1,0.7,0.2
					c0.2,0.1,0.3,0.3,0.4,0.5s0.2,0.4,0.2,0.7c0,0.3,0.1,0.5,0.1,0.8s0,0.5-0.1,0.8c0,0.3-0.1,0.5-0.2,0.7s-0.2,0.4-0.4,0.5
					C75,147.5,74.8,147.6,74.5,147.6z M74.5,143.3c-0.2,0-0.3,0-0.5,0.1s-0.2,0.2-0.3,0.3c-0.1,0.1-0.2,0.3-0.2,0.4
					c-0.1,0.2-0.1,0.3-0.1,0.5c0,0.2,0,0.3-0.1,0.4c0,0.1,0,0.3,0,0.4c0,0.1,0,0.2,0,0.4c0,0.1,0,0.3,0.1,0.4c0,0.2,0.1,0.3,0.1,0.5
					c0.1,0.1,0.1,0.3,0.2,0.4c0.1,0.1,0.2,0.2,0.3,0.3s0.3,0.1,0.5,0.1c0.2,0,0.3,0,0.5-0.1s0.2-0.2,0.3-0.3
					c0.1-0.1,0.2-0.3,0.2-0.4c0.1-0.2,0.1-0.3,0.1-0.5c0-0.2,0-0.3,0.1-0.4s0-0.3,0-0.4c0-0.1,0-0.2,0-0.4c0-0.1,0-0.3-0.1-0.4
					c0-0.2-0.1-0.3-0.1-0.5c-0.1-0.1-0.1-0.3-0.2-0.4c-0.1-0.1-0.2-0.2-0.3-0.3S74.7,143.3,74.5,143.3z"/>
				<path fill="#3C3C3B" d="M78.9,143.4l-1.8,4.1H77l1.8-4.1h-2.2v-0.1h2.3V143.4z"/>
				<path fill="#3C3C3B" d="M81.4,146v-0.1h1.1v0.1H81.4z"/>
				<path fill="#3C3C3B" d="M86.9,146.9c0,0.1,0,0.2,0,0.3s0,0.2,0,0.3h-0.1c0,0,0-0.1,0-0.1c0-0.1,0-0.1,0-0.2c0-0.1,0-0.1,0-0.2
					c0-0.1,0-0.1,0-0.2h0c-0.1,0.3-0.2,0.4-0.4,0.6c-0.2,0.1-0.4,0.2-0.6,0.2c-0.1,0-0.2,0-0.3,0c-0.1,0-0.2-0.1-0.3-0.1
					c-0.1-0.1-0.2-0.1-0.2-0.2c-0.1-0.1-0.1-0.2-0.1-0.4c0-0.2,0.1-0.4,0.2-0.5s0.2-0.2,0.4-0.3c0.2-0.1,0.3-0.1,0.5-0.1
					c0.2,0,0.3,0,0.5,0h0.5v-0.2c0-0.3-0.1-0.5-0.2-0.7c-0.2-0.1-0.4-0.2-0.6-0.2c-0.2,0-0.3,0-0.5,0.1c-0.1,0.1-0.3,0.1-0.4,0.2
					l-0.1-0.1c0.1-0.1,0.3-0.2,0.4-0.3c0.2-0.1,0.3-0.1,0.5-0.1c0.3,0,0.6,0.1,0.7,0.2c0.2,0.2,0.3,0.4,0.3,0.8V146.9z M86.7,146
					h-0.4c-0.2,0-0.3,0-0.5,0c-0.2,0-0.3,0.1-0.5,0.1c-0.1,0.1-0.3,0.1-0.3,0.2c-0.1,0.1-0.1,0.2-0.1,0.4c0,0.1,0,0.2,0.1,0.3
					c0,0.1,0.1,0.2,0.2,0.2c0.1,0.1,0.2,0.1,0.3,0.1c0.1,0,0.2,0,0.3,0c0.2,0,0.4,0,0.5-0.1c0.1-0.1,0.2-0.2,0.3-0.3
					c0.1-0.1,0.1-0.2,0.2-0.4c0-0.1,0-0.3,0-0.4V146z"/>
				<path fill="#3C3C3B" d="M88,147.5V143h0.1v4.5H88z"/>
				<path fill="#3C3C3B" d="M89.5,143.7C89.4,143.7,89.4,143.7,89.5,143.7c-0.1-0.1-0.1-0.1-0.1-0.2c0,0,0-0.1,0-0.1
					c0,0,0.1,0,0.1,0c0,0,0.1,0,0.1,0c0,0,0,0.1,0,0.1C89.6,143.6,89.6,143.6,89.5,143.7C89.5,143.7,89.5,143.7,89.5,143.7z
					 M89.4,147.5v-2.8h0.1v2.8H89.4z"/>
				<path fill="#3C3C3B" d="M90.6,146.1c0,0.2,0,0.3,0.1,0.5c0,0.2,0.1,0.3,0.2,0.4s0.2,0.2,0.4,0.3c0.2,0.1,0.3,0.1,0.6,0.1
					c0.2,0,0.4,0,0.6-0.1c0.2-0.1,0.3-0.2,0.4-0.4L93,147c-0.1,0.2-0.3,0.3-0.5,0.4s-0.4,0.1-0.6,0.1c-0.2,0-0.4,0-0.6-0.1
					c-0.2-0.1-0.3-0.2-0.4-0.3s-0.2-0.3-0.3-0.5c-0.1-0.2-0.1-0.4-0.1-0.6c0-0.2,0-0.4,0.1-0.6c0.1-0.2,0.2-0.3,0.3-0.5
					c0.1-0.1,0.3-0.2,0.4-0.3c0.2-0.1,0.3-0.1,0.5-0.1c0.2,0,0.4,0,0.6,0.1c0.2,0.1,0.3,0.2,0.4,0.3s0.2,0.3,0.2,0.4
					c0.1,0.2,0.1,0.3,0.1,0.5v0.1H90.6z M93,146c0-0.2,0-0.3-0.1-0.5c-0.1-0.1-0.1-0.3-0.2-0.4c-0.1-0.1-0.2-0.2-0.4-0.2
					c-0.1-0.1-0.3-0.1-0.5-0.1c-0.2,0-0.4,0-0.5,0.1s-0.3,0.2-0.4,0.3c-0.1,0.1-0.2,0.3-0.2,0.4c0,0.1-0.1,0.3-0.1,0.4H93z"/>
				<path fill="#3C3C3B" d="M94.4,145.1c0.1-0.1,0.2-0.2,0.3-0.3c0.1-0.1,0.2-0.1,0.3-0.2c0.1,0,0.2-0.1,0.3-0.1
					c0.2,0,0.4,0,0.5,0.1c0.1,0.1,0.2,0.2,0.3,0.3c0.1,0.1,0.1,0.2,0.2,0.4c0,0.1,0,0.3,0,0.4v1.7h-0.1v-1.7c0-0.1,0-0.2,0-0.4
					c0-0.1-0.1-0.2-0.1-0.3c-0.1-0.1-0.2-0.2-0.3-0.3c-0.1-0.1-0.3-0.1-0.4-0.1c-0.2,0-0.3,0-0.4,0.1c-0.1,0.1-0.2,0.2-0.3,0.3
					s-0.2,0.3-0.2,0.4c-0.1,0.2-0.1,0.4-0.1,0.6v1.4h-0.1v-2.1c0,0,0-0.1,0-0.2c0-0.1,0-0.1,0-0.2c0-0.1,0-0.1,0-0.2
					c0-0.1,0-0.1,0-0.1h0.1c0,0,0,0.1,0,0.1c0,0.1,0,0.1,0,0.2s0,0.1,0,0.2s0,0.1,0,0.2h0C94.3,145.3,94.3,145.2,94.4,145.1z"/>
				<path fill="#3C3C3B" d="M100.2,146.1c0,0.2,0,0.4-0.1,0.6c-0.1,0.2-0.2,0.3-0.3,0.5c-0.1,0.1-0.3,0.2-0.5,0.3
					c-0.2,0.1-0.4,0.1-0.6,0.1c-0.2,0-0.4,0-0.6-0.1c-0.2-0.1-0.3-0.2-0.5-0.3c-0.1-0.1-0.2-0.3-0.3-0.5c-0.1-0.2-0.1-0.4-0.1-0.6
					s0-0.4,0.1-0.6c0.1-0.2,0.2-0.3,0.3-0.5c0.1-0.1,0.3-0.2,0.5-0.3c0.2-0.1,0.4-0.1,0.6-0.1c0.2,0,0.4,0,0.6,0.1
					c0.2,0.1,0.3,0.2,0.5,0.3c0.1,0.1,0.2,0.3,0.3,0.5C100.1,145.7,100.2,145.9,100.2,146.1z M100,146.1c0-0.2,0-0.4-0.1-0.5
					c-0.1-0.2-0.1-0.3-0.3-0.4c-0.1-0.1-0.3-0.2-0.4-0.3s-0.3-0.1-0.5-0.1c-0.2,0-0.4,0-0.5,0.1c-0.2,0.1-0.3,0.2-0.4,0.3
					c-0.1,0.1-0.2,0.3-0.3,0.4c-0.1,0.2-0.1,0.3-0.1,0.5c0,0.2,0,0.4,0.1,0.5c0.1,0.2,0.1,0.3,0.3,0.4c0.1,0.1,0.3,0.2,0.4,0.3
					c0.2,0.1,0.3,0.1,0.5,0.1c0.2,0,0.4,0,0.5-0.1c0.2-0.1,0.3-0.2,0.4-0.3c0.1-0.1,0.2-0.3,0.3-0.4C100,146.5,100,146.3,100,146.1z
					"/>
				<path fill="#3C3C3B" d="M103.5,143h0.1v4.5h-0.1v-0.7h0c-0.1,0.3-0.3,0.5-0.5,0.6c-0.2,0.1-0.5,0.2-0.7,0.2
					c-0.2,0-0.4,0-0.6-0.1c-0.2-0.1-0.3-0.2-0.4-0.3s-0.2-0.3-0.3-0.5c-0.1-0.2-0.1-0.4-0.1-0.6s0-0.4,0.1-0.6
					c0.1-0.2,0.2-0.3,0.3-0.5s0.3-0.2,0.4-0.3c0.2-0.1,0.4-0.1,0.6-0.1c0.3,0,0.5,0.1,0.7,0.2c0.2,0.1,0.4,0.3,0.5,0.6h0V143z
					 M101,146.1c0,0.2,0,0.4,0.1,0.5c0.1,0.2,0.1,0.3,0.2,0.4c0.1,0.1,0.2,0.2,0.4,0.3c0.2,0.1,0.3,0.1,0.5,0.1c0.2,0,0.4,0,0.5-0.1
					c0.2-0.1,0.3-0.2,0.4-0.3c0.1-0.1,0.2-0.3,0.3-0.4c0.1-0.2,0.1-0.3,0.1-0.5s0-0.4-0.1-0.5c-0.1-0.2-0.2-0.3-0.3-0.4
					c-0.1-0.1-0.2-0.2-0.4-0.3s-0.3-0.1-0.5-0.1c-0.2,0-0.4,0-0.5,0.1c-0.2,0.1-0.3,0.2-0.4,0.3c-0.1,0.1-0.2,0.3-0.2,0.4
					C101.1,145.8,101,145.9,101,146.1z"/>
				<path fill="#3C3C3B" d="M104.8,146.1c0,0.2,0,0.3,0.1,0.5s0.1,0.3,0.2,0.4c0.1,0.1,0.2,0.2,0.4,0.3c0.2,0.1,0.3,0.1,0.6,0.1
					c0.2,0,0.4,0,0.6-0.1s0.3-0.2,0.4-0.4l0.1,0.1c-0.1,0.2-0.3,0.3-0.5,0.4s-0.4,0.1-0.6,0.1c-0.2,0-0.4,0-0.6-0.1
					c-0.2-0.1-0.3-0.2-0.4-0.3s-0.2-0.3-0.3-0.5c-0.1-0.2-0.1-0.4-0.1-0.6c0-0.2,0-0.4,0.1-0.6c0.1-0.2,0.2-0.3,0.3-0.5
					c0.1-0.1,0.3-0.2,0.4-0.3c0.2-0.1,0.3-0.1,0.5-0.1c0.2,0,0.4,0,0.6,0.1c0.2,0.1,0.3,0.2,0.4,0.3s0.2,0.3,0.2,0.4
					c0.1,0.2,0.1,0.3,0.1,0.5v0.1H104.8z M107.1,146c0-0.2,0-0.3-0.1-0.5c-0.1-0.1-0.1-0.3-0.2-0.4c-0.1-0.1-0.2-0.2-0.4-0.2
					c-0.1-0.1-0.3-0.1-0.5-0.1c-0.2,0-0.4,0-0.5,0.1c-0.1,0.1-0.3,0.2-0.4,0.3s-0.2,0.3-0.2,0.4c0,0.1-0.1,0.3-0.1,0.4H107.1z"/>
				<path fill="#3C3C3B" d="M109,147.5h-0.2l-1.1-2.8h0.1l1,2.6h0l1-2.6h0.1L109,147.5z"/>
				<path fill="#3C3C3B" d="M114.8,145c0,0.2,0,0.4-0.1,0.6c-0.1,0.2-0.1,0.3-0.2,0.5c-0.1,0.1-0.2,0.2-0.4,0.3s-0.3,0.1-0.5,0.1
					c-0.2,0-0.3,0-0.4-0.1c-0.1-0.1-0.1-0.2-0.1-0.4h0c0,0.1-0.1,0.1-0.1,0.2c0,0.1-0.1,0.1-0.2,0.2c-0.1,0-0.1,0.1-0.2,0.1
					s-0.2,0.1-0.3,0.1c-0.1,0-0.2,0-0.3-0.1c-0.1,0-0.2-0.1-0.2-0.2c-0.1-0.1-0.1-0.2-0.1-0.2c0-0.1,0-0.2,0-0.3
					c0-0.2,0-0.4,0.1-0.5c0.1-0.2,0.1-0.4,0.2-0.5c0.1-0.2,0.2-0.3,0.4-0.4c0.1-0.1,0.3-0.2,0.5-0.2c0.2,0,0.3,0,0.4,0.1
					c0.1,0.1,0.2,0.2,0.2,0.4h0l0.1-0.4h0.1l-0.4,1.4c0,0.1,0,0.1,0,0.2c0,0.1,0,0.1,0,0.2c0,0.1,0,0.2,0.1,0.3s0.2,0.1,0.3,0.1
					c0.2,0,0.3,0,0.5-0.1s0.2-0.2,0.3-0.3c0.1-0.1,0.1-0.3,0.2-0.5s0.1-0.3,0.1-0.5c0-0.3,0-0.5-0.1-0.7c-0.1-0.2-0.2-0.4-0.4-0.6
					s-0.4-0.3-0.6-0.4c-0.2-0.1-0.5-0.1-0.8-0.1c-0.3,0-0.6,0.1-0.8,0.2s-0.5,0.3-0.7,0.5c-0.2,0.2-0.3,0.4-0.4,0.7
					c-0.1,0.3-0.2,0.5-0.2,0.8c0,0.3,0.1,0.6,0.2,0.8c0.1,0.3,0.2,0.5,0.4,0.7s0.4,0.3,0.7,0.5s0.5,0.2,0.9,0.2c0.3,0,0.7-0.1,1-0.2
					c0.3-0.2,0.5-0.3,0.7-0.6l0.1,0.1c-0.2,0.3-0.5,0.5-0.8,0.6c-0.3,0.2-0.6,0.2-1,0.2c-0.3,0-0.6-0.1-0.9-0.2
					c-0.3-0.1-0.5-0.3-0.7-0.5c-0.2-0.2-0.3-0.4-0.5-0.7c-0.1-0.3-0.2-0.6-0.2-0.9c0-0.3,0.1-0.6,0.2-0.9c0.1-0.3,0.3-0.5,0.5-0.7
					s0.4-0.4,0.7-0.5c0.3-0.1,0.6-0.2,0.9-0.2c0.3,0,0.6,0,0.8,0.1c0.3,0.1,0.5,0.2,0.7,0.4c0.2,0.2,0.3,0.4,0.4,0.6
					C114.7,144.5,114.8,144.7,114.8,145z M113.4,144.9c0-0.1,0-0.2,0-0.2c0-0.1-0.1-0.1-0.1-0.2c0-0.1-0.1-0.1-0.2-0.1
					c-0.1,0-0.1,0-0.2,0c-0.2,0-0.3,0-0.5,0.1c-0.1,0.1-0.2,0.2-0.3,0.4c-0.1,0.1-0.2,0.3-0.2,0.5c0,0.2-0.1,0.3-0.1,0.5
					c0,0.2,0,0.3,0.1,0.5s0.2,0.2,0.4,0.2c0.2,0,0.3-0.1,0.4-0.2s0.2-0.3,0.3-0.4s0.2-0.3,0.2-0.5S113.4,145,113.4,144.9z"/>
				<path fill="#3C3C3B" d="M118,146.8L118,146.8c-0.1,0.1-0.1,0.3-0.2,0.4c-0.1,0.1-0.2,0.2-0.3,0.3c-0.1,0.1-0.2,0.1-0.4,0.2
					s-0.3,0.1-0.4,0.1c-0.2,0-0.4,0-0.6-0.1c-0.2-0.1-0.3-0.2-0.4-0.3s-0.2-0.3-0.3-0.5c-0.1-0.2-0.1-0.4-0.1-0.6s0-0.4,0.1-0.6
					c0.1-0.2,0.2-0.3,0.3-0.5s0.3-0.2,0.4-0.3c0.2-0.1,0.4-0.1,0.6-0.1c0.3,0,0.5,0.1,0.7,0.2c0.2,0.1,0.4,0.3,0.5,0.6h0v-0.8h0.1
					v2.6c0,0.2,0,0.4-0.1,0.6c0,0.2-0.1,0.4-0.2,0.5c-0.1,0.2-0.2,0.3-0.4,0.4s-0.4,0.1-0.6,0.1c-0.3,0-0.5,0-0.7-0.1
					s-0.4-0.2-0.5-0.4l0.1-0.1c0.2,0.2,0.3,0.3,0.5,0.4c0.2,0.1,0.4,0.1,0.6,0.1c0.2,0,0.4,0,0.6-0.1s0.3-0.2,0.4-0.3
					c0.1-0.1,0.2-0.3,0.2-0.5c0-0.2,0.1-0.4,0.1-0.6V146.8z M115.5,146.1c0,0.2,0,0.4,0.1,0.5c0.1,0.2,0.1,0.3,0.2,0.4
					c0.1,0.1,0.2,0.2,0.4,0.3c0.2,0.1,0.3,0.1,0.5,0.1c0.2,0,0.4,0,0.5-0.1s0.3-0.2,0.4-0.3c0.1-0.1,0.2-0.3,0.3-0.4
					c0.1-0.2,0.1-0.3,0.1-0.5s0-0.4-0.1-0.5c-0.1-0.2-0.2-0.3-0.3-0.4c-0.1-0.1-0.2-0.2-0.4-0.3s-0.3-0.1-0.5-0.1
					c-0.2,0-0.4,0-0.5,0.1c-0.2,0.1-0.3,0.2-0.4,0.3c-0.1,0.1-0.2,0.3-0.2,0.4C115.6,145.8,115.5,145.9,115.5,146.1z"/>
				<path fill="#3C3C3B" d="M121.5,145.5c0.1-0.3,0.2-0.5,0.4-0.6c0.2-0.1,0.4-0.2,0.7-0.2c0.2,0,0.3,0,0.5,0.1
					c0.1,0.1,0.2,0.2,0.3,0.3c0.1,0.1,0.1,0.2,0.2,0.4c0,0.1,0,0.3,0,0.4v1.7h-0.1v-1.7c0-0.1,0-0.2,0-0.4s-0.1-0.2-0.1-0.3
					c-0.1-0.1-0.2-0.2-0.3-0.3c-0.1-0.1-0.2-0.1-0.4-0.1c-0.1,0-0.3,0-0.4,0.1c-0.1,0.1-0.2,0.2-0.3,0.3s-0.2,0.3-0.2,0.4
					c-0.1,0.2-0.1,0.4-0.1,0.6v1.4h-0.1v-1.7c0-0.1,0-0.2,0-0.4c0-0.1-0.1-0.2-0.1-0.3c-0.1-0.1-0.1-0.2-0.2-0.3
					c-0.1-0.1-0.2-0.1-0.4-0.1c-0.1,0-0.3,0-0.4,0.1c-0.1,0.1-0.2,0.2-0.3,0.3c-0.1,0.1-0.2,0.3-0.2,0.4c-0.1,0.2-0.1,0.4-0.1,0.6
					v1.4h-0.1v-2.1c0,0,0-0.1,0-0.2c0-0.1,0-0.1,0-0.2c0-0.1,0-0.1,0-0.2c0-0.1,0-0.1,0-0.1h0.1c0,0,0,0.1,0,0.1c0,0.1,0,0.1,0,0.2
					s0,0.1,0,0.2s0,0.1,0,0.2h0c0-0.1,0.1-0.2,0.2-0.3c0.1-0.1,0.2-0.2,0.2-0.3s0.2-0.1,0.3-0.2c0.1,0,0.2-0.1,0.3-0.1
					c0.1,0,0.3,0,0.4,0.1c0.1,0,0.2,0.1,0.3,0.2c0.1,0.1,0.1,0.2,0.2,0.3C121.4,145.3,121.5,145.4,121.5,145.5L121.5,145.5z"/>
				<path fill="#3C3C3B" d="M126.6,146.9c0,0.1,0,0.2,0,0.3c0,0.1,0,0.2,0,0.3h-0.1c0,0,0-0.1,0-0.1c0-0.1,0-0.1,0-0.2
					c0-0.1,0-0.1,0-0.2c0-0.1,0-0.1,0-0.2h0c-0.1,0.3-0.2,0.4-0.4,0.6c-0.2,0.1-0.4,0.2-0.6,0.2c-0.1,0-0.2,0-0.3,0
					c-0.1,0-0.2-0.1-0.3-0.1c-0.1-0.1-0.2-0.1-0.2-0.2c-0.1-0.1-0.1-0.2-0.1-0.4c0-0.2,0.1-0.4,0.2-0.5c0.1-0.1,0.2-0.2,0.4-0.3
					c0.2-0.1,0.3-0.1,0.5-0.1c0.2,0,0.3,0,0.5,0h0.5v-0.2c0-0.3-0.1-0.5-0.2-0.7c-0.2-0.1-0.4-0.2-0.6-0.2c-0.2,0-0.3,0-0.5,0.1
					c-0.1,0.1-0.3,0.1-0.4,0.2l-0.1-0.1c0.1-0.1,0.3-0.2,0.4-0.3s0.3-0.1,0.5-0.1c0.3,0,0.6,0.1,0.7,0.2c0.2,0.2,0.3,0.4,0.3,0.8
					V146.9z M126.5,146h-0.4c-0.2,0-0.3,0-0.5,0c-0.2,0-0.3,0.1-0.5,0.1c-0.1,0.1-0.3,0.1-0.3,0.2c-0.1,0.1-0.1,0.2-0.1,0.4
					c0,0.1,0,0.2,0.1,0.3c0.1,0.1,0.1,0.2,0.2,0.2c0.1,0.1,0.2,0.1,0.3,0.1c0.1,0,0.2,0,0.3,0c0.2,0,0.4,0,0.5-0.1
					c0.1-0.1,0.2-0.2,0.3-0.3c0.1-0.1,0.1-0.2,0.2-0.4c0-0.1,0-0.3,0-0.4V146z"/>
				<path fill="#3C3C3B" d="M127.9,143.7C127.8,143.7,127.8,143.7,127.9,143.7c-0.1-0.1-0.1-0.1-0.1-0.2c0,0,0-0.1,0-0.1
					c0,0,0.1,0,0.1,0s0.1,0,0.1,0c0,0,0,0.1,0,0.1C128,143.6,128,143.6,127.9,143.7C127.9,143.7,127.9,143.7,127.9,143.7z
					 M127.8,147.5v-2.8h0.1v2.8H127.8z"/>
				<path fill="#3C3C3B" d="M129.2,147.5V143h0.1v4.5H129.2z"/>
				<path fill="#3C3C3B" d="M130.6,147.5C130.6,147.5,130.6,147.5,130.6,147.5c-0.1-0.1-0.1-0.1-0.1-0.2c0,0,0-0.1,0-0.1
					c0,0,0.1,0,0.1,0s0.1,0,0.1,0c0,0,0,0.1,0,0.1C130.8,147.4,130.7,147.5,130.6,147.5C130.7,147.5,130.7,147.5,130.6,147.5z"/>
				<path fill="#3C3C3B" d="M133.9,145.1c-0.1-0.1-0.2-0.2-0.4-0.3c-0.1-0.1-0.3-0.1-0.4-0.1c-0.2,0-0.4,0-0.5,0.1s-0.3,0.2-0.4,0.3
					c-0.1,0.1-0.2,0.3-0.3,0.4c-0.1,0.2-0.1,0.3-0.1,0.5s0,0.4,0.1,0.5c0.1,0.2,0.1,0.3,0.3,0.4c0.1,0.1,0.2,0.2,0.4,0.3
					c0.2,0.1,0.3,0.1,0.5,0.1c0.2,0,0.3,0,0.4-0.1c0.1-0.1,0.3-0.1,0.4-0.2l0.1,0.1c-0.1,0.1-0.3,0.2-0.4,0.3
					c-0.2,0.1-0.3,0.1-0.5,0.1c-0.2,0-0.4,0-0.6-0.1c-0.2-0.1-0.3-0.2-0.4-0.3c-0.1-0.1-0.2-0.3-0.3-0.5c-0.1-0.2-0.1-0.4-0.1-0.6
					s0-0.4,0.1-0.6c0.1-0.2,0.2-0.3,0.3-0.5c0.1-0.1,0.3-0.2,0.4-0.3c0.2-0.1,0.4-0.1,0.6-0.1c0.2,0,0.3,0,0.5,0.1
					c0.2,0.1,0.3,0.2,0.4,0.3L133.9,145.1z"/>
				<path fill="#3C3C3B" d="M137.5,146.1c0,0.2,0,0.4-0.1,0.6c-0.1,0.2-0.2,0.3-0.3,0.5c-0.1,0.1-0.3,0.2-0.5,0.3
					c-0.2,0.1-0.4,0.1-0.6,0.1c-0.2,0-0.4,0-0.6-0.1c-0.2-0.1-0.3-0.2-0.5-0.3c-0.1-0.1-0.2-0.3-0.3-0.5c-0.1-0.2-0.1-0.4-0.1-0.6
					s0-0.4,0.1-0.6c0.1-0.2,0.2-0.3,0.3-0.5c0.1-0.1,0.3-0.2,0.5-0.3c0.2-0.1,0.4-0.1,0.6-0.1c0.2,0,0.4,0,0.6,0.1
					c0.2,0.1,0.3,0.2,0.5,0.3c0.1,0.1,0.2,0.3,0.3,0.5C137.4,145.7,137.5,145.9,137.5,146.1z M137.4,146.1c0-0.2,0-0.4-0.1-0.5
					c-0.1-0.2-0.1-0.3-0.3-0.4c-0.1-0.1-0.3-0.2-0.4-0.3s-0.3-0.1-0.5-0.1c-0.2,0-0.4,0-0.5,0.1c-0.2,0.1-0.3,0.2-0.4,0.3
					c-0.1,0.1-0.2,0.3-0.3,0.4c-0.1,0.2-0.1,0.3-0.1,0.5c0,0.2,0,0.4,0.1,0.5c0.1,0.2,0.1,0.3,0.3,0.4c0.1,0.1,0.3,0.2,0.4,0.3
					c0.2,0.1,0.3,0.1,0.5,0.1c0.2,0,0.4,0,0.5-0.1c0.2-0.1,0.3-0.2,0.4-0.3c0.1-0.1,0.2-0.3,0.3-0.4
					C137.3,146.5,137.4,146.3,137.4,146.1z"/>
				<path fill="#3C3C3B" d="M140.6,145.5c0.1-0.3,0.2-0.5,0.4-0.6c0.2-0.1,0.4-0.2,0.7-0.2c0.2,0,0.3,0,0.5,0.1
					c0.1,0.1,0.2,0.2,0.3,0.3c0.1,0.1,0.1,0.2,0.2,0.4c0,0.1,0,0.3,0,0.4v1.7h-0.1v-1.7c0-0.1,0-0.2,0-0.4s-0.1-0.2-0.1-0.3
					c-0.1-0.1-0.2-0.2-0.3-0.3c-0.1-0.1-0.2-0.1-0.4-0.1c-0.1,0-0.3,0-0.4,0.1c-0.1,0.1-0.2,0.2-0.3,0.3s-0.2,0.3-0.2,0.4
					c-0.1,0.2-0.1,0.4-0.1,0.6v1.4h-0.1v-1.7c0-0.1,0-0.2,0-0.4c0-0.1-0.1-0.2-0.1-0.3c-0.1-0.1-0.1-0.2-0.2-0.3
					c-0.1-0.1-0.2-0.1-0.4-0.1c-0.1,0-0.3,0-0.4,0.1c-0.1,0.1-0.2,0.2-0.3,0.3c-0.1,0.1-0.2,0.3-0.2,0.4c-0.1,0.2-0.1,0.4-0.1,0.6
					v1.4h-0.1v-2.1c0,0,0-0.1,0-0.2c0-0.1,0-0.1,0-0.2c0-0.1,0-0.1,0-0.2c0-0.1,0-0.1,0-0.1h0.1c0,0,0,0.1,0,0.1c0,0.1,0,0.1,0,0.2
					s0,0.1,0,0.2s0,0.1,0,0.2h0c0-0.1,0.1-0.2,0.2-0.3c0.1-0.1,0.2-0.2,0.2-0.3s0.2-0.1,0.3-0.2c0.1,0,0.2-0.1,0.3-0.1
					c0.1,0,0.3,0,0.4,0.1c0.1,0,0.2,0.1,0.3,0.2c0.1,0.1,0.1,0.2,0.2,0.3C140.5,145.3,140.5,145.4,140.6,145.5L140.6,145.5z"/>
			</g>
			<g>
				<path fill="#3C3C3B" d="M31,153.3c0.1-0.1,0.2-0.3,0.3-0.4c0.2-0.1,0.3-0.1,0.6-0.1c0.2,0,0.3,0,0.5,0.1
					c0.1,0.1,0.2,0.1,0.3,0.2c0.1,0.1,0.2,0.2,0.2,0.4s0.1,0.3,0.1,0.5v1.8h-0.6v-1.6c0-0.1,0-0.2,0-0.3c0-0.1-0.1-0.2-0.1-0.3
					c0-0.1-0.1-0.1-0.2-0.2c-0.1,0-0.2-0.1-0.3-0.1c-0.2,0-0.4,0.1-0.6,0.3c-0.1,0.2-0.2,0.4-0.2,0.7v1.5h-0.6v-4.5H31L31,153.3
					L31,153.3z"/>
				<path fill="#3C3C3B" d="M35.3,153.3h-0.8v1.5c0,0.2,0,0.3,0.1,0.4c0.1,0.1,0.2,0.1,0.3,0.1c0.1,0,0.1,0,0.2,0s0.1,0,0.2,0l0,0.5
					c-0.1,0-0.1,0-0.2,0.1c-0.1,0-0.2,0-0.3,0c-0.3,0-0.5-0.1-0.6-0.2c-0.1-0.1-0.2-0.4-0.2-0.7v-1.5h-0.5v-0.5H34V152h0.6v0.8h0.8
					V153.3z"/>
				<path fill="#3C3C3B" d="M37.2,153.3h-0.8v1.5c0,0.2,0,0.3,0.1,0.4c0.1,0.1,0.2,0.1,0.3,0.1c0.1,0,0.1,0,0.2,0s0.1,0,0.2,0l0,0.5
					c-0.1,0-0.1,0-0.2,0.1c-0.1,0-0.2,0-0.3,0c-0.3,0-0.5-0.1-0.6-0.2c-0.1-0.1-0.2-0.4-0.2-0.7v-1.5h-0.5v-0.5h0.5V152h0.6v0.8h0.8
					V153.3z"/>
				<path fill="#3C3C3B" d="M38.4,157.1h-0.6v-4.3h0.6v0.4h0c0.1-0.2,0.2-0.3,0.4-0.4c0.2-0.1,0.4-0.1,0.6-0.1c0.2,0,0.4,0,0.6,0.1
					c0.2,0.1,0.3,0.2,0.4,0.3c0.1,0.1,0.2,0.3,0.3,0.5c0.1,0.2,0.1,0.4,0.1,0.6s0,0.4-0.1,0.6c-0.1,0.2-0.2,0.3-0.3,0.5
					c-0.1,0.1-0.3,0.2-0.4,0.3c-0.2,0.1-0.4,0.1-0.6,0.1c-0.2,0-0.4,0-0.6-0.1c-0.2-0.1-0.3-0.2-0.4-0.4h0V157.1z M40.2,154.3
					c0-0.1,0-0.3-0.1-0.4s-0.1-0.2-0.2-0.3c-0.1-0.1-0.2-0.2-0.3-0.2c-0.1-0.1-0.3-0.1-0.4-0.1c-0.1,0-0.3,0-0.4,0.1
					c-0.1,0.1-0.2,0.1-0.3,0.2c-0.1,0.1-0.1,0.2-0.2,0.3s-0.1,0.3-0.1,0.4s0,0.3,0.1,0.4s0.1,0.2,0.2,0.3s0.2,0.2,0.3,0.2
					c0.1,0.1,0.2,0.1,0.4,0.1c0.2,0,0.3,0,0.4-0.1c0.1-0.1,0.2-0.1,0.3-0.2s0.1-0.2,0.2-0.3S40.2,154.4,40.2,154.3z"/>
				<path fill="#3C3C3B" d="M43.1,153.6c-0.1-0.1-0.2-0.2-0.3-0.3c-0.1-0.1-0.2-0.1-0.4-0.1c-0.1,0-0.1,0-0.2,0s-0.1,0-0.2,0.1
					c-0.1,0-0.1,0.1-0.1,0.1c0,0,0,0.1,0,0.2c0,0.1,0.1,0.2,0.2,0.3s0.3,0.1,0.5,0.2c0.1,0,0.3,0.1,0.4,0.1c0.1,0,0.2,0.1,0.3,0.2
					c0.1,0.1,0.2,0.1,0.2,0.2c0,0.1,0.1,0.2,0.1,0.3c0,0.2,0,0.3-0.1,0.4s-0.1,0.2-0.3,0.3s-0.2,0.1-0.4,0.2c-0.1,0-0.3,0-0.4,0
					c-0.2,0-0.4,0-0.6-0.1s-0.4-0.2-0.5-0.4l0.4-0.3c0.1,0.1,0.2,0.2,0.3,0.3c0.1,0.1,0.3,0.1,0.4,0.1c0.1,0,0.1,0,0.2,0
					c0.1,0,0.1,0,0.2-0.1c0.1,0,0.1-0.1,0.1-0.1c0-0.1,0-0.1,0-0.2c0-0.1-0.1-0.2-0.2-0.3s-0.3-0.1-0.6-0.2c-0.1,0-0.2-0.1-0.3-0.1
					c-0.1,0-0.2-0.1-0.3-0.1c-0.1-0.1-0.1-0.1-0.2-0.2c0-0.1-0.1-0.2-0.1-0.3c0-0.2,0-0.3,0.1-0.4c0.1-0.1,0.1-0.2,0.2-0.3
					c0.1-0.1,0.2-0.1,0.3-0.2s0.3-0.1,0.4-0.1c0.2,0,0.4,0,0.6,0.1c0.2,0.1,0.3,0.2,0.4,0.3L43.1,153.6z"/>
				<path fill="#3C3C3B" d="M45.1,153.2c0,0.1,0,0.2-0.1,0.3s-0.2,0.1-0.3,0.1c-0.1,0-0.2,0-0.3-0.1c-0.1-0.1-0.1-0.2-0.1-0.3
					c0-0.1,0-0.2,0.1-0.3c0.1-0.1,0.2-0.1,0.3-0.1c0.1,0,0.2,0,0.3,0.1S45.1,153.1,45.1,153.2z M45.1,155.3c0,0.1,0,0.2-0.1,0.3
					s-0.2,0.1-0.3,0.1c-0.1,0-0.2,0-0.3-0.1c-0.1-0.1-0.1-0.2-0.1-0.3c0-0.1,0-0.2,0.1-0.3c0.1-0.1,0.2-0.1,0.3-0.1
					c0.1,0,0.2,0,0.3,0.1S45.1,155.2,45.1,155.3z"/>
				<path fill="#3C3C3B" d="M46,155.9l-0.4-0.1l1.8-4.5l0.4,0.2L46,155.9z"/>
				<path fill="#3C3C3B" d="M48.3,155.9l-0.4-0.1l1.8-4.5l0.4,0.2L48.3,155.9z"/>
				<path fill="#3C3C3B" d="M50.9,156.2c0.1,0.1,0.3,0.3,0.5,0.3s0.4,0.1,0.6,0.1c0.2,0,0.3,0,0.5-0.1c0.1-0.1,0.2-0.1,0.3-0.2
					c0.1-0.1,0.1-0.2,0.2-0.3c0-0.1,0.1-0.3,0.1-0.4v-0.4h0c-0.1,0.2-0.2,0.3-0.4,0.4s-0.4,0.1-0.6,0.1c-0.2,0-0.4,0-0.6-0.1
					c-0.2-0.1-0.3-0.2-0.5-0.3c-0.1-0.1-0.2-0.3-0.3-0.5s-0.1-0.4-0.1-0.6c0-0.2,0-0.4,0.1-0.6c0.1-0.2,0.2-0.3,0.3-0.5
					c0.1-0.1,0.3-0.2,0.5-0.3c0.2-0.1,0.4-0.1,0.6-0.1c0.2,0,0.4,0,0.6,0.1s0.3,0.2,0.4,0.4h0v-0.5h0.5v2.7c0,0.2,0,0.4-0.1,0.6
					c-0.1,0.2-0.1,0.4-0.3,0.5c-0.1,0.1-0.3,0.3-0.5,0.4c-0.2,0.1-0.4,0.1-0.7,0.1c-0.2,0-0.5,0-0.7-0.1s-0.5-0.2-0.6-0.4
					L50.9,156.2z M51,154.3c0,0.1,0,0.3,0.1,0.4c0,0.1,0.1,0.2,0.2,0.3c0.1,0.1,0.2,0.2,0.3,0.2c0.1,0.1,0.2,0.1,0.4,0.1
					c0.1,0,0.3,0,0.4-0.1c0.1-0.1,0.2-0.1,0.3-0.2c0.1-0.1,0.1-0.2,0.2-0.3s0.1-0.3,0.1-0.4c0-0.1,0-0.3-0.1-0.4s-0.1-0.2-0.2-0.3
					c-0.1-0.1-0.2-0.2-0.3-0.2c-0.1-0.1-0.2-0.1-0.4-0.1c-0.1,0-0.3,0-0.4,0.1c-0.1,0.1-0.2,0.1-0.3,0.2c-0.1,0.1-0.1,0.2-0.2,0.3
					C51,154,51,154.1,51,154.3z"/>
				<path fill="#3C3C3B" d="M56.2,153.9c0-0.2-0.1-0.4-0.2-0.5c-0.1-0.1-0.3-0.2-0.5-0.2c-0.2,0-0.3,0-0.5,0.1
					c-0.1,0.1-0.3,0.1-0.4,0.2l-0.3-0.4c0.1-0.1,0.3-0.2,0.5-0.3c0.2-0.1,0.4-0.1,0.7-0.1c0.2,0,0.4,0,0.5,0.1
					c0.1,0.1,0.3,0.1,0.4,0.2c0.1,0.1,0.2,0.2,0.2,0.4c0,0.1,0.1,0.3,0.1,0.4v1.2c0,0.1,0,0.2,0,0.3c0,0.1,0,0.2,0,0.3h-0.5
					c0-0.1,0-0.3,0-0.4h0c-0.1,0.2-0.2,0.3-0.4,0.4c-0.2,0.1-0.3,0.1-0.6,0.1c-0.1,0-0.2,0-0.4,0c-0.1,0-0.2-0.1-0.3-0.1
					c-0.1-0.1-0.2-0.2-0.2-0.3c-0.1-0.1-0.1-0.2-0.1-0.4c0-0.2,0.1-0.4,0.2-0.5c0.1-0.1,0.3-0.2,0.5-0.3c0.2-0.1,0.4-0.1,0.6-0.1
					C55.7,153.9,56,153.9,56.2,153.9L56.2,153.9z M56.1,154.3c-0.1,0-0.3,0-0.4,0s-0.3,0-0.4,0.1c-0.1,0-0.2,0.1-0.3,0.2
					c-0.1,0.1-0.1,0.2-0.1,0.3c0,0.1,0,0.2,0.1,0.2c0,0.1,0.1,0.1,0.1,0.1c0.1,0,0.1,0.1,0.2,0.1c0.1,0,0.1,0,0.2,0
					c0.3,0,0.5-0.1,0.6-0.2c0.1-0.2,0.2-0.4,0.2-0.6v-0.2H56.1z"/>
				<path fill="#3C3C3B" d="M57.7,153.2c0-0.1,0-0.2,0-0.3h0.5c0,0.1,0,0.2,0,0.2c0,0.1,0,0.2,0,0.2h0c0.1-0.2,0.2-0.3,0.4-0.4
					c0.2-0.1,0.3-0.2,0.5-0.2c0.1,0,0.2,0,0.2,0l0,0.5c-0.1,0-0.2,0-0.3,0c-0.1,0-0.3,0-0.4,0.1c-0.1,0-0.2,0.1-0.2,0.2
					s-0.1,0.2-0.1,0.3c0,0.1,0,0.2,0,0.3v1.5h-0.6v-2.2C57.7,153.4,57.7,153.3,57.7,153.2z"/>
				<path fill="#3C3C3B" d="M61.7,153.6c-0.1-0.1-0.1-0.2-0.3-0.2c-0.1-0.1-0.2-0.1-0.4-0.1c-0.1,0-0.3,0-0.4,0.1
					c-0.1,0.1-0.2,0.1-0.3,0.2c-0.1,0.1-0.1,0.2-0.2,0.3s-0.1,0.3-0.1,0.4s0,0.3,0.1,0.4s0.1,0.2,0.2,0.3c0.1,0.1,0.2,0.2,0.3,0.2
					c0.1,0.1,0.2,0.1,0.4,0.1c0.1,0,0.3,0,0.4-0.1c0.1-0.1,0.2-0.1,0.3-0.2l0.4,0.3c-0.1,0.1-0.3,0.2-0.5,0.3
					c-0.2,0.1-0.4,0.1-0.6,0.1c-0.2,0-0.4,0-0.6-0.1c-0.2-0.1-0.3-0.2-0.5-0.3c-0.1-0.1-0.2-0.3-0.3-0.5c-0.1-0.2-0.1-0.4-0.1-0.6
					c0-0.2,0-0.4,0.1-0.6c0.1-0.2,0.2-0.3,0.3-0.5c0.1-0.1,0.3-0.2,0.5-0.3c0.2-0.1,0.4-0.1,0.6-0.1c0.2,0,0.4,0,0.6,0.1
					c0.2,0.1,0.4,0.2,0.5,0.3L61.7,153.6z"/>
				<path fill="#3C3C3B" d="M63.4,151.8c0,0.1,0,0.2-0.1,0.3c-0.1,0.1-0.2,0.1-0.3,0.1s-0.2,0-0.3-0.1c-0.1-0.1-0.1-0.2-0.1-0.3
					c0-0.1,0-0.2,0.1-0.3c0.1-0.1,0.2-0.1,0.3-0.1s0.2,0,0.3,0.1C63.3,151.6,63.4,151.7,63.4,151.8z M63.3,155.7h-0.6v-2.8h0.6
					V155.7z"/>
				<path fill="#3C3C3B" d="M66,153.9c0-0.2-0.1-0.4-0.2-0.5c-0.1-0.1-0.3-0.2-0.5-0.2c-0.2,0-0.3,0-0.5,0.1
					c-0.1,0.1-0.3,0.1-0.4,0.2l-0.3-0.4c0.1-0.1,0.3-0.2,0.5-0.3c0.2-0.1,0.4-0.1,0.7-0.1c0.2,0,0.4,0,0.5,0.1
					c0.1,0.1,0.3,0.1,0.4,0.2c0.1,0.1,0.2,0.2,0.2,0.4c0,0.1,0.1,0.3,0.1,0.4v1.2c0,0.1,0,0.2,0,0.3c0,0.1,0,0.2,0,0.3h-0.5
					c0-0.1,0-0.3,0-0.4h0c-0.1,0.2-0.2,0.3-0.4,0.4c-0.2,0.1-0.3,0.1-0.6,0.1c-0.1,0-0.2,0-0.4,0c-0.1,0-0.2-0.1-0.3-0.1
					c-0.1-0.1-0.2-0.2-0.2-0.3c-0.1-0.1-0.1-0.2-0.1-0.4c0-0.2,0.1-0.4,0.2-0.5c0.1-0.1,0.3-0.2,0.5-0.3c0.2-0.1,0.4-0.1,0.6-0.1
					C65.5,153.9,65.8,153.9,66,153.9L66,153.9z M65.9,154.3c-0.1,0-0.3,0-0.4,0s-0.3,0-0.4,0.1c-0.1,0-0.2,0.1-0.3,0.2
					c-0.1,0.1-0.1,0.2-0.1,0.3c0,0.1,0,0.2,0.1,0.2c0,0.1,0.1,0.1,0.1,0.1c0.1,0,0.1,0.1,0.2,0.1c0.1,0,0.1,0,0.2,0
					c0.3,0,0.5-0.1,0.6-0.2c0.1-0.2,0.2-0.4,0.2-0.6v-0.2H65.9z"/>
				<path fill="#3C3C3B" d="M68.4,152.9c0.2-0.1,0.3-0.2,0.6-0.2c0.2,0,0.4,0,0.5,0.1s0.3,0.2,0.4,0.4c0.1-0.2,0.2-0.3,0.4-0.4
					c0.2-0.1,0.4-0.1,0.6-0.1c0.2,0,0.3,0,0.5,0.1c0.1,0.1,0.2,0.1,0.3,0.2c0.1,0.1,0.2,0.2,0.2,0.4s0.1,0.3,0.1,0.5v1.8h-0.6v-1.6
					c0-0.1,0-0.2,0-0.3c0-0.1-0.1-0.2-0.1-0.3c0-0.1-0.1-0.1-0.2-0.2s-0.2-0.1-0.3-0.1c-0.1,0-0.2,0-0.3,0.1
					c-0.1,0.1-0.2,0.1-0.2,0.2s-0.1,0.2-0.1,0.3c0,0.1,0,0.2,0,0.3v1.5h-0.6V154c0-0.1,0-0.2,0-0.3s-0.1-0.2-0.1-0.2
					c0-0.1-0.1-0.1-0.2-0.2c-0.1,0-0.2-0.1-0.3-0.1c-0.2,0-0.4,0.1-0.5,0.3c-0.1,0.2-0.2,0.4-0.2,0.7v1.5h-0.6v-2.2
					c0-0.1,0-0.2,0-0.3s0-0.2,0-0.3H68c0,0.1,0,0.2,0,0.2c0,0.1,0,0.2,0,0.2h0C68.1,153.2,68.2,153,68.4,152.9z"/>
				<path fill="#3C3C3B" d="M74.6,153.9c0-0.2-0.1-0.4-0.2-0.5c-0.1-0.1-0.3-0.2-0.5-0.2c-0.2,0-0.3,0-0.5,0.1
					c-0.1,0.1-0.3,0.1-0.4,0.2l-0.3-0.4c0.1-0.1,0.3-0.2,0.5-0.3c0.2-0.1,0.4-0.1,0.7-0.1c0.2,0,0.4,0,0.5,0.1
					c0.1,0.1,0.3,0.1,0.4,0.2c0.1,0.1,0.2,0.2,0.2,0.4c0,0.1,0.1,0.3,0.1,0.4v1.2c0,0.1,0,0.2,0,0.3c0,0.1,0,0.2,0,0.3h-0.5
					c0-0.1,0-0.3,0-0.4h0c-0.1,0.2-0.2,0.3-0.4,0.4c-0.2,0.1-0.3,0.1-0.6,0.1c-0.1,0-0.2,0-0.4,0c-0.1,0-0.2-0.1-0.3-0.1
					c-0.1-0.1-0.2-0.2-0.2-0.3c-0.1-0.1-0.1-0.2-0.1-0.4c0-0.2,0.1-0.4,0.2-0.5c0.1-0.1,0.3-0.2,0.5-0.3c0.2-0.1,0.4-0.1,0.6-0.1
					C74.1,153.9,74.4,153.9,74.6,153.9L74.6,153.9z M74.5,154.3c-0.1,0-0.3,0-0.4,0s-0.3,0-0.4,0.1c-0.1,0-0.2,0.1-0.3,0.2
					c-0.1,0.1-0.1,0.2-0.1,0.3c0,0.1,0,0.2,0.1,0.2c0,0.1,0.1,0.1,0.1,0.1c0.1,0,0.1,0.1,0.2,0.1c0.1,0,0.1,0,0.2,0
					c0.3,0,0.5-0.1,0.6-0.2c0.1-0.2,0.2-0.4,0.2-0.6v-0.2H74.5z"/>
				<path fill="#3C3C3B" d="M76.1,153.2c0-0.1,0-0.2,0-0.3h0.5c0,0.1,0,0.2,0,0.2c0,0.1,0,0.2,0,0.2h0c0.1-0.2,0.2-0.3,0.4-0.4
					c0.2-0.1,0.3-0.2,0.5-0.2c0.1,0,0.2,0,0.2,0l0,0.5c-0.1,0-0.2,0-0.3,0c-0.1,0-0.3,0-0.4,0.1c-0.1,0-0.2,0.1-0.2,0.2
					s-0.1,0.2-0.1,0.3c0,0.1,0,0.2,0,0.3v1.5h-0.6v-2.2C76.1,153.4,76.1,153.3,76.1,153.2z"/>
				<path fill="#3C3C3B" d="M80.1,153.6c-0.1-0.1-0.1-0.2-0.3-0.2c-0.1-0.1-0.2-0.1-0.4-0.1c-0.1,0-0.3,0-0.4,0.1
					c-0.1,0.1-0.2,0.1-0.3,0.2c-0.1,0.1-0.1,0.2-0.2,0.3s-0.1,0.3-0.1,0.4s0,0.3,0.1,0.4s0.1,0.2,0.2,0.3c0.1,0.1,0.2,0.2,0.3,0.2
					c0.1,0.1,0.2,0.1,0.4,0.1c0.1,0,0.3,0,0.4-0.1c0.1-0.1,0.2-0.1,0.3-0.2l0.4,0.3c-0.1,0.1-0.3,0.2-0.5,0.3
					c-0.2,0.1-0.4,0.1-0.6,0.1c-0.2,0-0.4,0-0.6-0.1c-0.2-0.1-0.3-0.2-0.5-0.3c-0.1-0.1-0.2-0.3-0.3-0.5c-0.1-0.2-0.1-0.4-0.1-0.6
					c0-0.2,0-0.4,0.1-0.6c0.1-0.2,0.2-0.3,0.3-0.5c0.1-0.1,0.3-0.2,0.5-0.3c0.2-0.1,0.4-0.1,0.6-0.1c0.2,0,0.4,0,0.6,0.1
					c0.2,0.1,0.4,0.2,0.5,0.3L80.1,153.6z"/>
				<path fill="#3C3C3B" d="M84,154.3c0,0.2,0,0.4-0.1,0.6c-0.1,0.2-0.2,0.3-0.3,0.5c-0.1,0.1-0.3,0.2-0.5,0.3s-0.4,0.1-0.6,0.1
					c-0.2,0-0.4,0-0.6-0.1s-0.4-0.2-0.5-0.3c-0.1-0.1-0.2-0.3-0.3-0.5c-0.1-0.2-0.1-0.4-0.1-0.6s0-0.4,0.1-0.6
					c0.1-0.2,0.2-0.3,0.3-0.5c0.1-0.1,0.3-0.2,0.5-0.3c0.2-0.1,0.4-0.1,0.6-0.1c0.2,0,0.4,0,0.6,0.1c0.2,0.1,0.4,0.2,0.5,0.3
					c0.1,0.1,0.2,0.3,0.3,0.5C84,153.9,84,154.1,84,154.3z M83.4,154.3c0-0.1,0-0.3-0.1-0.4c0-0.1-0.1-0.2-0.2-0.3s-0.2-0.2-0.3-0.2
					c-0.1-0.1-0.3-0.1-0.4-0.1c-0.2,0-0.3,0-0.4,0.1c-0.1,0.1-0.2,0.1-0.3,0.2c-0.1,0.1-0.1,0.2-0.2,0.3c0,0.1-0.1,0.3-0.1,0.4
					s0,0.3,0.1,0.4c0,0.1,0.1,0.2,0.2,0.3c0.1,0.1,0.2,0.2,0.3,0.2c0.1,0.1,0.3,0.1,0.4,0.1c0.2,0,0.3,0,0.4-0.1
					c0.1-0.1,0.2-0.1,0.3-0.2s0.1-0.2,0.2-0.3S83.4,154.4,83.4,154.3z"/>
				<path fill="#3C3C3B" d="M85.6,153.2h0.2c0.1,0,0.2,0,0.4,0c0.1,0,0.2-0.1,0.3-0.1c0.1-0.1,0.2-0.1,0.2-0.2
					c0.1-0.1,0.1-0.2,0.1-0.3c0-0.1,0-0.2-0.1-0.3c0-0.1-0.1-0.2-0.2-0.2c-0.1-0.1-0.1-0.1-0.2-0.1c-0.1,0-0.2-0.1-0.3-0.1
					c-0.2,0-0.3,0-0.5,0.1c-0.1,0.1-0.2,0.2-0.3,0.4l-0.5-0.2c0.1-0.3,0.3-0.5,0.5-0.6c0.2-0.1,0.5-0.2,0.8-0.2c0.2,0,0.3,0,0.5,0.1
					c0.2,0.1,0.3,0.1,0.4,0.2c0.1,0.1,0.2,0.2,0.3,0.4c0.1,0.1,0.1,0.3,0.1,0.5c0,0.1,0,0.2-0.1,0.3c0,0.1-0.1,0.2-0.2,0.3
					c-0.1,0.1-0.1,0.2-0.2,0.2c-0.1,0.1-0.2,0.1-0.3,0.1v0c0.1,0,0.2,0.1,0.3,0.1c0.1,0.1,0.2,0.1,0.3,0.2s0.1,0.2,0.2,0.3
					c0,0.1,0.1,0.2,0.1,0.4c0,0.2,0,0.4-0.1,0.6c-0.1,0.2-0.2,0.3-0.3,0.4c-0.1,0.1-0.3,0.2-0.5,0.2c-0.2,0.1-0.3,0.1-0.5,0.1
					c-0.3,0-0.6-0.1-0.9-0.2c-0.3-0.2-0.4-0.4-0.6-0.7l0.5-0.2c0.1,0.2,0.2,0.3,0.3,0.5c0.2,0.1,0.3,0.2,0.6,0.2
					c0.1,0,0.2,0,0.3-0.1c0.1,0,0.2-0.1,0.3-0.2c0.1-0.1,0.1-0.2,0.2-0.3c0-0.1,0.1-0.2,0.1-0.4c0-0.1,0-0.3-0.1-0.4
					c-0.1-0.1-0.1-0.2-0.2-0.2c-0.1-0.1-0.2-0.1-0.3-0.1c-0.1,0-0.3,0-0.4,0h-0.2V153.2z"/>
				<path fill="#3C3C3B" d="M89.1,153.2h0.2c0.1,0,0.2,0,0.4,0c0.1,0,0.2-0.1,0.3-0.1c0.1-0.1,0.2-0.1,0.2-0.2
					c0.1-0.1,0.1-0.2,0.1-0.3c0-0.1,0-0.2-0.1-0.3c0-0.1-0.1-0.2-0.2-0.2c-0.1-0.1-0.1-0.1-0.2-0.1c-0.1,0-0.2-0.1-0.3-0.1
					c-0.2,0-0.3,0-0.5,0.1c-0.1,0.1-0.2,0.2-0.3,0.4l-0.5-0.2c0.1-0.3,0.3-0.5,0.5-0.6c0.2-0.1,0.5-0.2,0.8-0.2c0.2,0,0.3,0,0.5,0.1
					c0.2,0.1,0.3,0.1,0.4,0.2c0.1,0.1,0.2,0.2,0.3,0.4c0.1,0.1,0.1,0.3,0.1,0.5c0,0.1,0,0.2-0.1,0.3c0,0.1-0.1,0.2-0.2,0.3
					c-0.1,0.1-0.1,0.2-0.2,0.2c-0.1,0.1-0.2,0.1-0.3,0.1v0c0.1,0,0.2,0.1,0.3,0.1c0.1,0.1,0.2,0.1,0.3,0.2s0.1,0.2,0.2,0.3
					c0,0.1,0.1,0.2,0.1,0.4c0,0.2,0,0.4-0.1,0.6c-0.1,0.2-0.2,0.3-0.3,0.4c-0.1,0.1-0.3,0.2-0.5,0.2c-0.2,0.1-0.3,0.1-0.5,0.1
					c-0.3,0-0.6-0.1-0.9-0.2c-0.3-0.2-0.4-0.4-0.6-0.7l0.5-0.2c0.1,0.2,0.2,0.3,0.3,0.5c0.2,0.1,0.3,0.2,0.6,0.2
					c0.1,0,0.2,0,0.3-0.1c0.1,0,0.2-0.1,0.3-0.2c0.1-0.1,0.1-0.2,0.2-0.3c0-0.1,0.1-0.2,0.1-0.4c0-0.1,0-0.3-0.1-0.4
					c-0.1-0.1-0.1-0.2-0.2-0.2c-0.1-0.1-0.2-0.1-0.3-0.1c-0.1,0-0.3,0-0.4,0h-0.2V153.2z"/>
				<path fill="#3C3C3B" d="M92.6,155.3c0,0.1,0,0.2-0.1,0.3c-0.1,0.1-0.2,0.1-0.3,0.1c-0.1,0-0.2,0-0.3-0.1s-0.1-0.2-0.1-0.3
					c0-0.1,0-0.2,0.1-0.3c0.1-0.1,0.2-0.1,0.3-0.1c0.1,0,0.2,0,0.3,0.1C92.6,155.1,92.6,155.2,92.6,155.3z"/>
				<path fill="#3C3C3B" d="M93.7,156.2c0.1,0.1,0.3,0.3,0.5,0.3c0.2,0.1,0.4,0.1,0.6,0.1c0.2,0,0.3,0,0.5-0.1s0.2-0.1,0.3-0.2
					c0.1-0.1,0.1-0.2,0.2-0.3c0-0.1,0.1-0.3,0.1-0.4v-0.4h0c-0.1,0.2-0.2,0.3-0.4,0.4c-0.2,0.1-0.4,0.1-0.6,0.1
					c-0.2,0-0.4,0-0.6-0.1c-0.2-0.1-0.3-0.2-0.5-0.3c-0.1-0.1-0.2-0.3-0.3-0.5c-0.1-0.2-0.1-0.4-0.1-0.6c0-0.2,0-0.4,0.1-0.6
					c0.1-0.2,0.2-0.3,0.3-0.5c0.1-0.1,0.3-0.2,0.4-0.3c0.2-0.1,0.4-0.1,0.6-0.1c0.2,0,0.4,0,0.6,0.1c0.2,0.1,0.3,0.2,0.4,0.4h0v-0.5
					h0.5v2.7c0,0.2,0,0.4-0.1,0.6c-0.1,0.2-0.1,0.4-0.3,0.5c-0.1,0.1-0.3,0.3-0.5,0.4c-0.2,0.1-0.4,0.1-0.7,0.1
					c-0.2,0-0.5,0-0.7-0.1s-0.5-0.2-0.6-0.4L93.7,156.2z M93.9,154.3c0,0.1,0,0.3,0.1,0.4s0.1,0.2,0.2,0.3c0.1,0.1,0.2,0.2,0.3,0.2
					c0.1,0.1,0.2,0.1,0.4,0.1c0.1,0,0.3,0,0.4-0.1c0.1-0.1,0.2-0.1,0.3-0.2c0.1-0.1,0.1-0.2,0.2-0.3s0.1-0.3,0.1-0.4
					c0-0.1,0-0.3-0.1-0.4s-0.1-0.2-0.2-0.3c-0.1-0.1-0.2-0.2-0.3-0.2c-0.1-0.1-0.2-0.1-0.4-0.1c-0.1,0-0.3,0-0.4,0.1
					s-0.2,0.1-0.3,0.2c-0.1,0.1-0.1,0.2-0.2,0.3S93.9,154.1,93.9,154.3z"/>
				<path fill="#3C3C3B" d="M97.9,151.8c0,0.1,0,0.2-0.1,0.3c-0.1,0.1-0.2,0.1-0.3,0.1c-0.1,0-0.2,0-0.3-0.1
					c-0.1-0.1-0.1-0.2-0.1-0.3c0-0.1,0-0.2,0.1-0.3c0.1-0.1,0.2-0.1,0.3-0.1c0.1,0,0.2,0,0.3,0.1S97.9,151.7,97.9,151.8z
					 M97.8,155.7h-0.6v-2.8h0.6V155.7z"/>
				<path fill="#3C3C3B" d="M100.2,153.3h-0.8v1.5c0,0.2,0,0.3,0.1,0.4c0.1,0.1,0.2,0.1,0.3,0.1c0.1,0,0.1,0,0.2,0
					c0.1,0,0.1,0,0.2,0l0,0.5c-0.1,0-0.1,0-0.2,0.1c-0.1,0-0.2,0-0.3,0c-0.3,0-0.5-0.1-0.6-0.2c-0.1-0.1-0.2-0.4-0.2-0.7v-1.5h-0.5
					v-0.5h0.5V152h0.6v0.8h0.8V153.3z"/>
				<path fill="#3C3C3B" d="M101.4,153.3c0.1-0.1,0.2-0.3,0.3-0.4c0.2-0.1,0.3-0.1,0.6-0.1c0.2,0,0.3,0,0.5,0.1
					c0.1,0.1,0.2,0.1,0.3,0.2c0.1,0.1,0.2,0.2,0.2,0.4s0.1,0.3,0.1,0.5v1.8h-0.6v-1.6c0-0.1,0-0.2,0-0.3c0-0.1-0.1-0.2-0.1-0.3
					s-0.1-0.1-0.2-0.2c-0.1,0-0.2-0.1-0.3-0.1c-0.2,0-0.4,0.1-0.6,0.3c-0.1,0.2-0.2,0.4-0.2,0.7v1.5h-0.6v-4.5h0.6L101.4,153.3
					L101.4,153.3z"/>
				<path fill="#3C3C3B" d="M106.3,155.7c0-0.1,0-0.2,0-0.2s0-0.2,0-0.2h0c-0.1,0.2-0.2,0.3-0.4,0.4c-0.2,0.1-0.4,0.2-0.6,0.2
					c-0.2,0-0.3,0-0.5-0.1c-0.1-0.1-0.2-0.1-0.3-0.2c-0.1-0.1-0.1-0.2-0.2-0.4s-0.1-0.3-0.1-0.5v-1.8h0.6v1.6c0,0.1,0,0.2,0,0.3
					c0,0.1,0.1,0.2,0.1,0.3c0,0.1,0.1,0.1,0.2,0.2s0.2,0.1,0.3,0.1c0.2,0,0.4-0.1,0.6-0.3c0.1-0.2,0.2-0.4,0.2-0.7v-1.5h0.6v2.2
					c0,0.1,0,0.2,0,0.3s0,0.2,0,0.3H106.3z"/>
				<path fill="#3C3C3B" d="M108.3,155.3v0.5h-0.5v-4.5h0.6v2.1h0c0.1-0.1,0.2-0.3,0.4-0.4c0.2-0.1,0.4-0.1,0.6-0.1
					c0.2,0,0.4,0,0.6,0.1c0.2,0.1,0.3,0.2,0.4,0.3c0.1,0.1,0.2,0.3,0.3,0.5c0.1,0.2,0.1,0.4,0.1,0.6s0,0.4-0.1,0.6
					c-0.1,0.2-0.2,0.3-0.3,0.5c-0.1,0.1-0.3,0.2-0.4,0.3s-0.4,0.1-0.6,0.1c-0.2,0-0.4,0-0.6-0.1
					C108.6,155.6,108.5,155.4,108.3,155.3L108.3,155.3z M110.2,154.3c0-0.1,0-0.3-0.1-0.4c0-0.1-0.1-0.2-0.2-0.3s-0.2-0.2-0.3-0.2
					c-0.1-0.1-0.3-0.1-0.4-0.1c-0.1,0-0.3,0-0.4,0.1s-0.2,0.1-0.3,0.2s-0.1,0.2-0.2,0.3c0,0.1-0.1,0.3-0.1,0.4s0,0.3,0.1,0.4
					c0,0.1,0.1,0.2,0.2,0.3s0.2,0.2,0.3,0.2s0.2,0.1,0.4,0.1c0.2,0,0.3,0,0.4-0.1c0.1-0.1,0.2-0.1,0.3-0.2s0.1-0.2,0.2-0.3
					C110.2,154.5,110.2,154.4,110.2,154.3z"/>
				<path fill="#3C3C3B" d="M112.2,155.3c0,0.1,0,0.2-0.1,0.3c-0.1,0.1-0.2,0.1-0.3,0.1c-0.1,0-0.2,0-0.3-0.1s-0.1-0.2-0.1-0.3
					c0-0.1,0-0.2,0.1-0.3s0.2-0.1,0.3-0.1c0.1,0,0.2,0,0.3,0.1C112.2,155.1,112.2,155.2,112.2,155.3z"/>
				<path fill="#3C3C3B" d="M113.7,151.8c0,0.1,0,0.2-0.1,0.3c-0.1,0.1-0.2,0.1-0.3,0.1c-0.1,0-0.2,0-0.3-0.1
					c-0.1-0.1-0.1-0.2-0.1-0.3c0-0.1,0-0.2,0.1-0.3c0.1-0.1,0.2-0.1,0.3-0.1c0.1,0,0.2,0,0.3,0.1S113.7,151.7,113.7,151.8z
					 M113.7,155.7h-0.6v-2.8h0.6V155.7z"/>
				<path fill="#3C3C3B" d="M117.5,154.3c0,0.2,0,0.4-0.1,0.6c-0.1,0.2-0.2,0.3-0.3,0.5c-0.1,0.1-0.3,0.2-0.5,0.3
					c-0.2,0.1-0.4,0.1-0.6,0.1s-0.4,0-0.6-0.1c-0.2-0.1-0.3-0.2-0.5-0.3c-0.1-0.1-0.2-0.3-0.3-0.5c-0.1-0.2-0.1-0.4-0.1-0.6
					s0-0.4,0.1-0.6c0.1-0.2,0.2-0.3,0.3-0.5c0.1-0.1,0.3-0.2,0.5-0.3c0.2-0.1,0.4-0.1,0.6-0.1s0.4,0,0.6,0.1
					c0.2,0.1,0.4,0.2,0.5,0.3c0.1,0.1,0.2,0.3,0.3,0.5C117.5,153.9,117.5,154.1,117.5,154.3z M116.9,154.3c0-0.1,0-0.3-0.1-0.4
					c0-0.1-0.1-0.2-0.2-0.3s-0.2-0.2-0.3-0.2s-0.3-0.1-0.4-0.1s-0.3,0-0.4,0.1s-0.2,0.1-0.3,0.2s-0.1,0.2-0.2,0.3
					c0,0.1-0.1,0.3-0.1,0.4s0,0.3,0.1,0.4s0.1,0.2,0.2,0.3s0.2,0.2,0.3,0.2s0.3,0.1,0.4,0.1s0.3,0,0.4-0.1s0.2-0.1,0.3-0.2
					s0.1-0.2,0.2-0.3S116.9,154.4,116.9,154.3z"/>
				<path fill="#3C3C3B" d="M118.2,155.9l-0.4-0.1l1.8-4.5l0.4,0.2L118.2,155.9z"/>
				<path fill="#3C3C3B" d="M121.2,155.7h-0.6v-4.2h1.4c0.2,0,0.4,0,0.6,0.1s0.3,0.1,0.5,0.2c0.1,0.1,0.2,0.2,0.3,0.4
					s0.1,0.3,0.1,0.5c0,0.3-0.1,0.6-0.3,0.8c-0.2,0.2-0.4,0.3-0.7,0.4l1.2,2h-0.7l-1.1-1.9h-0.6V155.7z M121.2,153.3h0.7
					c0.1,0,0.3,0,0.4,0c0.1,0,0.2-0.1,0.3-0.1s0.2-0.1,0.2-0.2s0.1-0.2,0.1-0.3s0-0.2-0.1-0.3s-0.1-0.2-0.2-0.2
					c-0.1-0.1-0.2-0.1-0.3-0.1c-0.1,0-0.2,0-0.4,0h-0.7V153.3z"/>
				<path fill="#3C3C3B" d="M125.4,154.5H124V154h1.4V154.5z"/>
				<path fill="#3C3C3B" d="M127.5,153.3h-0.7v2.4h-0.6v-2.4h-0.6v-0.5h0.6v-0.6c0-0.2,0-0.3,0.1-0.5c0-0.1,0.1-0.3,0.2-0.4
					c0.1-0.1,0.2-0.2,0.3-0.2c0.1-0.1,0.3-0.1,0.5-0.1c0.1,0,0.3,0,0.4,0l-0.1,0.5c0,0-0.1,0-0.1,0c0,0-0.1,0-0.2,0
					c-0.1,0-0.2,0-0.3,0.1c-0.1,0-0.1,0.1-0.2,0.2c0,0.1-0.1,0.1-0.1,0.2c0,0.1,0,0.2,0,0.3v0.6h0.7V153.3z M128.6,155.7h-0.6v-4.5
					h0.6V155.7z"/>
				<path fill="#3C3C3B" d="M132.3,154.3C132.3,154.3,132.3,154.3,132.3,154.3c0,0.1,0,0.2,0,0.2H130c0,0.1,0,0.2,0.1,0.3
					c0,0.1,0.1,0.2,0.2,0.3c0.1,0.1,0.2,0.1,0.3,0.2c0.1,0,0.2,0.1,0.4,0.1c0.2,0,0.4,0,0.5-0.1s0.2-0.2,0.3-0.3l0.4,0.3
					c-0.2,0.2-0.3,0.3-0.5,0.4c-0.2,0.1-0.4,0.1-0.7,0.1c-0.2,0-0.4,0-0.6-0.1c-0.2-0.1-0.3-0.2-0.5-0.3c-0.1-0.1-0.2-0.3-0.3-0.5
					c-0.1-0.2-0.1-0.4-0.1-0.6c0-0.2,0-0.4,0.1-0.6c0.1-0.2,0.2-0.3,0.3-0.5c0.1-0.1,0.3-0.2,0.5-0.3c0.2-0.1,0.4-0.1,0.6-0.1
					c0.2,0,0.4,0,0.6,0.1c0.2,0.1,0.3,0.2,0.4,0.3c0.1,0.1,0.2,0.3,0.3,0.5C132.3,153.8,132.3,154,132.3,154.3z M131.7,154
					c0-0.1,0-0.2-0.1-0.3c0-0.1-0.1-0.2-0.1-0.3c-0.1-0.1-0.1-0.1-0.2-0.2c-0.1,0-0.2-0.1-0.3-0.1c-0.1,0-0.2,0-0.3,0.1
					c-0.1,0-0.2,0.1-0.3,0.2s-0.1,0.2-0.2,0.3c0,0.1-0.1,0.2-0.1,0.3H131.7z"/>
				<path fill="#3C3C3B" d="M133.7,154.2l-1-1.3h0.7l0.7,1l0.7-1h0.7l-1,1.3l1.1,1.5h-0.7l-0.8-1.1l-0.8,1.1h-0.7L133.7,154.2z"/>
				<path fill="#3C3C3B" d="M138.9,154.3c0,0.2,0,0.4-0.1,0.6c-0.1,0.2-0.2,0.3-0.3,0.5c-0.1,0.1-0.3,0.2-0.5,0.3
					c-0.2,0.1-0.4,0.1-0.6,0.1s-0.4,0-0.6-0.1c-0.2-0.1-0.3-0.2-0.5-0.3c-0.1-0.1-0.2-0.3-0.3-0.5c-0.1-0.2-0.1-0.4-0.1-0.6
					s0-0.4,0.1-0.6c0.1-0.2,0.2-0.3,0.3-0.5c0.1-0.1,0.3-0.2,0.5-0.3c0.2-0.1,0.4-0.1,0.6-0.1s0.4,0,0.6,0.1
					c0.2,0.1,0.4,0.2,0.5,0.3c0.1,0.1,0.2,0.3,0.3,0.5C138.9,153.9,138.9,154.1,138.9,154.3z M138.3,154.3c0-0.1,0-0.3-0.1-0.4
					c0-0.1-0.1-0.2-0.2-0.3s-0.2-0.2-0.3-0.2s-0.3-0.1-0.4-0.1s-0.3,0-0.4,0.1s-0.2,0.1-0.3,0.2s-0.1,0.2-0.2,0.3
					c0,0.1-0.1,0.3-0.1,0.4s0,0.3,0.1,0.4s0.1,0.2,0.2,0.3s0.2,0.2,0.3,0.2s0.3,0.1,0.4,0.1s0.3,0,0.4-0.1s0.2-0.1,0.3-0.2
					s0.1-0.2,0.2-0.3S138.3,154.4,138.3,154.3z"/>
				<path fill="#3C3C3B" d="M140.2,155.7h-0.6v-4.5h0.6V155.7z"/>
				<path fill="#3C3C3B" d="M144.1,154.3c0,0.2,0,0.4-0.1,0.6c-0.1,0.2-0.2,0.3-0.3,0.5c-0.1,0.1-0.3,0.2-0.5,0.3
					c-0.2,0.1-0.4,0.1-0.6,0.1s-0.4,0-0.6-0.1c-0.2-0.1-0.3-0.2-0.5-0.3c-0.1-0.1-0.2-0.3-0.3-0.5c-0.1-0.2-0.1-0.4-0.1-0.6
					s0-0.4,0.1-0.6c0.1-0.2,0.2-0.3,0.3-0.5c0.1-0.1,0.3-0.2,0.5-0.3c0.2-0.1,0.4-0.1,0.6-0.1s0.4,0,0.6,0.1
					c0.2,0.1,0.4,0.2,0.5,0.3c0.1,0.1,0.2,0.3,0.3,0.5C144.1,153.9,144.1,154.1,144.1,154.3z M143.5,154.3c0-0.1,0-0.3-0.1-0.4
					c0-0.1-0.1-0.2-0.2-0.3s-0.2-0.2-0.3-0.2s-0.3-0.1-0.4-0.1s-0.3,0-0.4,0.1s-0.2,0.1-0.3,0.2s-0.1,0.2-0.2,0.3
					c0,0.1-0.1,0.3-0.1,0.4s0,0.3,0.1,0.4s0.1,0.2,0.2,0.3s0.2,0.2,0.3,0.2s0.3,0.1,0.4,0.1s0.3,0,0.4-0.1s0.2-0.1,0.3-0.2
					s0.1-0.2,0.2-0.3S143.5,154.4,143.5,154.3z"/>
				<path fill="#3C3C3B" d="M145.1,156.2c0.1,0.1,0.3,0.3,0.5,0.3c0.2,0.1,0.4,0.1,0.6,0.1c0.2,0,0.3,0,0.5-0.1s0.2-0.1,0.3-0.2
					c0.1-0.1,0.1-0.2,0.2-0.3c0-0.1,0.1-0.3,0.1-0.4v-0.4h0c-0.1,0.2-0.2,0.3-0.4,0.4c-0.2,0.1-0.4,0.1-0.6,0.1
					c-0.2,0-0.4,0-0.6-0.1c-0.2-0.1-0.3-0.2-0.5-0.3c-0.1-0.1-0.2-0.3-0.3-0.5c-0.1-0.2-0.1-0.4-0.1-0.6c0-0.2,0-0.4,0.1-0.6
					c0.1-0.2,0.2-0.3,0.3-0.5c0.1-0.1,0.3-0.2,0.4-0.3c0.2-0.1,0.4-0.1,0.6-0.1c0.2,0,0.4,0,0.6,0.1c0.2,0.1,0.3,0.2,0.4,0.4h0v-0.5
					h0.5v2.7c0,0.2,0,0.4-0.1,0.6c-0.1,0.2-0.1,0.4-0.3,0.5c-0.1,0.1-0.3,0.3-0.5,0.4c-0.2,0.1-0.4,0.1-0.7,0.1
					c-0.2,0-0.5,0-0.7-0.1s-0.5-0.2-0.6-0.4L145.1,156.2z M145.3,154.3c0,0.1,0,0.3,0.1,0.4s0.1,0.2,0.2,0.3
					c0.1,0.1,0.2,0.2,0.3,0.2c0.1,0.1,0.2,0.1,0.4,0.1c0.1,0,0.3,0,0.4-0.1c0.1-0.1,0.2-0.1,0.3-0.2c0.1-0.1,0.1-0.2,0.2-0.3
					s0.1-0.3,0.1-0.4c0-0.1,0-0.3-0.1-0.4s-0.1-0.2-0.2-0.3c-0.1-0.1-0.2-0.2-0.3-0.2c-0.1-0.1-0.2-0.1-0.4-0.1
					c-0.1,0-0.3,0-0.4,0.1s-0.2,0.1-0.3,0.2c-0.1,0.1-0.1,0.2-0.2,0.3S145.3,154.1,145.3,154.3z"/>
				<path fill="#3C3C3B" d="M149.3,151.8c0,0.1,0,0.2-0.1,0.3c-0.1,0.1-0.2,0.1-0.3,0.1c-0.1,0-0.2,0-0.3-0.1
					c-0.1-0.1-0.1-0.2-0.1-0.3c0-0.1,0-0.2,0.1-0.3c0.1-0.1,0.2-0.1,0.3-0.1c0.1,0,0.2,0,0.3,0.1S149.3,151.7,149.3,151.8z
					 M149.3,155.7h-0.6v-2.8h0.6V155.7z"/>
				<path fill="#3C3C3B" d="M152.9,154.3C152.9,154.3,152.9,154.3,152.9,154.3c0,0.1,0,0.2,0,0.2h-2.3c0,0.1,0,0.2,0.1,0.3
					c0,0.1,0.1,0.2,0.2,0.3c0.1,0.1,0.2,0.1,0.3,0.2c0.1,0,0.2,0.1,0.4,0.1c0.2,0,0.4,0,0.5-0.1s0.2-0.2,0.3-0.3l0.4,0.3
					c-0.2,0.2-0.3,0.3-0.5,0.4c-0.2,0.1-0.4,0.1-0.7,0.1c-0.2,0-0.4,0-0.6-0.1c-0.2-0.1-0.3-0.2-0.5-0.3c-0.1-0.1-0.2-0.3-0.3-0.5
					c-0.1-0.2-0.1-0.4-0.1-0.6c0-0.2,0-0.4,0.1-0.6c0.1-0.2,0.2-0.3,0.3-0.5c0.1-0.1,0.3-0.2,0.5-0.3c0.2-0.1,0.4-0.1,0.6-0.1
					c0.2,0,0.4,0,0.6,0.1c0.2,0.1,0.3,0.2,0.4,0.3c0.1,0.1,0.2,0.3,0.3,0.5C152.9,153.8,152.9,154,152.9,154.3z M152.3,154
					c0-0.1,0-0.2-0.1-0.3c0-0.1-0.1-0.2-0.1-0.3c-0.1-0.1-0.1-0.1-0.2-0.2c-0.1,0-0.2-0.1-0.3-0.1c-0.1,0-0.2,0-0.3,0.1
					c-0.1,0-0.2,0.1-0.3,0.2s-0.1,0.2-0.2,0.3c0,0.1-0.1,0.2-0.1,0.3H152.3z"/>
			</g>
		</g>
	</g>
	<g>
		<g>
			<path fill="#EDEDED" stroke="#282727" stroke-width="0.5" stroke-miterlimit="10" d="M89.2,25.6L89.2,25.6
				C89.1,25.6,89.1,25.6,89.2,25.6c-0.1,0-0.1,0-0.2,0v0c-25.2,0.1-44.1,21.7-32.5,47.7c11.6,26.1,26.9,35.4,32.5,35.4
				c5.6,0,21-9.3,32.7-35.4C133.3,47.2,114.3,25.7,89.2,25.6z"/>
			<g>
				<g>
					<g>
						<g>
							<g>
								<g>
									<g>
										<linearGradient id="SVGID_1_" gradientUnits="userSpaceOnUse" x1="74.424" y1="49.4069" x2="74.424" y2="70.9783">
											<stop  offset="0" style="stop-color:#333333"/>
											<stop  offset="1" style="stop-color:#0D0D0D"/>
										</linearGradient>
										<path fill="url(#SVGID_1_)" d="M87.1,76.9c0,0-2.6-23.7-18-20.5C58.4,58.7,55.5,80.6,87.1,76.9z"/>
									</g>
								</g>
							</g>
						</g>
					</g>
					<g>
						<g>
							<g>
								<g>
									<g>
										<linearGradient id="SVGID_2_" gradientUnits="userSpaceOnUse" x1="103.5377" y1="49.4069" x2="103.5377" y2="70.9783">
											<stop  offset="0" style="stop-color:#333333"/>
											<stop  offset="1" style="stop-color:#0D0D0D"/>
										</linearGradient>
										<path fill="url(#SVGID_2_)" d="M90.8,76.9c0,0,2.6-23.7,18-20.5C119.5,58.7,122.5,80.6,90.8,76.9z"/>
									</g>
								</g>
							</g>
						</g>
					</g>
				</g>
				<ellipse fill="#282727" cx="89" cy="95.6" rx="1.5" ry="2.1"/>
				<g>
					<g>
						<path fill="#282727" d="M92.2,82.6c0,0,0,0.3-0.2,0.6c-0.2,0.3-0.4,0.7-0.7,0.9c-0.3,0.3-0.7,0.5-1,0.6
							c-0.3,0.1-0.6,0.1-0.6,0.1s0-0.3,0.2-0.6c0.2-0.3,0.4-0.7,0.7-0.9c0.3-0.3,0.7-0.5,1-0.6C92,82.6,92.2,82.6,92.2,82.6z"/>
					</g>
					<g>
						<path fill="#282727" d="M85.7,82.6c0,0,0.3,0,0.6,0.1c0.3,0.1,0.7,0.3,1,0.6c0.3,0.3,0.6,0.6,0.7,0.9c0.2,0.3,0.2,0.6,0.2,0.6
							s-0.3,0-0.6-0.1c-0.3-0.1-0.7-0.3-1-0.6c-0.3-0.3-0.6-0.6-0.7-0.9C85.8,82.9,85.7,82.6,85.7,82.6z"/>
					</g>
				</g>
			</g>
		</g>
		<g>
			<g>
				<path fill="#EDEDED" stroke="#282727" stroke-width="0.5" stroke-miterlimit="10" d="M97.4,118c-28,4.5-54.4-14.6-58.9-42.6
					C34,47.4,53.1,21,81.1,16.5s54.4,14.6,58.9,42.6C144.5,87.1,125.4,113.5,97.4,118z M81.6,19.4c-26.4,4.2-44.3,29.1-40.1,55.5
					c4.2,26.3,29.1,44.3,55.5,40.1c26.4-4.2,44.3-29.1,40.1-55.5C132.8,33.2,107.9,15.2,81.6,19.4z"/>
			</g>
			<g>
				<path fill="#EDEDED" stroke="#282727" stroke-width="0.5" stroke-miterlimit="10" d="M42.8,49.1c-1.7-1.3-2.8-1.1-2.8-1.1
					c-1.5,0.4-1,1.9-1,1.9c-1.4,0.6-0.4,1.8-0.4,1.8s-1.8,0.2-0.7,3.3c0,0,0.2,1.1,1.1,1.8c0,0,0.2-1.4,0.5-2.1s2.7-0.1,2.7,1.6
					c0,0,1.2-1,0.6-2"/>
				<path fill="#EDEDED" stroke="#282727" stroke-width="0.5" stroke-miterlimit="10" d="M40,50c0,0,1.2-0.2,2.3,0.7"/>
				<path fill="#EDEDED" stroke="#282727" stroke-width="0.5" stroke-miterlimit="10" d="M39.7,52.1c0,0,1.9,0.1,3,2
					c0,0,1.9-0.8,0.9-1.6"/>
				<path fill="#EDEDED" stroke="#282727" stroke-width="0.5" stroke-miterlimit="10" d="M43.3,52.4c-0.8-0.1-1.5-0.1-1-1.8
					c0.5-1.6,0.5-2.2,1.3-2.1c0.7,0.1,1.4-0.3,0.8,2.3C44.2,51.9,44.1,52.5,43.3,52.4z"/>
			</g>
			<g>
				<path fill="#EDEDED" stroke="#282727" stroke-width="0.5" stroke-miterlimit="10" d="M57.6,105.8c-1.8,1.2-2,2.4-2,2.4
					c-0.1,1.6,1.5,1.5,1.5,1.5c0.1,1.5,1.6,0.9,1.6,0.9s-0.4,1.8,2.9,1.6c0,0,1.1,0.2,2-0.5c0,0-1.3-0.6-1.9-1.1
					c-0.6-0.5,0.7-2.6,2.3-2.1c0,0-0.6-1.4-1.7-1.2"/>
				<path fill="#EDEDED" stroke="#282727" stroke-width="0.5" stroke-miterlimit="10" d="M57.7,108.8c0,0,0.2-1.2,1.3-2"/>
				<path fill="#EDEDED" stroke="#282727" stroke-width="0.5" stroke-miterlimit="10" d="M59.5,109.6c0,0,0.7-1.8,2.8-2.3
					c0,0-0.2-2.1-1.3-1.3"/>
				<path fill="#EDEDED" stroke="#282727" stroke-width="0.5" stroke-miterlimit="10" d="M61,106.4c-0.3,0.7-0.6,1.4-2,0.4
					c-1.4-0.9-2-1.2-1.6-1.9c0.3-0.7,0.1-1.4,2.5-0.1C60.7,105.4,61.3,105.6,61,106.4z"/>
			</g>
			<g>
				<path fill="#EDEDED" stroke="#282727" stroke-width="0.5" stroke-miterlimit="10" d="M116.2,109.2c0.6,2.1,1.6,2.6,1.6,2.6
					c1.4,0.6,1.9-0.9,1.9-0.9c1.5,0.3,1.4-1.2,1.4-1.2s1.6,0.9,2.5-2.2c0,0,0.5-1,0.1-2.1c0,0-1,1-1.7,1.4c-0.7,0.4-2.2-1.5-1.3-2.9
					c0,0-1.5,0.2-1.6,1.3"/>
				<path fill="#EDEDED" stroke="#282727" stroke-width="0.5" stroke-miterlimit="10" d="M119,110.1c0,0-1.1-0.5-1.5-1.9"/>
				<path fill="#EDEDED" stroke="#282727" stroke-width="0.5" stroke-miterlimit="10" d="M120.4,108.6c0,0-1.5-1.2-1.3-3.4
					c0,0-2-0.5-1.7,0.8"/>
				<path fill="#EDEDED" stroke="#282727" stroke-width="0.5" stroke-miterlimit="10" d="M117.7,106.2c0.6,0.5,1.1,1-0.2,2
					c-1.3,1.1-1.7,1.5-2.3,1c-0.5-0.5-1.3-0.5,0.7-2.4C116.7,106.1,117.1,105.7,117.7,106.2z"/>
			</g>
			<g>
				<path fill="#EDEDED" stroke="#282727" stroke-width="0.5" stroke-miterlimit="10" d="M137.5,54.6c2.1,0.1,3-0.7,3-0.7
					c1-1.2-0.3-2.1-0.3-2.1c0.8-1.3-0.7-1.7-0.7-1.7s1.3-1.2-1.4-3c0,0-0.8-0.8-2-0.8c0,0,0.7,1.2,0.9,2c0.2,0.8-2.1,1.7-3.1,0.3
					c0,0-0.3,1.5,0.7,2"/>
				<path fill="#EDEDED" stroke="#282727" stroke-width="0.5" stroke-miterlimit="10" d="M139.2,52.2c0,0-0.8,0.9-2.2,0.8"/>
				<path fill="#EDEDED" stroke="#282727" stroke-width="0.5" stroke-miterlimit="10" d="M138.2,50.4c0,0-1.6,1-3.6,0.2
					c0,0-1.1,1.8,0.3,1.8"/>
				<path fill="#EDEDED" stroke="#282727" stroke-width="0.5" stroke-miterlimit="10" d="M135.1,52.2c0.7-0.4,1.3-0.8,1.9,0.8
					c0.6,1.6,0.9,2.1,0.2,2.5c-0.7,0.4-0.9,1.1-2-1.4C134.7,53.1,134.4,52.6,135.1,52.2z"/>
			</g>
			<g>
				<path fill="#EDEDED" stroke="#282727" stroke-width="0.5" stroke-miterlimit="10" d="M92.2,17.4c0.8-2,0.2-3.1,0.2-3.1
					C91.5,13,90.2,14,90.2,14c-1-1.1-1.8,0.2-1.8,0.2s-0.8-1.7-3.3,0.4c0,0-1,0.5-1.3,1.6c0,0,1.4-0.3,2.2-0.2
					c0.8,0.1,0.9,2.5-0.7,3.1c0,0,1.3,0.8,2.1-0.1"/>
				<path fill="#EDEDED" stroke="#282727" stroke-width="0.5" stroke-miterlimit="10" d="M90.4,15.1c0,0,0.6,1.1,0.1,2.4"/>
				<path fill="#EDEDED" stroke="#282727" stroke-width="0.5" stroke-miterlimit="10" d="M88.3,15.4c0,0,0.5,1.8-0.9,3.5
					c0,0,1.4,1.6,1.8,0.3"/>
				<path fill="#EDEDED" stroke="#282727" stroke-width="0.5" stroke-miterlimit="10" d="M89.1,18.9c-0.2-0.8-0.4-1.4,1.4-1.5
					c1.7-0.1,2.3-0.2,2.4,0.5c0.1,0.7,0.7,1.2-1.9,1.5C89.9,19.6,89.3,19.7,89.1,18.9z"/>
			</g>
		</g>
	</g>
</g>
</svg>
